<svg xmlns="http://www.w3.org/2000/svg" viewBox="0 0 390.4 48.48"><defs><style>.cls-1{fill:#fff;}</style></defs><g id="Слой_2" data-name="Слой 2"><g id="Layer_1" data-name="Layer 1"><path class="cls-1" d="M175.22,31a7.82,7.82,0,0,1-7.62-7.41v-1.3a7.64,7.64,0,1,1,15.26.65A7.86,7.86,0,0,1,175.22,31m1.34-23a13.65,13.65,0,0,0-9,3.38V8.93h-7.9v37.2h7.89V34.49a13.65,13.65,0,0,0,9,3.38c7.79,0,14.11-6.67,14.11-14.89s-6.32-14.9-14.11-14.9"/><polygon class="cls-1" points="309.78 8.93 303.81 8.93 303.81 0 295.93 0 295.93 8.93 292.28 8.93 292.28 15.43 295.93 15.43 295.93 36.98 303.81 36.98 303.81 15.43 309.78 15.43 309.78 8.93"/><path class="cls-1" d="M250.31,23a7.63,7.63,0,1,1-15.24.65v-1.3a7.63,7.63,0,1,1,15.24.65m7.8,0c0-8.22-6.31-14.88-14.1-14.88a13.58,13.58,0,0,0-8.94,3.38V0h-7.89V37h7.89V34.47A13.62,13.62,0,0,0,244,37.84c7.79,0,14.1-6.66,14.1-14.88"/><path class="cls-1" d="M201.29,22.33a8.06,8.06,0,0,1,7.94-7.8,6.36,6.36,0,0,1,5.86,3.13l-13.77,5.59s0-.42,0-.92M203.54,29l19.92-8.09A14.24,14.24,0,0,0,209,8.07,15,15,0,0,0,193.79,23c0,8.22,6.89,14.88,15.54,14.88,5.71,0,10.78-2.27,13-5l-4.3-4.34c-8.49,6.08-14.19,1.14-14.54.43"/><path class="cls-1" d="M93.13,8.93V24.79a6.27,6.27,0,0,1-12.54,0V8.93H72.76V23.74a14.1,14.1,0,1,0,28.19,0V8.93Z"/><path class="cls-1" d="M140.35,31A8,8,0,0,1,132.58,23a7.77,7.77,0,1,1,15.53,0A8,8,0,0,1,140.35,31m0-23c-8.59,0-15.56,6.66-15.56,14.88s7,14.88,15.56,14.88S155.9,31.18,155.9,23s-7-14.88-15.55-14.88"/><path class="cls-1" d="M47,22.33a8.06,8.06,0,0,1,7.94-7.8,6.36,6.36,0,0,1,5.86,3.13L47,23.25s0-.42,0-.92M49.24,29l19.92-8.09A14.23,14.23,0,0,0,54.65,8.07,15,15,0,0,0,39.49,23c0,8.22,6.89,14.88,15.54,14.88,5.7,0,10.78-2.28,13-5l-4.3-4.34c-8.49,6.08-14.19,1.14-14.54.43"/><path class="cls-1" d="M268.61,22.33a8.07,8.07,0,0,1,7.94-7.8,6.37,6.37,0,0,1,5.87,3.13l-13.78,5.59s0-.42,0-.92M270.87,29l19.92-8.09A14.25,14.25,0,0,0,276.27,8.07,15,15,0,0,0,261.12,23c0,8.22,6.88,14.88,15.53,14.88,5.71,0,10.79-2.27,13.05-5l-4.3-4.34c-8.49,6.08-14.19,1.14-14.53.43"/><path class="cls-1" d="M123,8.38c-6.18-1.07-17.53.93-17.53,12.94V37h7.85V23.36c0-9.62,9.68-8,9.68-8Z"/><path class="cls-1" d="M317.64,36.86h0A4.32,4.32,0,1,1,322,32.54a4.32,4.32,0,0,1-4.32,4.32"/><path class="cls-1" d="M0,23A17.55,17.55,0,1,1,17.54,40.5,17.54,17.54,0,0,1,0,23"/><path class="cls-1" d="M351.18,23a7.63,7.63,0,1,1-15.25.65v-1.3a7.63,7.63,0,1,1,15.25.65m7.8,0c0-8.22-6.31-14.88-14.11-14.88a13.62,13.62,0,0,0-8.94,3.38V0h-7.88V37h7.88V34.47a13.66,13.66,0,0,0,8.94,3.37c7.8,0,14.11-6.66,14.11-14.88"/><path class="cls-1" d="M359.38,8.88h8.22L375.3,28h.11L382.3,8.88h8.1L378.09,40.46a14.07,14.07,0,0,1-1.66,3.48c-2,2.62-4.41,4.54-9.83,4.54a20.76,20.76,0,0,1-5.39-.7l.88-6.33a12.9,12.9,0,0,0,1.73.5,8.11,8.11,0,0,0,1.84.21,8.39,8.39,0,0,0,2.17-.24,3.92,3.92,0,0,0,1.49-.73,4.05,4.05,0,0,0,1-1.29c.27-.52,1.18-2.75,1.18-2.75Z"/></g></g></svg>