<svg xmlns="http://www.w3.org/2000/svg" viewBox="0 0 67.23 86.44"><defs><style>.cls-1{fill:#fff;}</style></defs><g id="Слой_2" data-name="Слой 2"><g id="Layer_1" data-name="Layer 1"><path class="cls-1" d="M26.41,65.83,12.71,52.12c-.31-.3-3.11-3.15-3.11-6.5A9.62,9.62,0,0,1,19.21,36a12,12,0,0,1,7.2,2.76A12,12,0,0,1,33.62,36a9.62,9.62,0,0,1,9.6,9.6c0,3.35-2.8,6.2-3.12,6.52Zm-7.2-25a4.8,4.8,0,0,0-4.8,4.8,5.76,5.76,0,0,0,1.68,3.09L26.41,59,36.72,48.73a5.86,5.86,0,0,0,1.7-3.11,4.81,4.81,0,0,0-4.8-4.8c-2.38,0-4.77,2.08-5.42,2.8l-1.79,2-1.78-2C23.91,42.84,21.55,40.82,19.21,40.82Z"/><path class="cls-1" d="M40.82,86.44H12a12,12,0,0,1-12-12v-48a12,12,0,0,1,12-12H40.82a12,12,0,0,1,12,12v48A12,12,0,0,1,40.82,86.44ZM12,19.21a7.21,7.21,0,0,0-7.21,7.2v48A7.21,7.21,0,0,0,12,81.64H40.82a7.21,7.21,0,0,0,7.2-7.2v-48a7.21,7.21,0,0,0-7.2-7.2Z"/><path class="cls-1" d="M55.23,72V67.23a7.21,7.21,0,0,0,7.2-7.2V12a7.21,7.21,0,0,0-7.2-7.21H26.41A7.21,7.21,0,0,0,19.21,12h-4.8a12,12,0,0,1,12-12H55.23a12,12,0,0,1,12,12V60A12,12,0,0,1,55.23,72Z"/></g></g></svg>