<svg xmlns="http://www.w3.org/2000/svg" viewBox="0 0 95.36 80.46"><defs><style>.cls-1{fill:#fff;}</style></defs><g id="Слой_2" data-name="Слой 2"><g id="Layer_1" data-name="Layer 1"><path class="cls-1" d="M68.54,80.46H26.82a3,3,0,0,1,0-6H68.54a3,3,0,0,1,0,6Z"/><path class="cls-1" d="M80.46,65.56H14.9A14.91,14.91,0,0,1,0,50.66V14.9A14.91,14.91,0,0,1,14.9,0H80.46a14.91,14.91,0,0,1,14.9,14.9V50.66A14.91,14.91,0,0,1,80.46,65.56ZM14.9,6A9,9,0,0,0,6,14.9V50.66A9,9,0,0,0,14.9,59.6H80.46a9,9,0,0,0,8.94-8.94V14.9A9,9,0,0,0,80.46,6Z"/><path class="cls-1" d="M47.68,29.8a3,3,0,0,1-3-3v-6a3,3,0,1,1,6,0v6A3,3,0,0,1,47.68,29.8Z"/><path class="cls-1" d="M47.68,47.68a3,3,0,0,1-3-3v-6a3,3,0,1,1,6,0v6A3,3,0,0,1,47.68,47.68Z"/><path class="cls-1" d="M32.78,50.66H14.9a3,3,0,0,1-2.11-5.09L26.45,31.92c2.51-2.51,3.35-3.35,3.35-8.08a3,3,0,0,0-3-3h-6a3,3,0,0,0-3,3,3,3,0,1,1-6,0,9,9,0,0,1,8.94-8.94h6a9,9,0,0,1,8.94,8.94c0,6.85-1.93,9.14-5.09,12.29L22.1,44.7H32.78a3,3,0,0,1,0,6Z"/><path class="cls-1" d="M74.38,50.66H68.67A9.07,9.07,0,0,1,59.6,41.6V24a9.08,9.08,0,0,1,9.07-9.06h5.71A9.07,9.07,0,0,1,83.44,24V41.6A9.06,9.06,0,0,1,74.38,50.66Zm-5.71-29.8A3.11,3.11,0,0,0,65.56,24V41.6a3.11,3.11,0,0,0,3.11,3.1h5.71a3.1,3.1,0,0,0,3.1-3.1V24a3.1,3.1,0,0,0-3.1-3.1Z"/></g></g></svg>