<svg xmlns="http://www.w3.org/2000/svg" viewBox="0 0 89.36 89.36"><defs><style>.cls-1{fill:#fff;}</style></defs><g id="Слой_2" data-name="Слой 2"><g id="Layer_1" data-name="Layer 1"><path class="cls-1" d="M44.68,89.36A44.68,44.68,0,1,1,89.36,44.68,44.73,44.73,0,0,1,44.68,89.36Zm0-85.64a41,41,0,1,0,40.95,41A41,41,0,0,0,44.68,3.72Z"/><path class="cls-1" d="M64,27.68A3.72,3.72,0,1,1,67.74,24,3.72,3.72,0,0,1,64,27.68"/><path class="cls-1" d="M65.4,41a3.69,3.69,0,0,0-3.21,1.86H47.88a3.69,3.69,0,0,0-1.34-1.35V27.17a3.73,3.73,0,1,0-3.72,0v14.3a3.8,3.8,0,0,0-1.35,1.35H27.17a3.72,3.72,0,1,0,0,3.72h14.3a3.8,3.8,0,0,0,1.35,1.35v14.3a3.72,3.72,0,1,0,3.72,0V47.89a3.69,3.69,0,0,0,1.34-1.35H62.19A3.72,3.72,0,1,0,65.4,41Z"/></g></g></svg>