<svg xmlns="http://www.w3.org/2000/svg" viewBox="0 0 368.62 206.87"><defs><style>.cls-1{fill:#fff;stroke:#fff;stroke-miterlimit:22.93;stroke-width:0.57px;fill-rule:evenodd;}</style></defs><title>Ресурс 1</title><g id="Слой_2" data-name="Слой 2"><g id="Layer_1" data-name="Layer 1"><path class="cls-1" d="M219.68,77.05l-11-.89,5.81,59.74c3.24-.25,8.17-.23,11.41-.57,2.93-5,21-41.35,21-41.35s3.78,29.72,4.6,40.87c.91-.14,10.93-.61,10.93-.61l-7-56.79c-3.24.14-6.44.29-9.71.4-2.46,3.64-22.36,43.08-22.36,43.08,0-.74-3.7-43.88-3.7-43.88Zm.5-26.53c-2.45.23-4.91.5-7.33.75,1.12,4.87,3.69,18.12,18.37,19.34,13.44-.29,15-11.55,15.85-15.83-2.57-.55-5.06-1.14-7.56-1.77-1.34,3.52-1.62,9.36-8.84,8.9-4.83-.18-9.55-7.71-10.49-11.39Zm-37.69,61.76-15.74-1.85L173.9,82.8l8.59,29.48Zm-3.26-40.71-11.44-1.78-18.74,61.29c3.72.47,7.48.91,11.24,1.29,0,0,3.75-12.92,4-13.57l23.54,2.58,5.39,13.44,11.2.53L179.23,71.57ZM123.87,94c-2.61-.74-5.18-1.5-7.74-2.3l-.48-25.12,8.08,2.89a15.34,15.34,0,0,1,10.79,14.78c.22,9.75-4.75,11.11-10.65,9.75Zm3.23-33.91-22.31-7.9.77,70q5.52,1.29,11.16,2.53l.38-23.55c2.9.82,5.84,1.62,8.78,2.36,12.4,2.44,20.31-2.22,20-15.83-.26-15.22-10.12-24.59-18.75-27.61ZM97.89,49.65,62.64,33.12l-1.35,75.31,11.05,4s.77-60.95.86-61.74c0,0,17.18,8.39,24.74,11.72l0-12.81ZM15.51,7.28,3.93.48.29,80.69l9.56,5L39,45.05,35.54,97.36l11.38,5.58L50.8,26.71l-9.28-5.4s-29.29,44-29.48,44l3.47-58Z"/><path class="cls-1" d="M366.71,177.86l-11.87,2.53,1.63,9.14,11.83-2.09-1.59-9.58Zm-11.59-48.72-13.35,5L353.18,173l10.38-2.22-8.44-41.64Zm-47,38.67-4-18.91,11.13-1.75c8.29-1.45,16,14.84,2.12,19.24,0,0-8.39,1.19-9.28,1.42Zm7.95-29.36c1.26-.34-24.69,4.89-24.69,4.89L303.17,200c3.68-.86,7.47-1.75,11.23-2.72l-3.49-21.41c17.89-2.15,28.25-8.56,26.34-22.6-1.7-12.41-11.3-17.69-21.16-14.85Zm-33,6.49L246,147.73l8.8,58.16,38.2-3.42L292,193.1l-27.13,2.36-2.38-17.29s20.44-2,20.83-2.06l-1.22-9-21.5,2-1.77-13.95,25.5-2.05-1.3-8.22Zm-77.95,2.34-11.56-.55,5.66,59.8,11.87-.42-2.62-27.64,6.86-.11,19.09,28.22,13.37-.89L224,174s10.55-16.93,16-26.61l-12.32-.13-13.12,22-7.37-.2-2.08-21.69Zm-29.61,27.26c.83,9.73-1.21,21.69-14.14,20.84s-16.85-13-17.52-23.37c-.64-9.78,1.45-21.62,14.4-20.42,12.45,1.16,16.46,12.72,17.26,23v0Zm-43.49-4c1.22,18.48,11,33,30.17,34.14,9.27.46,16-2.3,20.09-7.55s5.73-12.83,4.88-22.1c-1.6-18.06-10.94-30.7-29.43-32.58-19-1.94-26.63,9.91-25.71,28.11v0ZM124,139l-47-9.65.53,63.34,10.68,1.71.24-53.05,23.63,4.61.15,53.16,11.41,1.48L124,139ZM21.21,166.43l-9.1-3,.16-20.13,9.46,2.75c6.7,2.93,9.83,7.8,9.83,14.1-.09,5.89-5.18,8.43-10.35,6.28Zm-.11-29.94-8.81-2.63.25-17.72s8.76,3.45,9.06,3.59c5.06,2.38,8.62,4.56,8.58,11.21-.21,5.82-3.67,6.8-9.08,5.55Zm4.2-24L1.77,102.63c-.22,11.62-.35,18.35-.54,29.94S1,157.66.86,169.28c15.93,5.59,37.89,16.58,41.36-4.15,2.15-8-2.06-16.53-10.24-20.83,2.38-.92,9.25-1.3,10-10,0-12-6.51-17.08-16.67-21.84Z"/></g></g></svg>