<svg xmlns="http://www.w3.org/2000/svg" viewBox="0 0 363.65 159.49"><defs><style>.cls-1{fill:#fff;stroke:#fff;stroke-miterlimit:22.93;stroke-width:0.57px;fill-rule:evenodd;}</style></defs><title>Ресурс 1</title><g id="Слой_2" data-name="Слой 2"><g id="Слой_1-2" data-name="Слой 1"><path class="cls-1" d="M23.72,80.38c-6-1.92-13.24-4-20.06-5.74L.3,135.88s13.86,3,20.31,3.73c6.73.7,16.92,0,18-15.54.37-2.46-2-10.77-9.29-13,0-.12,0-.24,0-.37,5.53-1,9.2-5.52,9.47-12.07.16-8.64-6-15.71-15.08-18.24Zm-3.66,24-7.7-1.91c.24-5.8.44-10,.61-15.83,13.61,1.49,15.35,5.61,15.2,11.73-.31,7.12-4.11,6.49-8.11,6Zm-.83,26c-2.74-.29-5.77-1.06-8.44-1.35.43-6.43.69-11.4,1.05-17.84l8.42,1.77c4.8,1,8.54,5.19,7.91,9.44-.62,8.3-4.49,8.48-8.94,8ZM233.14,116c-1.85,0-2.39-.08-4.23-.12,0,15.54.51,25.23.35,40.77l5.44-.24-.51-17.93,8.57-.22.73,17.44c1.8-.11,2.46-.2,4.29-.31.19-15-.52-25-.5-39.95-1.84,0-3.08,0-4.85,0l.23,16.45c-3.8.05-5.46-.06-9.22,0l-.3-15.9Zm-23.62-1.4-5.38-.32c-.14,16.22.29,43.52.29,43.52,1.56,0,3.16,0,4.8-.09,3.9-10.09,11.6-34.42,11.6-34.42s-.25,33.79-.25,33.79l4.25-.12-.5-42-4.39-.12c-1.31,3.3-10.58,29.25-10.58,29.25s.08-18.23.16-29.53Zm0-15.39c-1.19.42-2.45.84-3.6,1.22.44,4.4,2.83,10.92,8.17,11.24s7.64-5.82,8.13-10c-1.22-.58-2.48-1.15-3.71-1.75-.71,3.43-1.74,6-4.35,5.84-2.81-.17-3.83-2.93-4.64-6.52Zm-17.15,41.92-7.62-.36c.4-2,3.55-19.5,3.59-19.55l4,19.91Zm-1-27-5.94-.52c-3.71,16.59-6.39,28.54-10.4,45.07,1.81.05,3.61.14,5.46.18,1-4.13,2.18-7.25,3.19-11.4,3.45.15,6.9.31,10.38.41.79,4.11,1.35,7.21,2.18,11.3l5.76,0c-3.19-16.57-7.42-28.52-10.63-45.09Zm-49.33,37.22,3.44,7A26.58,26.58,0,0,0,154,145.4c2.24-8.06,2.09-19.59,2.46-28.07l7.74,1c0,.11.59,40.92.41,39.75,1.85.09,3.82-.06,5.67,0,.56-15.93-.08-30.9.09-46.51l-19.24-2c-.61,12.38,1.27,34.76-9,41.78ZM116.32,103c-1.74-.34-4.25-.93-6-1.25-.32,17.94-.18,34-1,52l6.76.78.86-21.7s11,.93,14.83,1.43c-.35,7.8-.43,13.62-.79,21.43,1.81.2,4.39.23,6.24.4.65-17.57,1.08-30.77,1.33-48.35-1.81-.25-4.77-.71-6.55-1-.06,7.06-.18,11.48-.33,18.54-3.78-.54-12-.76-15.75-1.31.14-7.11.33-13.82.4-20.93Zm246.8,7c-1.12.56-1.25.65-2.34,1.21.08,1.33.16,2.66.24,4,1.09-.6,1.23-.7,2.34-1.27l-.24-3.9Zm-1.75-25.27c-1.34.49-1.84.87-3.15,1.35.49,5.71,1.48,15.25,2.13,20.93.87-.45,1.78-.89,2.68-1.32l-1.66-21ZM332.73,98.4c-1.06.29-1.66.49-2.74.75l2,31.74c1.07-.41,1.39-.52,2.46-1-.11-2.2-.25-4.37-.36-6.53s-.16-5.55-.29-7.72c2.29-.79,3.78-1.3,6.07-2.15.23,4.6.66,9.08.89,13.69l2.45-1.09-2-31.19c-1.11.32-1.21.36-2.29.66.11,1.9.23,3.81.33,5.72s.16,6.09.28,8c-2.27.78-4,1.32-6.25,2.06-.28-4.67-.25-8.27-.54-13Zm-15.22,5.52c-1.11.2-2.2.42-3.29.63.52,10.74,1.81,22,2.33,32.75,1-.33,1.94-.64,2.92-.94l4.91-26c.05,0,1,21.86,1.1,23.88,1.07-.38,2.14-.79,3.24-1.21-.51-10.78-1.34-21.35-1.9-32.12-1,.23-1.93.47-2.89.7l-4.69,23.7-1.73-21.36ZM302,133.58c-.47,1.52-1,3-1.45,4.58,1.43,2.64,3.95,4.15,6.56,3.38,4.22-1.19,6.39-6.47,6.11-12.63-.18-3.67-1.48-6.56-3.65-6.54,0-.07,0-.15,0-.23,1.62-1.11,2.81-4.32,2.63-8.1-.27-5.08-2.32-8.16-6.11-7.54-3.14.5-5.25,3.89-6.32,6.74.7,1.16,1.41,2.34,2.14,3.5.89-2.2,2.07-4.53,3.93-4.87,1.64-.29,2.79.94,2.92,3.81.17,3.12-.89,5-2.34,5.29-.75.14-1.44.3-2.19.47.07,1.59.15,3.2.22,4.79.75-.17,1.5-.32,2.27-.52,1.75-.41,2.89.66,3,3.88s-.75,6.1-3.08,6.72-3.87-1.45-4.66-2.73Zm-9.66-1.67-4.66.85c.53-5.1,1.22-10.13,1.65-15.25.2,0,2.72,13,3,14.4Zm-1.44-21.29-3.61.42c-.8,6-1.65,12.11-2.42,18.2s-1.63,12.32-2.44,18.54l3.33-.65c.42-3.08.79-6.13,1.19-9.18,2.12-.39,4.22-.8,6.32-1.22.64,2.77,1.3,5.54,2,8.29,1.13-.27,2.31-.57,3.46-.87-1.31-5.46-2.63-11-3.88-16.53s-2.63-11.29-3.93-17ZM269,114.21c-1.12,0-3.23.28-4.35.31q.79,18.9,1.41,37.78l4.35-.69c-.07-2.7-.17-5.43-.26-8.15s-.21-5.44-.31-8.15c-.44,0,3-.21,3-.21,1.43,4.54,3.39,9.45,5,14.06,1.28-.23,2.54-.44,3.79-.69-2.12-6.08-4.24-12.13-6.3-18.22,1.5-6,3.2-12,4.74-18-1.21.11-2.48.17-3.67.25-1.42,5.62-2.73,11.23-4.12,16.84l-2.66.19c-.22-5.1-.41-10.19-.63-15.29Zm-8.07,21.59c-2.43.2-5.76.42-8.17.57.06,1.77.09,2.81.15,4.56,2.38-.2,5.74-.45,8.17-.67-.06-1.73-.09-2.74-.15-4.46ZM14.05,4.56,5.68.44,2.05,45.56,8.8,48.94l21.75-23L27.18,55.69l8,3.5,4.87-43.5-7.12-3.88L11.3,36.31,14.05,4.56ZM108.3,40.69,81.68,31.31,80.8,74.19l7.13,2.37.37-36.87,13,4.5-.12,34.62,6.5,2.38.62-40.5Zm12.5,17.87-.25-15.37-6.62-1.5,1.12,40.87c11.35,1.7,21.08,7.24,21.12-10.78,0-8.94-8.57-11.41-15.37-13.22Zm7.81,9.78q-1.94-2.31-7.31-2.78l.09,12.5c8.67,3,10.7-3.54,7.22-9.72Zm17.32-18.53-6.13-2,.5,39.5,5.88,1.5-.25-39Zm25.5,4.5-22.5-4.25.12,6.13,8.88,1.62,1.37,32.38,6,1.12-1.37-32.25,7.62,1.13-.12-5.88Zm13.75,1.5-6.13-1.12-7,36.62,5.25,1,1.63-8.87,9.25.25,2.87,9.25,5.75.5L185.18,55.81Zm1.25,21.57-4-14.82L180.3,76.94l6.13.44Zm16.81-19.57-5.06-.18,3,35.93,4.5.19,8.5-24.12,1.31,24.25h4.81l-2.25-35.32-4.25-.31L205.3,82l-2.06-24.19Zm38.38,23.5L230.56,58.25l5.37.06,7.31,18,2.07-18.5,4.31-.18-3.94,28q-1.73,8.84-8.06,7.06V87.81q4.68.33,4-6.5ZM252.43,87l1.06,12.31,4.32-.43-.63-7.75L270.12,90l1,6.13,3-.38L273,83.44l-3.12.31-3-27.62-12.44,1.25q2.07,30.45-2,29.62Zm10.75-25,2.44,22.38-6.56.56q1.05-8.28-.14-22.28l4.26-.66Zm19.06-9.06-4.31.56-2.44,33.94,4.19-.88.38-8,6.56-1.31,2.81,6.88,4.31-.94-11.5-30.25Zm3.07,19.31-4.44-12.69L280.56,73l4.75-.75ZM302,67.56,304,80l2.94-1.06-4.37-31.13-3.69.88,2,14.06c-1.78,2.76-3.51,3.39-5.16,1.89-1.08-1.2-2.15-6.16-3.15-14.51l-3.5.81q1.57,14,3.71,17.65,3.18,5.1,9.22-1Zm15.09,4.38,1.85-29.35-3.56,1.6-.56,16.5-7.13-14.06-3.37,1.31,9.62,18.56c.54,4.18-.23,6.31-2.31,6.41l.06,4.78q4.27,0,5.4-5.75ZM73.79,66.37a13.05,13.05,0,0,1-8,2.66c-9.87,0-20.28-7.12-21.29-22.87S49.12,23.28,59,23.28c6.59,0,13,4.57,17.15,11.37l-5.29,4.23c-2.44-4.6-6.72-8.09-10.58-8.09-5.74,0-8.81,6.2-8.22,15.37s3.39,15.67,12.19,16.42c2.9.25,4.85-.62,6.14-2.18l3.41,6ZM199.68,46.13c1.83-.75,3.19-1.19,3.19-1.19,1,2.61,2.45,4.54,4.31,4.75,2.24,0,3.25-1.45,3.87-4.25l3.63,1.75q-1.45,6.75-6.19,7.44c-5.06.08-7.1-3.78-8.81-8.5Zm151.53,44c3.7,0,6.69,7.3,6.7,16.23s-3,16.12-6.69,16.08-6.69-7.31-6.69-16.23,3-16.13,6.68-16.08Zm0,4.31c2.34,0,4.25,5.35,4.25,11.89s-1.9,11.82-4.25,11.8S347,112.79,347,106.25s1.9-11.83,4.25-11.8ZM80.49,96c10.54-1.66,21,9.35,23.43,24.59s-4.19,29-14.73,30.61-21-9.35-23.43-24.59S70,97.7,80.49,96Zm1.21,7.68c6.17-1,12.58,7.16,14.32,18.16s-1.87,20.7-8,21.68S75.4,136.4,73.67,125.4s1.86-20.7,8-21.68Z"/></g></g></svg>