<svg xmlns="http://www.w3.org/2000/svg" viewBox="0 0 406.18 195.59"><defs><style>.cls-1{fill:#fff;stroke:#fff;stroke-miterlimit:22.93;stroke-width:0.57px;fill-rule:evenodd;}</style></defs><title>Ресурс 2</title><g id="Слой_2" data-name="Слой 2"><g id="Layer_1" data-name="Layer 1"><path class="cls-1" d="M18.66,100.45C15.3,99,10.86,97.24,7.59,95.76l-.51,78c3.52.86,7,1.72,10.52,2.53L18.66,147c.3.09,22.33,5.79,22.33,5.79,0,.34-1.62,27.43-1.62,27.43l11.1,1.68,3.4-67.47-11-4s-1.13,30-1.14,30.62l-22.84-6.19-.2-34.36Zm75.25,23.48-11.42-3.31L59.38,183.27l11.5,1L76,170.58,96.25,173l4.39,15.36s10,1.09,11.21,1.2c-.28-.81-17.8-65-17.94-65.59ZM94.49,163,79.06,161.4s8.27-27.53,8.36-27.86L94.49,163Zm50.3-.49c.73,19.11,6.08,30.58,24.6,31.29,7.86.27,14.69-2.85,18.33-8.34-1.92-2.44-3.22-4.14-5.1-6.59-3.27,3.87-6.79,6.74-12.56,6.46-17.4-1-16.87-26.59-10.73-37.07,2.29-4,5.93-6.17,10.93-5.51,5.93.78,9.12,3.72,12.19,7.58,1.84-2.26,3.68-4.56,5.57-6.89-3.77-5.26-8.05-9.45-17.34-10.77-16.45-2.1-26.16,12.28-25.89,29.84Zm93.08-26.49L195,135.58v58.64l11,.05-.26-48.77,21.26.27.52,49.18c0-.07,10.84.35,10.84.35l-.46-59.24Zm7.7,29.11c.78,16.57,10.18,30.46,27.43,29.43,16.83-1,23.54-14.84,22.75-30.89-.81-16.27-8.87-28.4-25.74-28.42-17.35,0-25.15,13.11-24.44,29.88Zm39.53-.9c.52,9-1.34,21.41-12.76,22-17.42.89-18-26.2-13.84-34.47,2-4,5.82-8.24,11.71-8.24,11.32-.07,14.46,11.6,14.89,20.71Zm36-29.72L301.22,136l3.44,56.59,10.7-1.21-1.44-19.68c8-.79,15.64-.81,21.53-6.64,3.28-3.25,5.09-9.08,4.16-16.64-1.8-10-9.9-14.24-18.5-13.82Zm.88,28-8.61.45-1.14-20.19,7.4-.23c14.43.18,11.33,19.3,2.35,20Zm19.92-21.48,16-.72,4.33,45.42L372.8,185l-4.54-45.56c.33-.06,15-1.36,15-1.36l-.6-8.82-41.15,3.38.41,8.45Zm57.68-13.92-12.78,1.2,8,39s7.51-.91,8.07-1l-3.29-39.12Zm5.93,46.11-10.24,1.42.57,7.06,10-1.12-.36-7.36Z"/><path class="cls-1" d="M6.07,57.1c-1-.63-1.88-1.21-2.74-1.79-1.15,8-2.09,14-3,22,1.89,1.06,4.28,2.25,6.2,3.34L8.71,67.05c7,4.2,14.12,8.17,21.24,12-.49,4.46-.65,7.18-1,11.64,1.93.95,3.85,1.87,5.82,2.82.69-7.35,1.68-12,2.45-19.42l-4-2.16S41.91,18.71,42,18.12C36.17,13.78,27.28,5.23,21.59.52,18.2,16.22,13.42,45.89,6.07,57.1ZM33.34,22.81,26.28,68.18c-4.22-2.53-8.44-5-12.65-7.61,6.29-12.2,8.87-28.66,12.51-43.13,2.37,1.79,4.75,3.58,7.2,5.37ZM72.1,38.69c-6.55-3.89-14.6-8.9-20.9-13.08l-8.77,60c6.87,3.28,13.83,6.36,20.83,9.32.25-2.79.49-5.57.74-8.35-4.79-2.16-8.9-4.06-13.65-6.32L52.7,64.37c3.76,2,8,4.09,11.86,6,.37-2.71.69-5.45,1.06-8.18L53.76,55.56l2.51-16.81c4.5,2.67,10,5.67,14.52,8.2.45-2.75.86-5.49,1.31-8.26ZM67.83,88.84c.69,3,1.31,5.16,2.13,8.1,12.6-4.43,16.12-29.28,18.41-41.81,2.61,1.22,5.23,2.45,7.94,3.67l-6.89,43.73,7.13,1.52s5.49-34.58,7.54-51.24c0,0-14.43-5.83-20.86-9.2C79.78,66,78,84.82,67.83,88.84Zm60-29.29c-2.38-.87-4.71-1.75-7-2.68-6.84,16.88-12.7,31.66-18.31,47.93l6.76,1.36,3.55-11s8.43,2.51,12.65,3.68l1.66,10c2.34.54,4.71,1.09,7.08,1.59.86.11-6.28-50.37-6.35-50.94ZM125,91.1c-3.11-.92-6.18-1.87-9.25-2.84,2-6.06,4.1-12.73,6.38-18.67,0,0,2.58,19.51,2.87,21.51Zm28.87-42c-1.48,0-3,0-4.46,0,.13,4.71,1.21,9.53,4,11.64a10.72,10.72,0,0,0,9.71,1.57c3.19-1.15,5.63-4.19,6.83-8.37-1.47-.89-2.86-1.81-4.26-2.68-1.18,2.94-3.82,6-7.05,5.1s-4.22-3.68-4.79-7.26Zm-3,16.7-6.56-1.09c-1.59,15.63-3.43,31.22-4.19,46.84l6.11.52s17.14-27.25,17.32-27.22l-3.49,28.76,6.61.57,4.62-43.94c-.41-.1-5.89-.39-5.89-.39-1.7,2.69-17.22,28-17.27,28l2.74-32Zm40,30.35c-.53,12,2,19.61,13.75,20.5,5,0,9.75-1.7,12.46-5.15l-2.58-3.8c-2.34,2.41-4.69,4-8.35,3.84-7.22-.42-9.25-6.21-8.92-15.21.36-7.68,4.95-14.27,9.61-13.54,4.22.07,6,3,7.82,5.49,1.23-1.46,3.05-3.52,4.36-5-2.17-3.36-3.75-6.58-10.39-7.71-11.44-1.78-17.28,9.66-17.76,20.58ZM222.5,83.45l9,.42-.89,32c2.25.06,4.5.1,6.79.14l.82-32.21,10.24.28.26-6.69-26-.82c-.08,2-.14,4.92-.27,6.91Zm43.85-5.68-7.28-.06c-4.9,12.45-8.82,25.36-13.19,38,2.21-.06,4.46-.08,6.75-.12l2.55-8.12,12.85-.41,2.71,8.08,7.33,0c-4.38-12-7.82-25.11-11.72-37.41Zm.37,23.46-9.5.23,5.25-17.17c0,.1,4.25,16.94,4.25,16.94Zm29.22-25-13.71.92.6,37.24s3.45-.19,6.91-.48,6.93-.71,6.93-.71c14.43-1.8,14.63-18.36,4.59-18.67,0-.42,5.52-3.21,5.66-9.59.17-6.22-4.69-8.63-11-8.71Zm-6.61,15.89c.08-3.19-.28-6.41-.2-9.62,5.16-.33,10.57-2,10.44,3.66-.12,5.91-4.56,6-10.24,6Zm.3,16.56c0-3.56-.18-6.55-.14-10.09,5.29-.45,11.44-2.28,11.38,3.87-.13,7.43-10.81,6.18-11.24,6.22Zm30.43-34.27c-2.21.35-4.42.66-6.63,1L313.6,113c2.21-.35,4.42-.76,6.67-1.15l.11-15.55c1.35-.24,2.7-.47,4.09-.68l8.9,13.62L341,109,329.77,92.26l9.88-19.41-6.86.46-8.33,16.07-4.13.64-.27-15.6Zm31-3.88-6.73.73,1.4,36.78s5.34-.85,5.83-1c2-3.58,14-27.66,14.37-27.8l.42,25.43c2.21-.68,4.46-1.36,6.67-2l-1.19-35.32-6,.63c-1.29,2.39-13.66,27.83-13.72,27.85l-1.07-25.29Z"/></g></g></svg>