<svg xmlns="http://www.w3.org/2000/svg" viewBox="0 0 371.24 170.2"><defs><style>.cls-1{fill:#fff;stroke:#fff;stroke-miterlimit:22.93;stroke-width:0.57px;}</style></defs><title>Ресурс 1</title><g id="Слой_2" data-name="Слой 2"><g id="Слой_1-2" data-name="Слой 1"><path class="cls-1" d="M348.68,100l-7.25,2.41-.52,37.14,6.43-2,16.37-28.56c.14-.08,0,17.13,0,21.31,2.41-.86,4.83-1.74,7.28-2.66l-.12-35.22c-2.19,1-4.35,2-6.46,2.94l-16.31,32.75s.6-24.07.62-28.09Zm1.6-15.56c-1.63,1.22-3.27,2.49-4.9,3.67.63,4.31,4.26,8.62,11,6.64,7.5-2.21,10.36-9.84,11.06-14.89-1.67.26-3.34.49-5,.73-1,4.27-2.09,6.36-6.08,7.73-3.73,1.28-5.06-.63-6.1-3.88Zm-39.43,26.05-7.13,1.45c0,12.39-.88,26.45-.94,38.93,2.12-.53,4.27-1,6.43-1.59.14-.33,17-30.42,17-30.42s-.69,23.13-.69,26.13c2.38-.69,4.79-1.39,7.21-2.06l0-38.14c-2.16.77-4,1.38-6,2.13l-16.41,32.33c-.3.11.54-25.48.54-28.76Zm-37.53,7.94-7,.13L265,160.44c2.42-.41,4.83-.8,7.25-1.23,0-.35.41-17.73.41-17.73,5.09-.92,9.65-1.56,14.74-2.64,0,7.07.09,9.69.09,16.76q3.62-.76,7.25-1.59l1.05-40.25-7.88,1.44c0,6.41-.41,11-.41,17.43-.27.06-14.62,2.36-14.62,2.36,0-6.33.41-16.59.41-16.59Zm-13.24,1c-7.85,1.22-23.31,2.69-23.31,2.69v43c7.8-.92,15.12-1.93,23-3.1,0-2.43,0-4.05,0-6.5l-16.14,2.16c0-4.45,0-7.2.07-11.68l13.61-1.75-.06-6.25L244,139.15c0-4.12,0-7.3,0-11.39l16.23-1.91-.15-6.42Zm-38.93,30,0,17.32,7.22-.38.17-43.84-6.57.55c0,6.88-.16,12.08-.23,18.93-2.12,1.94-4.07,3.13-6.78,3.19-4.52.1-6-1.75-6-6q0-7.66.07-15.33c-2.41.09-4.79.17-7.17.23,0,6.05-.24,12.09-.08,18.14.33,11.94,11.63,13,19.34,7.23Zm-23.79-25.61c-7.84.06-15.65,0-23.45-.11l-.21,45.58,23.06-.42v-6.74l-15.77.09c0-4.6,0-8.11.06-12.72l13.17.05c0-2.39,0-4.67,0-7.12l-13.19-.1c0-4.23.07-7.51.07-11.74,5.39,0,10.82,0,16.24-.12v-6.65Zm-65.07,38.49c1.11,2.53,2.23,5,3.38,7.47,12.74-9,12.63-22.74,13.53-40.86,3.05.26,6.1.4,9.14.57L158,169.32c2.42,0,4.84,0,7.25,0L165.5,123q-11.37-.6-22.71-1.59c-.26,4.66-.44,9.31-.67,13.89-1,20.22-4,22.37-9.83,27Zm-17.13-2.8c-1.93-.17-3.87-.41-5.76-.58,0-5.41.06-9.32.06-14.74,2,.25,4,.55,6.06.78,4.31.49,6.63,3.44,6.28,8.34s-3.37,6.5-6.64,6.2Zm.7-21.58c-1.86-.23-3.68-.51-5.54-.76,0-4.92,0-8.8.08-13.73,1.93.31,3.9.68,5.83,1,3.28.5,5.32,2.52,4.89,7.71-.41,5-2.25,6.18-5.26,5.8Zm2-20.11c-5-.79-9.92-1.76-14.87-2.68l-.89,50c4.79.45,9.66.9,14.53,1.25s11.43-1.19,12.64-10c1.38-10.14-6.71-14.4-6.71-14.83,4-.85,6.76-4.93,6.6-8.93-.37-9.35-4.64-13.74-11.3-14.81Zm-47,30.1c-1.23,2.14-2.49,3.25-3.68,5.43a19.94,19.94,0,0,0,14.6,9.53c3.8.34,13-.56,14.18-11,.71-6.19-1.65-13.84-6.87-15.08,5.57,1.54,13.48-22.79-6.18-27.81a13.2,13.2,0,0,0-14.53,5.72c1.41,2.63,2.82,5.25,4.27,7.78,2.16-2.94,5-5.75,9.15-4.74,3.6.89,5.87,3.8,5.91,8.68.06,7.34-4.33,6.37-10.56,5.8,0,2.72,0,4.21,0,6.94,7.7,1.27,11.54,2.64,11.22,11.12-.12,3.09-2.75,5.32-8,4.46-5.42-.9-7-4.09-9.52-6.85ZM52.51,136.44c-3.42-.9-6.79-1.71-10.21-2.69l5.39-23.25,4.82,25.94Zm-.4-35.38c-2.68-.94-5.35-1.9-8-3l-14.7,55.1,7.47,1.13c1.15-4.94,1.77-7.56,3-12.46,4.61,1.29,9.26,2.51,13.9,3.64,1.12,5.29,1.6,7.4,2.71,12.61.38.06,7.93.6,7.93.6L52.11,101.06ZM15,119.47c-1.63-.64-2.61-1-4.28-1.65,0-7.56.07-15.1.15-22.66l4.58,2.11c2.75,1.21,6.77,3.37,6.73,12.51,0,9.64-4.47,10.75-7.18,9.69Zm3.59-31.15L3.91,81.47,3,147l6.77,1.47L10,126.66c13.2,5.18,17.67,1.62,18.87-13.32,1.22-15.16-4.66-22.32-10.35-25Zm272.1-5.06c0,6.86-1.69,13.47-10,14.47-6.76.81-9.24-3.59-9.84-9.88-.65-6.73,1.7-13.26,9.84-15.21s10,3.8,10,10.62Zm-27.21,6c1.21,14,12.29,15.72,17.2,15,11.64-1.72,17.31-9.72,17.33-23.06s-5.82-17.8-17.29-15-18.38,9.94-17.24,23.06ZM235.28,72.82l-7.82-.07c-.07,12.4,0,24.79-.09,37.19l7.86-.17c0-6.27-.1-11.6-.1-17.85L250,90.86l0,17.13,7.22-.42c.06-11.94-.3-24.81-.3-36.94l-7.11.22s-.25,13.73-.25,14l-14.33.77c0-5.66,0-7.18,0-12.84Zm-34,.07-7.53-.21.33,38.21c2.41,0,4.95,0,7.37,0l-.27-18.13h4l10,17.77s8.29-.11,8.47-.13L212,89.37c4-6.93,6.93-9.61,11-16.58-2.75.15-5.47.19-8.18.23L205.5,87.23l-4.27-.07s0-13.81,0-14.27Zm-21.1,17.59c.09,7-1.66,13.75-9.81,13.28-6.95-.4-10.1-7.8-10.08-15s1.17-14.42,9.38-13.87,10.42,8.61,10.51,15.54Zm-26.83-1.76c-.1,11.16,5.57,21.08,17,21.8s17.19-6.12,17.23-19.59-6.7-21.73-18.18-22.14c-11.16-.4-16,6-16.07,19.93ZM130.75,61.5c-7.8-2-15.65-4.19-23.41-6.62l-.16,45.62c7.77,1.81,15.58,3.37,23.42,4.76,0-2.39,0-4.71,0-7.1-5.43-1-10.82-2.1-16.21-3.31,0-4.47.12-9,.12-13.46,4.38,1,8.77,2,13.19,3,0-2.35,0-4.41,0-6.74-4.42-1.08-8.81-2.12-13.2-3.23,0-4.14,0-6.89,0-11,5.35,1.49,10.78,2.9,16.2,4.18V61.5Zm-3.14-11.41c-2-.6-4-1.17-6-1.8,0,2.61,0,3.65,0,6.22,2,.56,4,1.15,6.09,1.7V50.09Zm-11.42-3.76c-2-.71-4-1.36-6.06-2.06v6.37c2,.67,4,1.31,6.06,2V46.33ZM93.73,74.21c0,7.93-1.74,15.42-9.84,12.71S73.91,75.13,74,66.84s1.79-17.77,10-14.44,9.85,13.93,9.82,21.81ZM66.55,63.71c0,16.3,5.9,27.31,17.3,30.93s17.14-3,17.2-18.16-5.8-26.9-17.14-31.72-17.3,2.67-17.36,19ZM48,73.2c-1.89-.86-3.83-1.86-5.72-2.78,0-5.6,0-11.19.07-16.79,6.85,3.63,12.32,5.2,12.27,14.11,0,7-3.35,7-6.62,5.46Zm-.27-24.46c-1.86-1-3.71-2-5.57-3,0-5.06,0-8.73,0-13.81,2,1.14,3.88,2.37,5.87,3.45,3.25,1.77,5.77,4.73,5.54,10.07-.15,3.32-2.89,4.85-5.87,3.32ZM50,30.09,35.16,21.15c-.08,18.9-.07,36.29-.15,55.18,4.8,2.29,9.59,4.63,14.46,6.76s10.92-.87,12.75-8.71C63.76,67.77,60.1,59,54.59,55.11c0-.59,6,1.26,6.74-5.47,1.05-9.5-4.74-15.79-11.38-19.55ZM.8,8.47l10.81,6.37.45,49.87,7.25,4.07c0-.32.1-49.61.1-49.61L29.23,25V18L.32.52l.48,8Z"/></g></g></svg>