<?xml version="1.0" encoding="utf-8"?>
<!-- Generator: Adobe Illustrator 25.0.1, SVG Export Plug-In . SVG Version: 6.00 Build 0)  -->
<svg version="1.1" id="Слой_1" xmlns="http://www.w3.org/2000/svg" xmlns:xlink="http://www.w3.org/1999/xlink" x="0px" y="0px"
	 viewBox="0 0 522.7 42.1" style="enable-background:new 0 0 522.7 42.1;" xml:space="preserve">
<style type="text/css">
	.st0{fill:#FFFFFF;}
</style>
<g>
	<path class="st0" d="M2,12.9h18.9v4h-7.1v22.3H9.1V17H2V12.9z"/>
	<path class="st0" d="M41.1,19.6c0,2.8-1.5,5.1-4,5.7v0.1c3.5,0.6,4.7,3.6,4.7,6.2c0,6.2-5,7.6-8.2,7.6h-9.3V12.9h9.7
		C38.1,12.9,41.1,14.8,41.1,19.6z M36.2,20.3c0-2.5-1.5-3.5-3.6-3.5h-3.8V24h3.6C34.4,24,36.2,23.1,36.2,20.3z M36.8,31.4
		c0-2.4-1.3-3.8-4-3.8h-3.9v8h3.7C34.6,35.4,36.8,34.8,36.8,31.4z"/>
	<path class="st0" d="M55.9,12.6c7.4,0,11.2,5.3,11.2,13.5s-3.7,13.5-11.2,13.5s-11.2-5.3-11.2-13.5C44.6,17.9,48.4,12.6,55.9,12.6z
		 M55.9,16.5c-5.3,0-6.4,5.3-6.4,9.6s1.2,9.5,6.4,9.5s6.4-5.3,6.4-9.5S61.1,16.5,55.9,16.5z"/>
	<path class="st0" d="M86.3,17H75.8v6.9h8.5v3.9h-8.5v7.4h10.5v4H71.1V12.9h15.2V17z"/>
	<path class="st0" d="M111.6,12.6c7.4,0,11.2,5.3,11.2,13.5s-3.7,13.5-11.2,13.5c-7.4,0-11.2-5.3-11.2-13.5S104.3,12.6,111.6,12.6z
		 M111.6,16.5c-5.3,0-6.4,5.3-6.4,9.6s1.2,9.5,6.4,9.5c5.2,0,6.4-5.3,6.4-9.5C118.1,22,116.9,16.5,111.6,16.5z"/>
	<path class="st0" d="M131.7,23.8h2.9l6.3-10.7h5.3l-7.8,12.6l8,13.8h-5.4L134.6,28h-2.9v11.5H127V12.9h4.7
		C131.7,12.9,131.7,23.8,131.7,23.8z"/>
	<path class="st0" d="M153.5,23.4h9.9V12.9h4.7v26.3h-4.7V27.6h-9.9v11.7h-4.7V12.9h4.7V23.4z"/>
	<path class="st0" d="M183.3,12.6c7.4,0,11.2,5.3,11.2,13.5s-3.7,13.5-11.2,13.5s-11.2-5.3-11.2-13.5
		C172.1,17.9,175.9,12.6,183.3,12.6z M183.3,16.5c-5.3,0-6.4,5.3-6.4,9.6s1.2,9.5,6.4,9.5c5.2,0,6.4-5.3,6.4-9.5
		S188.5,16.5,183.3,16.5z"/>
	<path class="st0" d="M227.1,20.9c0,5.6-3.8,8.5-8.6,8.5h-3.7v9.9h-4.6V12.9h8.9C222.7,12.9,227.1,14.6,227.1,20.9z M222.3,21
		c0-3.7-2.2-4.2-4-4.2h-3.5v8.8h3.3C219.8,25.6,222.3,24.8,222.3,21z"/>
	<path class="st0" d="M250.2,39.3h-5l-2.2-6.6h-9l-2.2,6.6h-4.7l8.9-26.3h5.2L250.2,39.3z M238.6,17.6h-0.2c-0.3,1-0.6,2.3-0.8,3.1
		l-2.4,8.1h6.6l-2.4-8.1C239.2,19.9,238.9,18.7,238.6,17.6z"/>
	<path class="st0" d="M260.3,35.4c3.4,0,4.8-1.5,4.8-4.1c0-2.5-1.6-3.6-4-3.6h-3.2V24h3.1c2.1,0,3.6-1.3,3.6-3.7
		c0-2.3-1.5-3.4-3.8-3.4c-2.7,0-4.6,1.7-5.9,3.3l-2.8-3c1.7-2.1,4.9-4.5,9.3-4.5c5.4,0,8.2,2.8,8.2,6.9c0,3.1-1.9,5.4-4.2,5.9v0.2
		c3.1,0.4,4.7,3,4.7,5.9c0,5-3.5,8.1-9.5,8.1c-3.7,0-7.2-1.7-9-3.9l2.3-3.3C254.9,33.6,256.8,35.4,260.3,35.4z"/>
	<path class="st0" d="M291.1,19.6c0,2.8-1.5,5.1-4,5.7v0.1c3.5,0.6,4.7,3.6,4.7,6.2c0,6.2-5,7.6-8.2,7.6h-9.3V12.9h9.7
		C288,12.9,291.1,14.8,291.1,19.6z M286.1,20.3c0-2.5-1.5-3.5-3.6-3.5h-3.8V24h3.6C284.3,24,286.1,23.1,286.1,20.3z M286.8,31.4
		c0-2.4-1.3-3.8-4-3.8h-3.9v8h3.7C284.6,35.4,286.8,34.8,286.8,31.4z"/>
	<path class="st0" d="M299.8,20.2l0.4-7.2h14.7v26.3h-4.7V17h-5.9l-0.2,4.6c-0.5,9.1-2.2,14.7-8.3,18.3l-2.2-3.7
		C297.3,33.6,299.3,30.6,299.8,20.2z"/>
	<path class="st0" d="M335.3,17h-10.5v6.9h8.5v3.9h-8.5v7.4h10.5v4h-15.2V12.9h15.2V17z"/>
	<path class="st0" d="M344.9,29.9c-4.5,0-6.9-2.9-6.9-7.1v-10h4.7v8.4c0,2.3,0.7,4.5,3.8,4.5c1.7,0,3.2-0.5,4.6-1.5V12.9h4.7v26.3
		H351V28.3C349.5,29.2,347.5,29.9,344.9,29.9z"/>
	<path class="st0" d="M376.1,17h-10.5v6.9h8.5v3.9h-8.5v7.4h10.5v4h-15.2V12.9h15.2V17z"/>
	<path class="st0" d="M384.5,23.4h9.9V12.9h4.7v26.3h-4.7V27.6h-9.9v11.7h-4.7V12.9h4.7V23.4z"/>
	<path class="st0" d="M408.8,28.3c0,1-0.1,2.2-0.2,3.4h0.2c0.3-1,1-2.2,1.3-3l9.2-15.8h4.1v26.3h-4.7V24c0-1,0.1-2.2,0.2-3.4h-0.2
		c-0.3,1-1,2.2-1.3,3l-9.2,15.8h-4.1V12.9h4.7V28.3z"/>
	<path class="st0" d="M433.3,28.3c0,1-0.1,2.2-0.2,3.4h0.2c0.3-1,1-2.2,1.3-3l9.2-15.8h4.1v26.3h-4.7V24c0-1,0.1-2.2,0.2-3.4h-0.2
		c-0.3,1-1,2.2-1.3,3l-9.2,15.8h-4.1V12.9h4.7V28.3z M438.4,7.3c2.3,0,3.3-1.5,3.9-3.4l3.2,0.8c-0.4,2.3-2.4,5.8-7.1,5.8
		c-4.7,0-6.7-3.5-7.1-5.8l3.2-0.8C435.1,5.8,436,7.3,438.4,7.3z"/>
	<path class="st0" d="M475.3,31.1h-10.2v-3.6h10.1v3.6H475.3z"/>
	<path class="st0" d="M499.5,35.4c3.7,0,6.4-3.1,6.6-7.8h-8.6V24h8.6c-0.1-4-2-7.2-5.9-7.2c-2.9,0-4.6,1.7-5.9,3.3l-2.8-3
		c1.6-2.1,4.9-4.5,9.3-4.5c6.4,0,10.4,4.6,10.4,13c0,9.3-4.9,14-11.5,14c-3.7,0-6.9-1.8-8.7-3.9l2.3-3.3
		C494.4,33.9,496.4,35.4,499.5,35.4z"/>
	<path class="st0" d="M511.8,12.9h18.9v4h-7.1v22.3h-4.7V17h-7.1V12.9z"/>
	<path class="st0" d="M542.8,12.6c7.4,0,11.2,5.3,11.2,13.5s-3.7,13.5-11.2,13.5s-11.2-5.3-11.2-13.5S535.5,12.6,542.8,12.6z
		 M542.8,16.5c-5.3,0-6.4,5.3-6.4,9.6s1.2,9.5,6.4,9.5c5.2,0,6.4-5.3,6.4-9.5S548.1,16.5,542.8,16.5z"/>
</g>
</svg>
