<svg xmlns="http://www.w3.org/2000/svg" viewBox="0 0 756.42 48.55"><defs><style>.cls-1{fill:#fff;}</style></defs><g id="Слой_2" data-name="Слой 2"><g id="Layer_1" data-name="Layer 1"><path class="cls-1" d="M5.48,28.58c0,1.06-.13,2.65-.27,4h.27A25.93,25.93,0,0,1,7,29.16L17.8,10.56h4.86V41.48H17.18v-18c0-1.11.14-2.65.27-4h-.22a37.38,37.38,0,0,1-1.55,3.44L4.86,41.48H0V10.56H5.48Z"/><path class="cls-1" d="M40.51,10.16a11.25,11.25,0,0,1,9.54,4.42l-3,3.75c-1.59-1.76-3.31-3.27-6.4-3.27-5.21,0-7.6,5.26-7.6,11.09C33.09,33,35.78,37,40.82,37c3,0,4.9-1.5,6.76-3.53L50.27,37a12.41,12.41,0,0,1-9.8,4.91c-7.87,0-13-4.69-13-15.73C27.48,16.39,32.29,10.16,40.51,10.16Z"/><path class="cls-1" d="M77.13,41.48H71.74V15.28H60.26v26.2H54.87V10.56H77.13Z"/><path class="cls-1" d="M88.71,22.31H93.3c5.35,0,9.37,2.47,9.37,9.41s-5.43,9.76-10.29,9.76H83.23V10.56h5.48Zm8.39,9.5c0-4.2-2.47-5-5-5H88.67V37h3.44C94.72,37,97.1,35.65,97.1,31.81Zm14.8,9.67h-5.48V10.56h5.48Z"/><path class="cls-1" d="M115.66,10.56h22.17v4.72h-8.3v26.2H124V15.28h-8.35Z"/><path class="cls-1" d="M163.37,41.48h-5.83l-2.65-7.69H144.33l-2.56,7.69h-5.52l10.51-30.92h6.05Zm-13.56-25.4h-.27c-.35,1.15-.7,2.69-1,3.58l-2.87,9.41h7.78l-2.83-9.41C150.38,18.77,150.07,17.23,149.81,16.08Z"/><path class="cls-1" d="M172.56,28.58c0,1.06-.13,2.65-.26,4h.26a25.93,25.93,0,0,1,1.5-3.44l10.83-18.6h4.85V41.48h-5.47v-18c0-1.11.13-2.65.26-4h-.22a37.43,37.43,0,0,1-1.54,3.44l-10.83,18.6h-4.86V10.56h5.48ZM178.44,4c2.74,0,3.8-1.73,4.55-4l3.75,1a8.25,8.25,0,0,1-8.3,6.85A8.22,8.22,0,0,1,170.09,1l3.71-1C174.59,2.25,175.65,4,178.44,4Z"/><path class="cls-1" d="M213.07,37.19c2,0,3.1-1.32,3.89-3.31l.44-1.15L206.58,10.56h6.1l6.09,14c.27.75.62,2,.84,2.87h.27a25.27,25.27,0,0,1,.7-2.79l4.73-14H231l-8.61,22.88c-2.16,5.74-4.42,8.44-9.28,8.44a10.26,10.26,0,0,1-2.78-.4l.8-4.59A6.76,6.76,0,0,0,213.07,37.19Z"/><path class="cls-1" d="M236.93,18.55l.49-8h17V36.71h4V48.55h-5V41.48H234.77v7.07h-5V36.71h2.52C235.21,32,236.49,25.84,236.93,18.55Zm5-3.35-.36,4.9c-.53,7.6-1.63,11.75-4,16.65h11.27V15.2Z"/><path class="cls-1" d="M288.17,41.48h-5.83l-2.65-7.69H269.14l-2.57,7.69h-5.52l10.51-30.92h6.06Zm-13.56-25.4h-.26c-.36,1.15-.71,2.69-1,3.58l-2.87,9.41h7.77l-2.83-9.41C275.19,18.77,274.88,17.23,274.61,16.08Z"/><path class="cls-1" d="M296.48,30.52c-5.21,0-8-3.35-8-8.3V10.56h5.44v9.89c0,2.79.92,5.26,4.46,5.26a8.81,8.81,0,0,0,5.34-1.77V10.56h5.48V41.48h-5.48V28.62A14.16,14.16,0,0,1,296.48,30.52Z"/><path class="cls-1" d="M318.93,37.19c1.94,0,3.09-1.32,3.88-3.31l.44-1.15L312.43,10.56h6.1l6.09,14c.27.75.62,2,.84,2.87h.27a25.27,25.27,0,0,1,.7-2.79l4.73-14h5.66L328.2,33.44c-2.16,5.74-4.42,8.44-9.27,8.44a10.34,10.34,0,0,1-2.79-.4l.8-4.59A6.78,6.78,0,0,0,318.93,37.19Z"/><path class="cls-1" d="M373.66,18.33c0,3.18-1.72,6-4.77,6.76v.18c4.15.7,5.52,4.28,5.52,7.2,0,7.24-5.87,9-9.63,9h-11V10.56h11.27C370.08,10.56,373.66,12.77,373.66,18.33Zm-5.74.75c0-3-1.77-4.06-4.24-4.06h-4.46v8.44h4.24C365.71,23.46,367.92,22.53,367.92,19.08Zm.66,13.08c0-2.87-1.5-4.51-4.77-4.51h-4.59V37h4.37C366.06,37,368.58,36.18,368.58,32.16Z"/><path class="cls-1" d="M404.45,10.16c8.66,0,13.08,6.27,13.08,15.86s-4.42,15.86-13.08,15.86S391.33,35.6,391.33,26,395.8,10.16,404.45,10.16Zm0,4.68c-6.18,0-7.51,6.28-7.51,11.18s1.33,11.13,7.51,11.13S412,31,412,26,410.59,14.84,404.45,14.84Z"/><path class="cls-1" d="M427.87,22.93H439.4V10.56h5.48V41.48H439.4V27.79H427.87V41.48h-5.48V10.56h5.48Z"/><path class="cls-1" d="M455.88,19l.44-8.44h17.23V41.48h-5.48V15.28h-6.94l-.31,5.39c-.66,10.65-2.6,17.23-9.76,21.47l-2.56-4.37C452.87,34.81,455.17,31.23,455.88,19Z"/><path class="cls-1" d="M504.38,41.48h-5.83l-2.65-7.69H485.34l-2.56,7.69h-5.52l10.51-30.92h6.06Zm-13.56-25.4h-.26c-.36,1.15-.71,2.69-1,3.58l-2.88,9.41h7.78l-2.83-9.41C491.4,18.77,491.09,17.23,490.82,16.08Z"/><path class="cls-1" d="M513.57,28.58c0,1.06-.13,2.65-.26,4h.26a25.88,25.88,0,0,1,1.51-3.44l10.82-18.6h4.86V41.48h-5.48v-18c0-1.11.13-2.65.27-4h-.22a37.38,37.38,0,0,1-1.55,3.44L513,41.48H508.1V10.56h5.47ZM519.45,4c2.74,0,3.8-1.73,4.55-4l3.75,1a8.24,8.24,0,0,1-8.3,6.85A8.24,8.24,0,0,1,511.1,1l3.71-1C515.61,2.25,516.67,4,519.45,4Z"/><path class="cls-1" d="M542.34,22.93h11.52V10.56h5.48V41.48h-5.48V27.79H542.34V41.48h-5.48V10.56h5.48Z"/><path class="cls-1" d="M577.68,31.81H565.79v-4.2h11.89Z"/><path class="cls-1" d="M589.56,23.19h3.36l7.33-12.63h6.19l-9.15,14.8,9.32,16.12H600.3L592.88,28h-3.32V41.48h-5.48V10.56h5.48Z"/><path class="cls-1" d="M634.75,41.48h-5.83l-2.65-7.69H615.72l-2.57,7.69h-5.52l10.52-30.92h6.05Zm-13.56-25.4h-.26c-.36,1.15-.71,2.69-1,3.58l-2.87,9.41h7.77L622,19.66C621.77,18.77,621.46,17.23,621.19,16.08Z"/><path class="cls-1" d="M646.51,37c3.93,0,5.65-1.76,5.65-4.81s-1.81-4.24-4.77-4.24h-3.75V23.5h3.66a4.05,4.05,0,0,0,4.29-4.42c0-2.69-1.77-4-4.51-4-3.13,0-5.3,2-6.93,3.8l-3.27-3.49a14.23,14.23,0,0,1,11-5.21c6.36,0,9.54,3.22,9.54,8a7,7,0,0,1-5,7v.22c3.58.45,5.52,3.45,5.52,6.94,0,5.83-4.06,9.5-11,9.5-4.42,0-8.49-2-10.61-4.64l2.74-3.8A9.41,9.41,0,0,0,646.51,37Z"/><path class="cls-1" d="M668.2,28.58c0,1.06-.13,2.65-.26,4h.26a25.93,25.93,0,0,1,1.5-3.44l10.82-18.6h4.86V41.48h-5.47v-18c0-1.11.13-2.65.26-4H680a34.88,34.88,0,0,1-1.55,3.44l-10.82,18.6h-4.86V10.56h5.48Z"/><path class="cls-1" d="M697,22.93h11.53V10.56H714V41.48h-5.48V27.79H697V41.48h-5.48V10.56H697Z"/><path class="cls-1" d="M731.9,10.16C740.56,10.16,745,16.43,745,26s-4.42,15.86-13.08,15.86S718.78,35.6,718.78,26,723.25,10.16,731.9,10.16Zm0,4.68c-6.18,0-7.5,6.28-7.5,11.18s1.32,11.13,7.5,11.13S739.41,31,739.41,26,738.05,14.84,731.9,14.84Z"/><path class="cls-1" d="M755.36,32.47h-4.59l-1.1-21.91h6.75Zm.53,9h-5.65v-5h5.65Z"/></g></g></svg>