<svg xmlns="http://www.w3.org/2000/svg" viewBox="0 0 533.06 48.55"><defs><style>.cls-1{fill:#fff;}</style></defs><g id="Слой_2" data-name="Слой 2"><g id="Layer_1" data-name="Layer 1"><path class="cls-1" d="M7.2,18.55l.49-8h17V36.71h4V48.55h-5V41.48H5v7.07H0V36.71H2.52C5.48,32,6.76,25.84,7.2,18.55Zm5-3.35-.36,4.9c-.53,7.6-1.63,11.75-4,16.65H19.13V15.2Z"/><path class="cls-1" d="M50.63,15.28H38.35v8h10V28h-10v8.75H50.63v4.77H32.87V10.56H50.63Z"/><path class="cls-1" d="M60.21,19l.45-8.44H77.88V41.48H72.41V15.28H65.47l-.31,5.39c-.66,10.65-2.6,17.23-9.76,21.47l-2.56-4.37C57.21,34.81,59.51,31.23,60.21,19Z"/><path class="cls-1" d="M108.72,41.48h-5.83l-2.65-7.69H89.68l-2.56,7.69H81.6L92.11,10.56h6ZM95.16,16.08h-.27c-.35,1.15-.7,2.69-1,3.58l-2.87,9.41h7.78L96,19.66C95.73,18.77,95.42,17.23,95.16,16.08Z"/><path class="cls-1" d="M117.91,28.58c0,1.06-.13,2.65-.26,4h.26a25.93,25.93,0,0,1,1.5-3.44l10.83-18.6h4.86V41.48h-5.48v-18c0-1.11.13-2.65.26-4h-.22a37.43,37.43,0,0,1-1.54,3.44l-10.83,18.6h-4.86V10.56h5.48ZM123.79,4c2.74,0,3.8-1.73,4.55-4l3.75,1a8.25,8.25,0,0,1-8.3,6.85A8.22,8.22,0,0,1,115.44,1l3.71-1C119.94,2.25,121,4,123.79,4Z"/><path class="cls-1" d="M166.51,10.16a11.25,11.25,0,0,1,9.54,4.42l-3,3.75c-1.59-1.76-3.31-3.27-6.41-3.27-5.21,0-7.59,5.26-7.59,11.09,0,6.8,2.69,10.82,7.73,10.82,3,0,4.9-1.5,6.76-3.53L176.27,37a12.41,12.41,0,0,1-9.81,4.91c-7.86,0-13-4.68-13-15.73C153.48,16.39,158.29,10.16,166.51,10.16Z"/><path class="cls-1" d="M179.19,10.56h22.17v4.72h-8.3v26.2h-5.52V15.28h-8.35Z"/><path class="cls-1" d="M226.9,41.48h-5.83l-2.65-7.69H207.86l-2.56,7.69h-5.52l10.51-30.92h6.05Zm-13.56-25.4h-.27c-.35,1.15-.71,2.69-1,3.58l-2.87,9.41H217l-2.82-9.41C213.91,18.77,213.6,17.23,213.34,16.08Z"/><path class="cls-1" d="M250.49,18.33c0,3.18-1.72,6-4.77,6.76v.18c4.15.7,5.52,4.28,5.52,7.2,0,7.24-5.87,9-9.63,9h-11V10.56h11.27C246.91,10.56,250.49,12.77,250.49,18.33Zm-5.74.75c0-3-1.77-4.06-4.24-4.06h-4.46v8.44h4.24C242.54,23.46,244.75,22.53,244.75,19.08Zm.66,13.08c0-2.87-1.5-4.51-4.77-4.51h-4.59V37h4.37C242.89,37,245.41,36.18,245.41,32.16Z"/><path class="cls-1" d="M261.36,23.19h3.36l7.33-12.63h6.18l-9.14,14.8,9.32,16.12h-6.32L264.67,28h-3.31V41.48h-5.48V10.56h5.48Z"/><path class="cls-1" d="M286.94,28.58c0,1.06-.13,2.65-.27,4h.27a25.93,25.93,0,0,1,1.5-3.44l10.82-18.6h4.86V41.48h-5.47v-18c0-1.11.13-2.65.26-4h-.22a34.88,34.88,0,0,1-1.55,3.44l-10.82,18.6h-4.86V10.56h5.48Z"/><path class="cls-1" d="M329.26,22.93h11.53V10.56h5.48V41.48h-5.48V27.79H329.26V41.48h-5.48V10.56h5.48Z"/><path class="cls-1" d="M377.11,41.48h-5.84l-2.65-7.69H358.07l-2.57,7.69H350L360.5,10.56h6.05Zm-13.57-25.4h-.26c-.35,1.15-.71,2.69-1,3.58l-2.87,9.41h7.77l-2.83-9.41C364.12,18.77,363.81,17.23,363.54,16.08Z"/><path class="cls-1" d="M406.13,10.16a11.25,11.25,0,0,1,9.54,4.42l-3,3.75c-1.59-1.76-3.31-3.27-6.4-3.27-5.21,0-7.6,5.26-7.6,11.09,0,6.8,2.7,10.82,7.73,10.82,3,0,4.9-1.5,6.76-3.53L415.89,37a12.41,12.41,0,0,1-9.8,4.91c-7.86,0-13-4.68-13-15.73C393.1,16.39,397.92,10.16,406.13,10.16Z"/><path class="cls-1" d="M442.75,41.48h-5.38V15.28H425.88v26.2h-5.39V10.56h22.26Z"/><path class="cls-1" d="M460.69,10.16c8.66,0,13.08,6.27,13.08,15.86s-4.42,15.86-13.08,15.86S447.57,35.6,447.57,26,452,10.16,460.69,10.16Zm0,4.68c-6.18,0-7.51,6.28-7.51,11.18s1.33,11.13,7.51,11.13S468.2,31,468.2,26,466.83,14.84,460.69,14.84Z"/><path class="cls-1" d="M498.46,19.92c0,6.54-4.46,10-10,10h-4.33V41.48h-5.48V10.56h10.43C493.38,10.56,498.46,12.59,498.46,19.92Zm-5.6,0c0-4.33-2.65-4.95-4.73-4.95h-4.07V25.4h3.85C489.94,25.4,492.86,24.52,492.86,20Z"/><path class="cls-1" d="M500.5,10.56h22.17v4.72h-8.3v26.2h-5.52V15.28H500.5Z"/><path class="cls-1" d="M532,32.47h-4.6l-1.1-21.91h6.76Zm.53,9h-5.66v-5h5.66Z"/></g></g></svg>