<svg xmlns="http://www.w3.org/2000/svg" viewBox="0 0 317.95 41.88"><defs><style>.cls-1{fill:#fff;}</style></defs><g id="Слой_2" data-name="Слой 2"><g id="Layer_1" data-name="Layer 1"><path class="cls-1" d="M5.48,28.58c0,1.06-.13,2.65-.27,4h.27A26.7,26.7,0,0,1,7,29.15L17.8,10.56h4.86V41.48H17.18v-18c0-1.11.14-2.65.27-4h-.22a37.38,37.38,0,0,1-1.55,3.44L4.86,41.48H0V10.56H5.48Z"/><path class="cls-1" d="M45.77,15.28H34.24v26.2H28.76V10.56h17Z"/><path class="cls-1" d="M69.36,19.92c0,6.54-4.46,10-10,10H55V41.48H49.52V10.56H60C64.28,10.56,69.36,12.59,69.36,19.92Zm-5.61,0C63.75,15.64,61.1,15,59,15H55V25.4H58.8C60.83,25.4,63.75,24.52,63.75,20Z"/><path class="cls-1" d="M96.48,41.48H90.65L88,33.79H77.44l-2.56,7.69H69.36L79.87,10.56h6ZM82.92,16.08h-.26c-.36,1.15-.71,2.69-1,3.58l-2.87,9.41h7.78l-2.83-9.41C83.5,18.77,83.19,17.23,82.92,16.08Z"/><path class="cls-1" d="M105.67,28.58c0,1.06-.13,2.65-.26,4h.26a25.34,25.34,0,0,1,1.51-3.45L118,10.56h4.86V41.48h-5.48v-18c0-1.11.13-2.65.27-4h-.23a34.92,34.92,0,0,1-1.54,3.44l-10.82,18.6H100.2V10.56h5.47ZM111.55,4c2.74,0,3.8-1.73,4.55-4l3.75,1a8.25,8.25,0,0,1-8.3,6.85A8.24,8.24,0,0,1,103.2,1l3.71-1C107.71,2.25,108.77,4,111.55,4Z"/><path class="cls-1" d="M162.4,18.33c0,3.18-1.73,6-4.77,6.76v.18c4.15.7,5.52,4.28,5.52,7.2,0,7.24-5.88,9-9.63,9h-11V10.56h11.26C158.82,10.56,162.4,12.77,162.4,18.33Zm-5.74.75c0-3-1.77-4.06-4.24-4.06H148v8.44h4.24C154.45,23.46,156.66,22.53,156.66,19.08Zm.66,13.08c0-2.87-1.5-4.51-4.77-4.51H148V37h4.38C154.8,37,157.32,36.18,157.32,32.16Z"/><path class="cls-1" d="M203.62,41.48h-5.39V15.28H186.74v26.2h-5.39V10.56h22.27Z"/><path class="cls-1" d="M221.55,10.16c8.66,0,13.08,6.27,13.08,15.86s-4.42,15.86-13.08,15.86S208.43,35.6,208.43,26,212.9,10.16,221.55,10.16Zm0,4.68c-6.18,0-7.51,6.28-7.51,11.18s1.33,11.13,7.51,11.13S229.06,31,229.06,26,227.69,14.84,221.55,14.84Z"/><path class="cls-1" d="M245,23.19h3.36l7.33-12.63h6.18l-9.14,14.8L262,41.48H255.7L248.28,28H245V41.48h-5.48V10.56H245Z"/><path class="cls-1" d="M282.83,15.28H270.55v8h10V28h-10v8.75h12.28v4.77H265.07V10.56h17.76Z"/><path class="cls-1" d="M307,19.92c0,6.54-4.47,10-10,10h-4.33V41.48h-5.48V10.56h10.43C301.92,10.56,307,12.59,307,19.92Zm-5.61,0c0-4.33-2.65-4.95-4.73-4.95h-4.07V25.4h3.85C298.47,25.4,301.39,24.52,301.39,20Z"/><path class="cls-1" d="M316.89,32.47H312.3l-1.11-21.91H318Zm.53,9h-5.65v-5h5.65Z"/></g></g></svg>