<svg xmlns="http://www.w3.org/2000/svg" viewBox="0 0 522.72 42.14"><defs><style>.cls-1{fill:#fff;}</style></defs><g id="Слой_2" data-name="Слой 2"><g id="Layer_1" data-name="Layer 1"><path class="cls-1" d="M0,10.56H22.18v4.72H13.87v26.2H8.35V15.28H0Z"/><path class="cls-1" d="M45.85,18.33c0,3.18-1.72,6-4.77,6.76v.18c4.16.7,5.53,4.28,5.53,7.2,0,7.24-5.88,9-9.63,9H26V10.56H37.24C42.28,10.56,45.85,12.77,45.85,18.33Zm-5.74.75c0-3-1.76-4.06-4.24-4.06H31.41v8.44h4.24C37.9,23.46,40.11,22.53,40.11,19.08Zm.66,13.08c0-2.87-1.5-4.51-4.77-4.51H31.41V37h4.37C38.26,37,40.77,36.18,40.77,32.16Z"/><path class="cls-1" d="M63.09,10.16c8.65,0,13.07,6.27,13.07,15.86S71.74,41.88,63.09,41.88,50,35.6,50,26,54.43,10.16,63.09,10.16Zm0,4.68c-6.19,0-7.51,6.28-7.51,11.18s1.32,11.13,7.51,11.13S70.6,31,70.6,26,69.23,14.84,63.09,14.84Z"/><path class="cls-1" d="M98.78,15.28H86.5v8h10V28h-10v8.75H98.78v4.77H81V10.56H98.78Z"/><path class="cls-1" d="M128.51,10.16c8.66,0,13.08,6.27,13.08,15.86s-4.42,15.86-13.08,15.86S115.4,35.6,115.4,26,119.86,10.16,128.51,10.16Zm0,4.68c-6.18,0-7.51,6.28-7.51,11.18s1.33,11.13,7.51,11.13S136,31,136,26,134.65,14.84,128.51,14.84Z"/><path class="cls-1" d="M151.93,23.19h3.36l7.33-12.63h6.18l-9.14,14.8L169,41.48h-6.32L155.24,28h-3.31V41.48h-5.48V10.56h5.48Z"/><path class="cls-1" d="M177.51,22.93H189V10.56h5.48V41.48H189V27.79H177.51V41.48H172V10.56h5.48Z"/><path class="cls-1" d="M212.45,10.16c8.66,0,13.08,6.27,13.08,15.86s-4.42,15.86-13.08,15.86S199.33,35.6,199.33,26,203.8,10.16,212.45,10.16Zm0,4.68c-6.18,0-7.51,6.28-7.51,11.18s1.33,11.13,7.51,11.13S220,31,220,26,218.59,14.84,212.45,14.84Z"/><path class="cls-1" d="M263.79,19.92c0,6.54-4.46,10-10,10h-4.33V41.48H244V10.56h10.43C258.71,10.56,263.79,12.59,263.79,19.92Zm-5.61,0c0-4.33-2.65-4.95-4.73-4.95h-4.06V25.4h3.84C255.26,25.4,258.18,24.52,258.18,20Z"/><path class="cls-1" d="M290.91,41.48h-5.83l-2.65-7.69H271.88l-2.57,7.69h-5.52L274.3,10.56h6.06Zm-13.56-25.4h-.26c-.36,1.15-.71,2.69-1,3.58l-2.88,9.41H281l-2.83-9.41C277.93,18.77,277.62,17.23,277.35,16.08Z"/><path class="cls-1" d="M302.67,37c3.93,0,5.65-1.76,5.65-4.81s-1.81-4.24-4.77-4.24H299.8V23.5h3.66a4.05,4.05,0,0,0,4.29-4.42c0-2.69-1.77-4-4.51-4-3.13,0-5.3,2-6.93,3.8L293,15.37a14.22,14.22,0,0,1,11-5.21c6.36,0,9.54,3.22,9.54,8a7,7,0,0,1-5,7v.22c3.58.45,5.52,3.45,5.52,6.94,0,5.83-4.07,9.5-11.05,9.5-4.41,0-8.48-2-10.6-4.64l2.74-3.8A9.41,9.41,0,0,0,302.67,37Z"/><path class="cls-1" d="M338.76,18.33c0,3.18-1.72,6-4.77,6.76v.18c4.15.7,5.52,4.28,5.52,7.2,0,7.24-5.87,9-9.63,9h-11V10.56h11.27C335.18,10.56,338.76,12.77,338.76,18.33Zm-5.74.75c0-3-1.77-4.06-4.24-4.06h-4.47v8.44h4.25C330.81,23.46,333,22.53,333,19.08Zm.66,13.08c0-2.87-1.5-4.51-4.77-4.51h-4.6V37h4.38C331.16,37,333.68,36.18,333.68,32.16Z"/><path class="cls-1" d="M349.05,19l.45-8.44h17.22V41.48h-5.47V15.28h-6.94L354,20.67c-.66,10.65-2.6,17.23-9.76,21.47l-2.56-4.37C346.05,34.81,348.35,31.23,349.05,19Z"/><path class="cls-1" d="M390.58,15.28H378.3v8h10V28h-10v8.75h12.28v4.77H372.82V10.56h17.76Z"/><path class="cls-1" d="M401.85,30.52c-5.21,0-8-3.35-8-8.3V10.56h5.43v9.89c0,2.79.93,5.26,4.46,5.26a8.81,8.81,0,0,0,5.35-1.77V10.56h5.48V41.48h-5.48V28.62A14.19,14.19,0,0,1,401.85,30.52Z"/><path class="cls-1" d="M438.38,15.28H426.1v8h10V28h-10v8.75h12.28v4.77H420.62V10.56h17.76Z"/><path class="cls-1" d="M448.19,22.93h11.53V10.56h5.48V41.48h-5.48V27.79H448.19V41.48h-5.48V10.56h5.48Z"/><path class="cls-1" d="M476.77,28.58c0,1.06-.13,2.65-.26,4h.26a25.88,25.88,0,0,1,1.51-3.44l10.82-18.6H494V41.48h-5.48v-18c0-1.11.13-2.65.27-4h-.22A37.38,37.38,0,0,1,487,22.88l-10.82,18.6H471.3V10.56h5.47Z"/><path class="cls-1" d="M505.54,28.58c0,1.06-.14,2.65-.27,4h.27a24.68,24.68,0,0,1,1.5-3.44l10.82-18.6h4.86V41.48h-5.48v-18c0-1.11.13-2.65.27-4h-.22a37.38,37.38,0,0,1-1.55,3.44l-10.82,18.6h-4.86V10.56h5.48ZM511.41,4c2.74,0,3.8-1.73,4.55-4l3.76,1a8.26,8.26,0,0,1-8.31,6.85A8.24,8.24,0,0,1,503.06,1l3.71-1C507.57,2.25,508.63,4,511.41,4Z"/></g></g></svg>