<svg xmlns="http://www.w3.org/2000/svg" viewBox="0 0 49 53.95"><defs><style>.cls-1{fill:#ffffff;fill-rule:evenodd;}</style></defs><g id="Слой_2" data-name="Слой 2"><g id="Слой_1-2" data-name="Слой 1"><path class="cls-1" d="M39.44,28.85c-3.21-8.7-6.35-17.6-9.52-26.7Q24.46,1.15,19,0c-3.18,8.28-6.4,16.68-9.52,25.23S3.15,42.68,0,51.63c3.31.35,6.64.7,10,1q2.31-6.52,4.64-13c6.35.66,12.7,1.22,19.07,1.61q2.4,6.45,4.79,12.74c3.51,0,7-.05,10.54-.13C45.81,45.68,42.58,37.38,39.44,28.85ZM17.07,31.67q2.59-7.77,5.19-15.43c.49-1.44,1.13-4,1.75-5.82l.49.08c.47,2,1,4.75,1.51,6.32q2.53,8.26,5.11,16.36C26.43,32.76,21.75,32.24,17.07,31.67Z"/></g></g></svg>
