<svg xmlns="http://www.w3.org/2000/svg" viewBox="0 0 37.68 68.45"><defs><style>.cls-1{fill:#ffffff;fill-rule:evenodd;}</style></defs><g id="Слой_2" data-name="Слой 2"><g id="Слой_1-2" data-name="Слой 1"><path class="cls-1" d="M27.59,39.22v-.33c5.57.49,8.72-3.75,8.72-9.68,0-10.39-6.54-16.85-15.74-20.39Q10.28,4.56,0,0V60.14q10.05,3.72,20.09,7.2c3.43,1.1,7.83,1.69,11.34.26S37.68,62.77,37.68,56A18.79,18.79,0,0,0,27.59,39.22ZM9.9,21.08V13l8.17,3.32C22.59,18,25.8,21.17,25.8,26.91c0,6.51-4,6.81-8.14,5.28l-7.76-3Zm8,36.93-8-2.85V37.25l8.4,3.16C24.26,42.54,27,46.59,27,52,27,59.58,22.43,59.56,17.91,58Z"/></g></g></svg>
