<svg xmlns="http://www.w3.org/2000/svg" viewBox="0 0 40.93 93.48"><defs><style>.cls-1{fill:#ffffff;fill-rule:evenodd;}</style></defs><g id="Слой_2" data-name="Слой 2"><g id="Слой_1-2" data-name="Слой 1"><path class="cls-1" d="M0,0V75.84c2.91,1.42,5.84,2.87,8.77,4.27,3.24-5.9,6.51-11.71,9.76-17.47s6.53-11.32,9.79-16.88a57.06,57.06,0,0,0,2.8-6.54l.39.2c-.24,3-.48,6.44-.48,9V89.73c3.28,1.3,6.59,2.53,9.9,3.75V24.12C38,22.57,35.07,21,32.16,19.43,28.9,24.8,25.6,30.16,22.37,35.66s-6.52,11.13-9.76,16.82a44.7,44.7,0,0,0-2.73,6.84,2.61,2.61,0,0,0-.47-.24c.24-3.18.47-6.89.47-9.42V6.36"/></g></g></svg>
