<svg xmlns="http://www.w3.org/2000/svg" viewBox="0 0 40.95 62.54"><defs><style>.cls-1{fill:#ffffff;fill-rule:evenodd;}</style></defs><g id="Слой_2" data-name="Слой 2"><g id="Слой_1-2" data-name="Слой 1"><path class="cls-1" d="M12.12,0C9.88.21,7.63.45,5.42.66,6.3,5,10.7,11.5,20.51,12.08c9.74.2,14.05-5.38,15-9.21-2.26-.5-4.53-1-6.79-1.6-1.36,3.14-3.26,5.5-8.21,5.25s-7-3-8.39-6.51Z"/><path class="cls-1" d="M9.9,15.53C6.59,15.32,3.28,15,0,14.75V62.54c2.91-.19,5.84-.37,8.77-.61,3.24-4.88,6.51-9.73,9.76-14.49s6.53-9.35,9.79-14a48.44,48.44,0,0,0,2.8-5l.4,0a49.15,49.15,0,0,0-.47,5.64V59.23c3.28-.54,6.59-1.14,9.9-1.77V15.84c-2.93.12-5.86.22-8.79.27-3.26,4.38-6.57,8.82-9.79,13.33s-6.52,9.19-9.76,13.88A35.68,35.68,0,0,0,9.9,48.55a2.71,2.71,0,0,1-.49,0,60.47,60.47,0,0,0,.49-6v-27Z"/></g></g></svg>
