<svg xmlns="http://www.w3.org/2000/svg" viewBox="0 0 41.14 53.18"><defs><style>.cls-1{fill:#ffffff;fill-rule:evenodd;}</style></defs><g id="Слой_2" data-name="Слой 2"><g id="Слой_1-2" data-name="Слой 1"><path class="cls-1" d="M24.13,25.69c2.75-4.26,5.58-8.51,8.33-12.77S38,4.31,40.82,0C37,.2,33.29.39,29.54.49,27.3,4.13,25,7.77,22.81,11.37s-4.45,7.18-6.66,10.76q-3.07,0-6.15,0V.7C6.67.65,3.33.61,0,.49V53.12c3.33.06,6.67.06,10,.06V30.31c2,0,4,0,6.05,0Q19.43,36,22.81,41.61c2.24,3.73,4.52,7.45,6.8,11.16,3.84-.14,7.69-.37,11.53-.59-2.85-4.37-5.71-8.74-8.52-13.14S27,30.15,24.13,25.69Z"/></g></g></svg>
