<svg xmlns="http://www.w3.org/2000/svg" viewBox="0 0 47.84 54.92"><defs><style>.cls-1{fill:#ffffff;fill-rule:evenodd;}</style></defs><g id="Слой_2" data-name="Слой 2"><g id="Слой_1-2" data-name="Слой 1"><path class="cls-1" d="M24,.18C16.05-.65,10,1.37,6,5.65S0,16.59,0,25,2,40.47,6,45.73s10,8.49,18,9.12S37.85,53,41.82,48.46s6-11.26,6-19.44-2.06-15-6-20S31.85.88,24,.18ZM37.68,28.51h0c0,4.24-.64,9-2.66,12.57s-5.44,6-11.05,5.64a12.91,12.91,0,0,1-11.12-7.39c-2-3.94-2.6-8.83-2.6-13.12s.61-9,2.6-12.61S18.3,7.71,24,8.26A13.07,13.07,0,0,1,35,15.6c2,3.88,2.66,8.7,2.66,12.9h0Z"/></g></g></svg>
