<svg xmlns="http://www.w3.org/2000/svg" viewBox="0 0 32.5 51.67"><defs><style>.cls-1{fill:#fff;fill-rule:evenodd;}</style></defs><g id="Слой_2" data-name="Слой 2"><g id="Layer_1" data-name="Layer 1"><path class="cls-1" d="M15.19,24.38c-2.13.14-4.22.26-6.31.38v-17c2.23-.11,4.46-.22,6.68-.35,3.4-.22,7.72.51,7.72,7.54,0,7.41-4.77,9.19-8.09,9.42ZM17.07,0Q8.54.51,0,.81V51.67c3-.18,6-.39,9-.6V32.13c2.36-.15,4.73-.29,7.09-.45a18.08,18.08,0,0,0,11.63-5A17.35,17.35,0,0,0,32.5,14.15c0-6-2.13-9.58-5.07-11.66S20.6-.18,17.07,0Z"/></g></g></svg>