<svg xmlns="http://www.w3.org/2000/svg" viewBox="0 0 58.05 58.05"><defs><style>.cls-1{fill:#e84e0f;}.cls-2{fill:#fff;}</style></defs><g id="Слой_2" data-name="Слой 2"><g id="Main_Product_Icons" data-name="Main Product Icons"><g id="Sport"><circle class="cls-1" cx="29.03" cy="29.03" r="29.03"/><path class="cls-2" d="M29.29,53.16a24,24,0,1,1,24-24A24,24,0,0,1,29.29,53.16Zm0-46a22,22,0,1,0,22,22A22,22,0,0,0,29.29,7.16Z"/><path class="cls-2" d="M36.29,44.16h-14a1,1,0,1,1,0-2h14a1,1,0,0,1,0,2Z"/><path class="cls-2" d="M40.29,39.16h-22a5,5,0,0,1-5-5v-12a5,5,0,0,1,5-5h22a5,5,0,0,1,5,5v12A5,5,0,0,1,40.29,39.16Zm-22-20a3,3,0,0,0-3,3v12a3,3,0,0,0,3,3h22a3,3,0,0,0,3-3v-12a3,3,0,0,0-3-3Z"/><path class="cls-2" d="M29.29,27.16a1,1,0,0,1-1-1v-2a1,1,0,0,1,2,0v2A1,1,0,0,1,29.29,27.16Z"/><path class="cls-2" d="M29.29,33.16a1,1,0,0,1-1-1v-2a1,1,0,0,1,2,0v2A1,1,0,0,1,29.29,33.16Z"/><path class="cls-2" d="M24.29,34.16h-6a1,1,0,0,1-.71-1.7l4.59-4.59a2.88,2.88,0,0,0,1.12-2.71,1,1,0,0,0-1-1h-2a1,1,0,0,0-1,1,1,1,0,1,1-2,0,3,3,0,0,1,3-3h2a3,3,0,0,1,3,3,4.79,4.79,0,0,1-1.71,4.13L20.7,32.16h3.59a1,1,0,0,1,0,2Z"/><path class="cls-2" d="M38.25,34.16H36.33a3,3,0,0,1-3-3V25.2a3,3,0,0,1,3-3h1.92a3,3,0,0,1,3,3v5.92A3,3,0,0,1,38.25,34.16Zm-1.92-10a1,1,0,0,0-1,1v5.92a1,1,0,0,0,1,1h1.92a1,1,0,0,0,1-1V25.2a1,1,0,0,0-1-1Z"/></g></g></g></svg>