<svg xmlns="http://www.w3.org/2000/svg" viewBox="0 0 342.83 90.63"><defs><style>.cls-1{fill:#fff;fill-rule:evenodd;}</style></defs><g id="Слой_2" data-name="Слой 2"><g id="Layer_1" data-name="Layer 1"><path class="cls-1" d="M341.94,70.39l-9.26,1.44V80l9.26-1.4V70.39Zm.89-42.61L331.76,29.7c.27,5.92.58,11.82.86,17.74s.61,11.8.92,17.7L341.08,64c.28-6,.59-12.05.86-18.07s.58-12.06.89-18.1ZM289.49,42.7c4.56-.45,9.12-.9,13.68-1.41V83.76q4.51-.51,9.05-1.06V40.22c4.52-.61,9-1.22,13.57-1.91V30.62q-18.15,2.6-36.3,4.41V42.7Zm-20.64,18c-2.13.14-4.22.26-6.31.38v-17c2.23-.11,4.46-.22,6.69-.35,3.39-.22,7.71.51,7.71,7.54,0,7.41-4.77,9.19-8.09,9.42Zm1.88-24.34c-5.69.31-11.38.58-17.07.77V88c3-.18,6-.39,9-.6V68.48l7.1-.45a18.06,18.06,0,0,0,11.62-5,17.31,17.31,0,0,0,4.83-12.51c0-6-2.12-9.58-5.07-11.66s-6.82-2.67-10.36-2.45ZM236.55,63.22c0,4.12-.61,8.78-2.4,12.44a10.79,10.79,0,0,1-9.87,6.53,10.11,10.11,0,0,1-10-6c-1.78-3.66-2.33-8.4-2.33-12.62s.56-8.92,2.33-12.59a11,11,0,0,1,19.85,0c1.78,3.6,2.4,8.23,2.4,12.31Zm-33.76.26c0,8.25,1.81,15.07,5.41,19.74s9,7.16,16.08,6.92,12.4-3.14,16-7.9,5.41-11.38,5.41-19.31-1.85-14.43-5.41-19-8.92-7.15-16-7.19-12.49,2.4-16.08,7-5.41,11.43-5.41,19.68Zm-7.89-27q-18.26-1.06-36.48-2.71V90.3c2.92,0,5.86,0,8.81,0V43.1q9.42.67,18.82,1.2v46l8.85-.1V36.5ZM113.55,58.89c0,10.9,2.06,18.81,5.79,24s9,7.56,15.46,7.73a19.19,19.19,0,0,0,16.08-8.74c-1.47-2.23-2.95-4.47-4.42-6.73-3,3.67-6.21,6.38-11.08,6.19A11,11,0,0,1,126,75.4c-2.13-3.71-3.23-9-3.23-15.64,0-5.67,1-10.94,3-14.66s5.14-5.86,9.43-5.37c5.07.57,7.88,3.67,10.49,7.21,1.61-2.17,3.22-4.35,4.83-6.51-3.15-4.84-7.64-9.06-15.63-10-6.72-.88-12.08,1.37-15.7,6.29s-5.62,12.58-5.62,22.22Zm-47-20.08c.75,3.53,1.54,7.07,2.3,10.58s1.54,7,2.33,10.48Q64.77,59,58.38,58c.76-3.34,1.58-6.66,2.34-10s1.57-6.59,2.36-9.87c.45-1.84,1-5.09,1.61-7.48.14,0,.28.05.41.09.45,2.58,1,6,1.41,8Zm3.53-19c-3.33-.74-6.62-1.5-9.91-2.29-2.88,10.71-5.81,21.56-8.64,32.54s-5.76,22.35-8.6,33.75l9,1q2.1-8.35,4.22-16.64,8.64,1.13,17.27,2.13c1.44,5.64,2.88,11.22,4.36,16.76l9.56.68Q83,71.31,78.68,54.43q-4.35-17-8.64-34.58ZM9,3,0,0V78.08l9,1.38V45.6c6.27,1.4,12.58,2.78,18.89,4.06v32.4c3,.38,6,.73,9,1.09V11.51c-3-.84-6-1.7-9-2.59V38.17c-6.31-1.44-12.62-3-18.89-4.58V3Z"/></g></g></svg>