<svg xmlns="http://www.w3.org/2000/svg" viewBox="0 0 58.05 58.05"><defs><style>.cls-1{fill:#e84e0f;}.cls-2{fill:#fff;}</style></defs><g id="Слой_2" data-name="Слой 2"><g id="Main_Product_Icons" data-name="Main Product Icons"><g id="Poker"><circle class="cls-1" cx="29.03" cy="29.03" r="29.03"/><path class="cls-2" d="M29,37.44l-5.71-5.71A4.3,4.3,0,0,1,22,29a4,4,0,0,1,4-4,5,5,0,0,1,3,1.15A5,5,0,0,1,32,25a4,4,0,0,1,4,4,4.36,4.36,0,0,1-1.3,2.71ZM26,27a2,2,0,0,0-2,2,2.38,2.38,0,0,0,.7,1.28l4.3,4.3,4.29-4.29A2.44,2.44,0,0,0,34,29a2,2,0,0,0-2-2,3.65,3.65,0,0,0-2.26,1.16L29,29l-.75-.84A3.66,3.66,0,0,0,26,27Z"/><path class="cls-2" d="M29,53A24,24,0,0,1,29,5a25,25,0,0,1,7.31,1A1,1,0,0,1,37,7.34,1,1,0,0,1,35.71,8,23.64,23.64,0,0,0,29,7,22,22,0,1,0,51,29a21.56,21.56,0,0,0-2.88-10.52,1,1,0,0,1,1.75-1A23.61,23.61,0,0,1,53,29,24,24,0,0,1,29,53Z"/><path class="cls-2" d="M35,46H23a5,5,0,0,1-5-5V21a5,5,0,0,1,5-5H35a5,5,0,0,1,5,5V41A5,5,0,0,1,35,46ZM23,18a3,3,0,0,0-3,3V41a3,3,0,0,0,3,3H35a3,3,0,0,0,3-3V21a3,3,0,0,0-3-3Z"/><path class="cls-2" d="M41,40V38a3,3,0,0,0,3-3V15a3,3,0,0,0-3-3H29a3,3,0,0,0-3,3H24a5,5,0,0,1,5-5H41a5,5,0,0,1,5,5V35A5,5,0,0,1,41,40Z"/></g></g></g></svg>