<svg xmlns="http://www.w3.org/2000/svg" viewBox="0 0 221.94 115.41"><defs><style>.cls-1{fill:#fff;fill-rule:evenodd;}</style></defs><g id="Слой_2" data-name="Слой 2"><g id="Layer_1" data-name="Layer 1"><path class="cls-1" d="M9.88,6.36C6.57,4.3,3.28,2.15,0,0V75.84c2.91,1.42,5.84,2.87,8.77,4.27,3.24-5.9,6.51-11.71,9.76-17.47s6.53-11.32,9.79-16.88a57.06,57.06,0,0,0,2.8-6.54l.39.2c-.24,3-.48,6.44-.48,9V89.73c3.28,1.3,6.59,2.53,9.9,3.75V24.12C38,22.57,35.07,21,32.16,19.43,28.9,24.8,25.6,30.16,22.37,35.66s-6.52,11.13-9.76,16.82a44.7,44.7,0,0,0-2.73,6.84,2.61,2.61,0,0,0-.47-.24c.24-3.18.47-6.89.47-9.42V6.36ZM82.67,43c-10.25-4.14-20.51-8.56-30.74-13.34V97.22c3.29,1.07,6.59,2.06,9.9,3.07v-56q10.42,4.32,20.84,8.23V43Zm25.61,9q-9.42-3-18.84-6.41v61.73q4.94,1,9.9,1.94V86.65c2.6.64,5.21,1.24,7.83,1.82,10.06,2.11,18.11-2.67,18.11-14.55,0-13.33-9.19-19.62-17-22Zm-2.06,27.73c-2.33-.56-4.64-1.17-7-1.79V57.65c2.44.78,4.88,1.54,7.35,2.26,3.75,1.1,8.52,3.59,8.52,11.67,0,8.51-5.26,9-8.92,8.07Zm49-16q-5.46-1-10.92-2.15c-3.17,8.29-6.39,16.69-9.52,25.23s-6.33,17.46-9.48,26.4c3.31.36,6.64.71,10,1q2.3-6.54,4.64-13,9.51,1,19.06,1.62,2.4,6.43,4.79,12.73c3.51,0,7,0,10.55-.13-3.2-8.14-6.43-16.44-9.57-25-3.2-8.7-6.35-17.6-9.52-26.7Zm-3.91,14.67q2.53,8.27,5.11,16.37c-4.68-.43-9.37-1-14.05-1.51q2.6-7.78,5.19-15.44c.49-1.44,1.13-4,1.76-5.82l.48.09c.47,2,1.05,4.74,1.51,6.31Zm41.82-25.8c-2.24.21-4.49.45-6.71.66.89,4.34,5.29,10.84,15.1,11.42,9.74.2,14-5.39,15-9.22-2.27-.49-4.53-1-6.79-1.59-1.36,3.14-3.26,5.5-8.21,5.24s-6.95-3-8.39-6.5ZM190.89,68c-3.31-.21-6.62-.5-9.9-.78V115c2.91-.18,5.84-.36,8.77-.6,3.24-4.88,6.51-9.74,9.76-14.49s6.53-9.36,9.79-14a49.51,49.51,0,0,0,2.79-5l.4,0a51.13,51.13,0,0,0-.46,5.64v25.13c3.28-.54,6.59-1.15,9.9-1.77V68.32c-2.93.11-5.86.21-8.79.27-3.26,4.38-6.57,8.82-9.79,13.32s-6.52,9.19-9.77,13.88a37.24,37.24,0,0,0-2.7,5.23,2.79,2.79,0,0,1-.49,0c.24-2.05.49-4.46.49-6V68Z"/></g></g></svg>