<svg xmlns="http://www.w3.org/2000/svg" viewBox="0 0 310.12 138.83"><defs><style>.cls-1{fill:#fff;fill-rule:evenodd;}</style></defs><g id="Слой_2" data-name="Слой 2"><g id="Layer_1" data-name="Layer 1"><path class="cls-1" d="M5,3.25,0,0V49.17l4.47,2.17c1.64-4,3.31-8,5-11.92s3.32-7.79,5-11.62c.4-1.05,1.05-3,1.43-4.42.06,0,.12.07.21.11-.12,2-.24,4.27-.24,5.93V56.66c1.67.75,3.35,1.5,5,2.21v-46c-1.49-.84-3-1.73-4.47-2.63-1.67,3.7-3.35,7.44-5,11.25s-3.32,7.68-5,11.57A41.86,41.86,0,0,0,5,37.72c-.09,0-.18-.1-.24-.12.12-2.08.24-4.51.24-6.17V3.25Zm20.25,35c0,8.09,1.17,14.39,3.26,19s5.09,7.36,8.72,8.77,7.07-.31,9-3.48c-.84-1.93-1.67-3.88-2.48-5.83-1.71,2.15-3.51,3.58-6.23,2.51-4.63-1.87-7.11-8.68-7.11-18.5,0-8.4,2.21-14.87,7-12.45,2.82,1.38,4.44,4.22,5.89,7.34.9-1.31,1.8-2.62,2.73-3.9-1.8-4.21-4.31-8.2-8.8-10.45-3.79-2-6.79-1.32-8.84,1.63s-3.17,8.19-3.17,15.35ZM71,37c-6.86-2.74-13.68-5.6-20.5-8.67V70.21l5,1.62v-35c3.5,1.48,7,2.89,10.58,4.31v33.9c1.64.48,3.28.92,5,1.38V37Zm10.63,3.92c-1.67-.56-3.34-1.17-5-1.78V78L85,80c4.47,1,9.49-1.11,9.49-9.56,0-8.29-3.72-12.28-8.62-13.69-1.42-.42-2.85-.87-4.25-1.3V40.89ZM103,47.64,98,46.2V82.84l5,1V47.64ZM84.79,74.42l-3.17-.82V61l3.17.93c2.32.69,4.62,2.25,4.62,7.33,0,4.68-2.2,5.77-4.62,5.15Zm21.67-20.31L114.15,56v29.8c1.68.28,3.39.53,5.09.79V57.12q3.81.83,7.66,1.62V53.52q-10.23-2.28-20.44-4.89v5.48Zm34.21,2-5.55-1q-2.42,7.92-4.84,16c-1.62,5.39-3.22,10.84-4.84,16.32l5.09.64c.77-2.71,1.55-5.4,2.36-8.09,3.22.46,6.45.84,9.7,1.23.81,2.83,1.62,5.64,2.45,8.45,1.77.16,3.57.31,5.37.45-1.65-5.55-3.3-11.15-4.9-16.78s-3.23-11.45-4.84-17.23Zm-2,9.44c.86,3.51,1.73,7,2.6,10.47-2.39-.33-4.78-.63-7.16-1q1.31-4.91,2.66-9.77c.22-.93.56-2.55.87-3.73l.25,0c.25,1.27.53,3,.78,4ZM160,48.09l-3.44.52c.46,3,2.7,7.46,7.69,8.09s7.16-3.37,7.66-6.12c-1.18-.46-2.33-.92-3.47-1.39-.69,2.22-1.65,3.86-4.19,3.58s-3.54-2.25-4.25-4.68Zm-1.15,10.74c-1.7-.2-3.38-.4-5.05-.64V90.43c1.49.12,3,.21,4.46.31,1.65-3.08,3.32-6.16,5-9.21s3.35-6.07,5-9.11c.4-.82,1.06-2.34,1.43-3.39l.18,0c-.12,1.38-.24,2.93-.24,4V91.37l5.05.23V60.52l-4.47-.44c-1.67,3-3.37,6-5,9s-3.32,6-5,9.07a28.4,28.4,0,0,0-1.37,3.43h-.24c.12-1.4.24-3,.24-4.14V58.83Zm35.48,28.51c-.25,1.51-.49,3-.74,4.51a8.42,8.42,0,0,0,2.57.34c4.47-.09,6.54-2.74,8.53-8.36,1.3-3.72,2.64-7.45,3.94-11.14s2.67-7.4,4-11.08l-5.21.08c-.75,2.27-1.49,4.54-2.2,6.82s-1.43,4.55-2.14,6.83a21.75,21.75,0,0,0-.65,2.7h-.25c-.22-.86-.53-2.06-.78-2.79-1-2.24-1.89-4.52-2.82-6.77l-2.79-6.84c-1.89,0-3.75-.09-5.61-.18,1.64,3.7,3.31,7.38,5,11s3.32,7.19,5,10.76c-.15.38-.28.75-.4,1.12-.75,1.94-1.8,3.25-3.57,3.27a5.67,5.67,0,0,1-1.83-.28Zm19.48-.74c-.78.06-1.55.1-2.33.12V98.07c1.55-.08,3.1-.19,4.65-.31V91c5.71-.4,11.42-.92,17.12-1.48v6.67c1.52-.18,3.07-.38,4.62-.58V84.48l-3.69.44V60.21c-5.21.46-10.42.87-15.63,1.15-.15,2.54-.31,5.09-.43,7.64a60.55,60.55,0,0,1-1.3,9.69,28,28,0,0,1-3,7.91Zm15.29-21.53v20.4c-3.48.33-6.92.63-10.36.86a38.45,38.45,0,0,0,2.45-7.12,55.28,55.28,0,0,0,1.24-9c.09-1.55.18-3.13.31-4.69l6.36-.49Zm26.48-7.82c-1.86.34-3.72.67-5.58.94q-2.42,7.62-4.84,15.27t-4.84,15.21c1.68-.19,3.38-.44,5.09-.7.77-2.53,1.55-5,2.36-7.59,3.22-.48,6.48-1,9.73-1.63l2.42,6.81c1.77-.32,3.57-.69,5.37-1.06-1.65-4.51-3.26-9-4.87-13.57L255.6,57.25Zm-2,8.93,2.6,8.38q-3.59.64-7.16,1.19c.87-3.08,1.73-6.16,2.63-9.24.25-.87.56-2.38.9-3.52.06,0,.16,0,.25-.05.25,1,.53,2.45.78,3.24Zm26,2.9V81.25c1.68-.4,3.35-.87,5-1.32V50.52c-1.68.5-3.35,1-5,1.42V64.63a10.47,10.47,0,0,1-4.93,2.9c-3.25.81-4.09-1.34-4.09-4V54.21c-1.68.37-3.35.74-5,1.09v11c0,4.66,2.61,7.29,7.42,6.21a16.45,16.45,0,0,0,6.63-3.42Zm12.19,4.48c-.25,1.55-.5,3.09-.71,4.62a8.31,8.31,0,0,0,2.54-.4c4.5-1.37,6.54-4.6,8.56-10.83,1.3-4.14,2.64-8.3,3.94-12.46s2.67-8.4,4-12.6c-1.74.63-3.47,1.29-5.21,1.94-.75,2.54-1.49,5.09-2.2,7.61s-1.46,5.06-2.17,7.56c-.25.9-.47,2-.65,2.9l-.25.08a21.36,21.36,0,0,0-.78-2.51c-1-1.93-1.89-3.87-2.82-5.79l-2.79-5.78c-1.89.63-3.75,1.2-5.61,1.74,1.64,3.06,3.32,6.1,5,9.09s3.35,6,5,9c-.15.42-.28.82-.4,1.24-.75,2.14-1.8,3.73-3.6,4.3a6.47,6.47,0,0,1-1.83.26Z"/><path class="cls-1" d="M9.76,75.54,0,72.06v63.79l9.55,2.81c3.26.91,8.36-1.3,8.36-16,0-5.91-1.19-13.53-4.79-16.05v-.35c2.62-.74,4.13-6,4.13-12.46,0-11.28-3.12-16.8-7.49-18.28Z"/></g></g></svg>