<svg xmlns="http://www.w3.org/2000/svg" viewBox="0 0 349.87 84.33"><defs><style>.cls-1{fill:#fff;fill-rule:evenodd;}</style></defs><g id="Слой_2" data-name="Слой 2"><g id="Layer_1" data-name="Layer 1"><path class="cls-1" d="M9.76,3.49,0,0V63.79L9.55,66.6c3.26.91,8.36-1.3,8.36-16,0-5.92-1.19-13.53-4.79-16.05v-.36c2.62-.74,4.13-6,4.13-12.45,0-11.29-3.12-16.8-7.49-18.28ZM8.4,29.39,4.69,28.16V10.84c1.29.45,2.59.89,3.88,1.35,2.17.75,3.71,3.33,3.71,9.53,0,7-1.92,8.32-3.88,7.67Zm.1,27.68L4.69,55.92V36.78l4,1.29c2.84.91,4.13,4.62,4.13,10.47,0,8.18-2.17,9.2-4.34,8.53ZM32.61,41.71c0,9.56,1,17.68,2.87,23.62S40.24,75,44,75.75s6.61-1.81,8.51-6.82,2.86-12.49,2.86-21.77-1-17.2-2.86-23S47.76,14.4,44,13.39s-6.65,1.2-8.53,6.15-2.87,12.62-2.87,22.17Zm18,4.37a67.07,67.07,0,0,1-1.3,14.18c-.95,4-2.59,6.73-5.25,6.19s-4.37-4-5.31-8.52a77.18,77.18,0,0,1-1.23-15A68.36,68.36,0,0,1,38.7,28.56c.94-4.06,2.62-6.7,5.31-6s4.31,4.19,5.25,8.67a75.92,75.92,0,0,1,1.3,14.81ZM64.38,19.42l-4.8-1.18V77.79l4.8.78V52.37c3.32.63,6.64,1.22,10,1.82V80c1.58.21,3.15.42,4.76.6V22.71c-1.61-.32-3.18-.66-4.76-1V45c-3.36-.65-6.68-1.29-10-2V19.42ZM82.29,74.07c.73,2.8,1.47,5.6,2.24,8.39,3.08-3.58,5.07-8.36,6.33-14.67S92.72,53.68,93,44c.07-3.27.17-6.54.28-9.82l6,1V82.66l4.76.34V27.36c-5-.82-10-1.73-15-2.64-.14,5.16-.28,10.32-.39,15.49-.31,11.24-.94,18.45-2,23.47a24.08,24.08,0,0,1-4.41,10.39ZM121.69,30c-1.79-.24-3.54-.5-5.29-.75q-2.31,13.34-4.58,26.8t-4.55,27.19c1.58.12,3.18.21,4.79.29.74-4.51,1.47-9,2.24-13.49,3,.23,6.09.45,9.17.63l2.31,13.45c1.68,0,3.36.08,5.07.15-1.54-8.93-3.12-17.91-4.62-26.93s-3-18.18-4.54-27.34ZM119.8,45.67q1.2,8.38,2.45,16.67c-2.28-.16-4.52-.35-6.76-.56q1.22-8.18,2.49-16.31c.24-1.54.56-4.2.84-6.18l.24,0c.25,2,.49,4.78.74,6.36Zm20.11-31.46-3.22,1.23c.42,4.78,2.52,11.93,7.25,12.43s6.75-6.08,7.2-10.65c-1.08-.66-2.16-1.32-3.25-2-.66,3.69-1.57,6.46-3.95,6.21s-3.33-3.3-4-7.21ZM138.83,32l-4.76-.49V84.29l4.23,0c1.54-5.22,3.15-10.42,4.69-15.58s3.15-10.31,4.73-15.41c.38-1.38,1-3.93,1.33-5.65h.17c-.1,2.27-.21,4.83-.21,6.68V84.32l4.76-.06V33.31L149.53,33c-1.57,5-3.18,10.09-4.72,15.18s-3.15,10.24-4.69,15.39c-.38,1.32-.94,3.83-1.29,5.76h-.21c.1-2.31.21-5,.21-6.81V32Zm25,2c-1.61-.1-3.18-.22-4.76-.31V84.12c1.58,0,3.15-.1,4.76-.13V61.85l10,0V83.54l4.76-.27V34.67c-1.61-.06-3.18-.11-4.76-.18V54.11c-3.36,0-6.72-.07-10-.12V34Zm30.72,27c-3.47.14-6.89.27-10.32.36v6.53c3.43-.14,6.85-.31,10.32-.5V61Zm10.32-26c-1.61,0-3.18,0-4.76,0V81.62l4.76-.48V61l2.9-.16c1.05,3.24,2.14,6.48,3.19,9.69s2.17,6.37,3.25,9.54c1.82-.21,3.64-.42,5.49-.67-1.36-3.71-2.76-7.47-4.09-11.25s-2.69-7.64-4-11.49c1.29-3.71,2.66-7.41,4-11.07s2.66-7.28,4-10.93c-1.78.07-3.57.1-5.35.15q-1.64,4.68-3.22,9.39t-3.15,9.51l-2.94.12V35ZM235,33.91l-5.28.33q-2.31,11.11-4.58,22.33c-1.51,7.53-3.05,15.12-4.55,22.74l4.79-.65c.74-3.77,1.47-7.51,2.24-11.26,3-.36,6.09-.77,9.17-1.18q1.16,5.19,2.31,10.36c1.68-.27,3.36-.57,5.07-.88C242.6,68.89,241,62,239.52,55.08S236.48,41,235,33.91Zm-1.89,12.92c.81,4.34,1.61,8.65,2.45,13l-6.75.79c.81-4.53,1.65-9,2.49-13.57.24-1.28.56-3.48.83-5.13h.25c.24,1.6.49,3.75.73,5ZM247.85,64.1c-.81,1.85-1.61,3.71-2.38,5.57a8.59,8.59,0,0,0,9.24,4.59c6-1.23,9.58-6.78,9.58-14.41,0-4.57-1.68-8.2-4.79-8.31v-.29c2.38-1.29,4.34-5.19,4.34-9.88,0-6.3-2.77-10.22-8.29-9.66-4.55.46-7.88,4.53-9.59,8,.94,1.5,1.89,3,2.87,4.46,1.4-2.66,3.29-5.5,6-5.81,2.38-.29,3.92,1.3,3.92,4.87,0,3.87-1.61,6.09-3.75,6.4l-3.18.46V56l3.29-.51c2.55-.41,4.13,1,4.13,5s-1.51,6.66-4.9,7.29c-3.57.66-5.5-2-6.51-3.66Zm25.33-33.88-4.76.59v40c1.4-.32,2.8-.64,4.24-1,1.53-4.31,3.14-8.64,4.68-12.9s3.15-8.46,4.73-12.64c.38-1.12,1-3.15,1.33-4.53l.21,0c-.14,1.72-.25,3.66-.25,5V67.24c1.58-.4,3.15-.82,4.76-1.25V28l-4.23.7c-1.58,4.08-3.19,8.22-4.73,12.38s-3.11,8.41-4.65,12.66c-.39,1.09-1,3.13-1.33,4.66a.8.8,0,0,1-.21.05c.1-1.76.21-3.82.21-5.19v-23Zm25-3.94c-1.61.3-3.19.59-4.76.85V64.54c1.57-.43,3.15-.88,4.76-1.36V46.84c3.32-.83,6.64-1.64,10-2.53V60.15L313,58.62V23.39l-4.76,1V38.69c-3.36.82-6.68,1.58-10,2.36V26.28Zm19,13.62c0,5.38,1,9.53,2.87,12s4.76,3.17,8.53,1.83A15.88,15.88,0,0,0,337,46a27.85,27.85,0,0,0,2.87-13c0-5-1-8.77-2.87-11.15s-4.72-3.34-8.47-2.41A12.81,12.81,0,0,0,320,26.23c-1.9,3.56-2.87,8.28-2.87,13.67Zm17.91-5.36a25.08,25.08,0,0,1-1.26,8.25,9,9,0,0,1-5.25,5.82,3.9,3.9,0,0,1-5.31-2.31A20.16,20.16,0,0,1,322,38.49,26.27,26.27,0,0,1,323.25,30c.94-2.64,2.62-4.77,5.31-5.45s4.31.51,5.25,2.56a18.8,18.8,0,0,1,1.26,7.47Zm14.8-20.26L344,15.89c.14,3.68.32,7.34.46,11s.31,7.3.49,11l4-1.46c.14-3.69.31-7.39.45-11.07s.32-7.37.49-11Zm-.49,25.95-4.9,1.87v5.07l4.9-2v-5Z"/></g></g></svg>