<svg xmlns="http://www.w3.org/2000/svg" viewBox="0 0 423.67 133.78"><defs><style>.cls-1{fill:#fff;}</style></defs><title>Ресурс 7</title><g id="Слой_2" data-name="Слой 2"><g id="Layer_1" data-name="Layer 1"><path class="cls-1" d="M8.61,0C20.21,3.44,31.4,8,42.8,12.8c-.77,2.81-1.18,4.32-2,7.48-5.53-2.35-8.26-3.48-13.68-5.56C20.56,38.83,14.2,63,7.79,87.12c-3.17-.68-4.72-1-7.79-1.61C6.59,61,13.13,36.51,19.79,12c-5.35-1.89-8-2.74-13.28-4.17Z"/><path class="cls-1" d="M78.25,45.41C76.55,53.24,71.86,60,65.94,60.14l-.1.47c7.36,4.51,8,14,7,20.81-1.61,11.33-12.09,19-22.67,16.06-8.1-2.06-12.08-3.09-19.82-5,6.25-25.6,12.2-51.27,19.08-76.78,7,3.08,10.59,4.69,17.8,7.85C75.43,26.81,80.48,35.13,78.25,45.41Zm-8.72-1.93c1.71-8.11-1.09-11.52-5.74-13.56L55.08,26.1c-1.89,7.52-3.28,13.5-5.84,24.34l8.55,3C61.75,54.76,67.47,53.24,69.53,43.48ZM63.6,78.3c1.53-7.62-1-13.18-7.07-15.06l-9.63-3C44.27,71.21,43.28,75.8,41,85.73l9.22,2.47C55.52,89.63,61.55,88.57,63.6,78.3Z"/><path class="cls-1" d="M112.09,40.49c15.23,5,21.16,22.89,19.65,38.92-1.39,15.18-9.74,34.56-29.14,31-20-3.64-22.28-25.7-19.62-42.48C85.51,52.24,95.32,35,112.09,40.49ZM111,48C98.43,43.43,93.47,60.47,91.83,70.46c-2,12-1.12,28.56,11.9,31.28s18.06-13.85,19.11-23.91C124.1,66.07,122.63,52.12,111,48Z"/><path class="cls-1" d="M176.07,64.43c-9.58-2.25-14.33-3.36-23.71-5.48-.56,6.9-.85,10.81-1.43,18.65,7.92,1.54,11.91,2.35,20,4-.16,3.23-.23,4.88-.38,8.17-8.15-1.55-12.2-2.31-20.21-3.75-.63,8.72-.95,13.3-1.54,21.78,10,1.44,15.13,2.2,25.36,3.74-.13,3.23-.19,4.82-.31,7.9q-17.48-2.32-34.82-4.54c1.75-21.68,3.47-43.38,5.59-65q15.79,3.77,31.83,7.66C176.28,60.16,176.21,61.55,176.07,64.43ZM156.53,46l-7.29-1.81c.28-2.77.42-4,.67-6.27l7.21,1.86C156.89,42,156.77,43.22,156.53,46Zm15.32,3.84L164.44,48c.21-2.73.31-4,.5-6.19l7.34,1.88C172.11,45.84,172,47.09,171.85,49.8Z"/><path class="cls-1" d="M232.55,70.37c14.73,3.84,25.12,18.94,26.64,33.24s-7.86,26.55-24.65,24.63c-18.39-2.11-27-18.93-26.66-34.24C208.22,80.23,216.78,66.23,232.55,70.37Zm.23,6.57c-12.2-3-15.84,9.68-15.54,18.9.37,10.52,3.89,23.26,17.06,25.47,12.89,2.14,16.14-10.22,15.53-19.33C249.17,91.85,244.43,79.81,232.78,76.94Z"/><path class="cls-1" d="M278.59,102.5c3,.43,4.54.6,7.57.85,5.31-8.57,7.85-13.25,13-20.5,4.09.07,6.14,0,10.22-.14-5.38,7.73-10.36,16-15.52,24.17,7.18,8.88,14.48,17.87,22.95,26-4.43.45-6.66.63-11.12.86a228.54,228.54,0,0,1-18.93-23.38c-3-.21-4.52-.35-7.53-.74,1,9.9,1.42,15,2.23,23.63-3.83-.37-5.78-.63-9.55-1.08q-2.19-26.72-4.47-53.44c3.53.74,5.29,1.17,8.94,1.86C277.24,88.57,277.7,93.26,278.59,102.5Z"/><path class="cls-1" d="M328.61,100.73c10-1.53,14.93-2.56,24.73-4.61-1.53-7.6-2.5-12.47-3.68-18.26l8.71-1.51q5.1,23.66,10.09,47.32l-9.24,2c-1.58-8-2.86-14.41-4.64-23.35-9.87,2.18-14.84,3.28-24.89,4.94,1.52,9.32,2.47,15.23,3.79,23.4-3.78.62-5.68.9-9.48,1.4q-3.69-24.9-7.5-49.79c3.57-.28,5.36-.46,8.92-.86C326.51,87.9,327.29,92.66,328.61,100.73Z"/><path class="cls-1" d="M392.27,70.83c12.78-.88,25.47,4.65,30,18.3,4.87,14.58-3.82,24.67-17.79,27.76-15,3.32-28.32-7.32-31.24-20.83C370.29,82.35,378.37,71.78,392.27,70.83ZM393.38,75c-9.88,1.1-13.42,10-11.14,19.16,1.84,7.44,7.74,18.79,20.7,16.81,11.22-1.74,13.09-11.89,10.34-21.41C411.27,82.64,405.72,73.63,393.38,75Z"/></g></g></svg>