<svg xmlns="http://www.w3.org/2000/svg" viewBox="0 0 463.4 136.42"><defs><style>.cls-1{fill:#fff;}</style></defs><title>Ресурс 4</title><g id="Слой_2" data-name="Слой 2"><g id="Layer_1" data-name="Layer 1"><path class="cls-1" d="M0,14.45Q21.92,20.56,43.74,27c-.15,3.23-.22,4.93-.37,8.46-7-2.08-10.44-3.11-17.3-5.12C25.3,53.48,24.65,76.63,24,99.77c-3.55-.75-5.3-1.1-8.73-1.76.52-23.45,1-46.9,1.58-70.35C10,25.71,6.65,24.76,0,23Z" transform="translate(0 -14.45)"/><path class="cls-1" d="M91.42,58.41C91.09,66.17,87.18,72.08,80.76,72v.44C89.69,76.84,91.92,86.7,92.14,93.6c.39,11.57-10,20.11-21.08,17.16-8.9-2.14-13.32-3.22-21.92-5.27,1-25.34,1.82-50.69,3-76C61,32.08,65.46,33.39,74.4,36,84.8,38.71,91.87,47.55,91.42,58.41Zm-10.1-1.54c.24-7.64-3.64-11.6-9.36-13.29l-10.77-3.2c-.35,8.44-.52,13-.87,22.41L70.41,65.7C75.06,67,81,66.07,81.32,56.87Zm.41,33.52c.23-8-3.59-13.65-10.59-15.59L60,71.69c-.38,10.58-.58,16.06-1,26.59l10.3,2.57C75.24,102.33,81.42,101.11,81.73,90.39Z" transform="translate(0 -14.45)"/><path class="cls-1" d="M128.22,49.88c18.4,5,26.44,24.37,26.55,41.93.1,14.71-8.34,36-27,32.08-19.71-4.16-26.95-26.49-27-44.13C100.66,64.2,109.17,44.74,128.22,49.88Zm-.06,8.87c-13.67-3.89-17.32,13.32-17.44,23.58-.13,11.36,2.73,30.2,17.09,32.23,14.11,2,17.08-14,17.26-24.48C145.27,77.87,140.87,62.37,128.16,58.75Z" transform="translate(0 -14.45)"/><path class="cls-1" d="M202,75.07c-10.71-2.3-16-3.42-26.63-5.48,0,8.06,0,12.1,0,20.16,8.69,1.51,13.06,2.33,21.83,4,0,3.36,0,5,0,8.39-8.77-1.62-13.14-2.4-21.83-3.83,0,8.8,0,13.21,0,22,10.57,1.5,15.89,2.35,26.56,4.11v8.5c-12-1.88-24.06-3.62-36.14-5.07q0-34.43,0-68.85C177.9,61.36,190,63.94,202,66.64,202,70,202,71.7,202,75.07Zm-23.2-22.46c-3.37-.73-5.06-1.09-8.42-1.79V40.65c3.36.74,5.05,1.12,8.42,1.89C178.81,46.56,178.82,48.58,178.81,52.61Zm17.61,3.93-8.49-1.92c0-4,0-6,0-10,3.4.8,5.09,1.21,8.5,2Z" transform="translate(0 -14.45)"/><path class="cls-1" d="M264.42,80.09c16.52,3.61,26.75,20.44,26.71,36.69,0,15-10.44,30.07-27.06,27-17.07-3.16-26.93-20.86-27-37.05C237,91.34,247.3,76.34,264.42,80.09Zm0,7.89C251.46,84.84,247,98.35,247,108.68c0,11.72,4.13,24.68,17.07,27.17,12.75,2.46,17.4-10.65,17.25-20.73C281.15,103.48,276.81,91,264.38,88Z" transform="translate(0 -14.45)"/><path class="cls-1" d="M311.72,115.24c3.1.42,4.65.61,7.76,1q8.22-11.5,16.38-23c4.32.3,6.48.41,10.79.57Q336.87,107,327,120.34c6.29,10.32,12.75,20.55,19.62,30.5-4.44-.05-6.66-.1-11.1-.25-5.66-8.76-11.05-17.74-16.23-26.79-3.07-.32-4.61-.5-7.67-.9-.1,10.57-.14,15.85-.15,26.2-3.79-.36-5.69-.56-9.5-1,0-19.8.29-39.6.43-59.39,3.82.71,5.72,1.08,9.51,1.69C311.87,100.29,311.82,105.29,311.72,115.24Z" transform="translate(0 -14.45)"/><path class="cls-1" d="M363.53,117.63c10.49-.06,15.74-.23,26.24-.65.05-9.55.07-14.42.1-23.64,3.81-.15,5.72-.24,9.53-.41-.06,18.81-.15,37.62-.17,56.42-3.82.22-5.74.32-9.56.51,0-9.51,0-14.76.07-25.28-10.51.41-15.76.58-26.26.64-.07,10.53-.1,15.78-.11,25.55-3.82.07-5.74.09-9.56.1.06-19,.22-38,.35-56.95,3.81.06,5.71.07,9.52.06C363.63,103.27,363.59,108.1,363.53,117.63Z" transform="translate(0 -14.45)"/><path class="cls-1" d="M436.93,90.64c16.08-.81,26.43,13.63,26.47,28.57,0,15.42-11.12,27.6-26.51,28.41-15.61.82-26.71-11.26-26.58-26.46S420.91,91.44,436.93,90.64Zm0,7.07c-12.38.6-16.63,12.33-16.88,23-.24,10.12,5,21.19,16.84,20.46,11.54-.71,16.87-11.54,16.85-21.78C453.71,109.33,449.21,97.12,436.92,97.71Z" transform="translate(0 -14.45)"/></g></g></svg>