<svg xmlns="http://www.w3.org/2000/svg" viewBox="0 0 624.18 133.23"><defs><style>.cls-1{fill:#fff;}</style></defs><title>Ресурс 5</title><g id="Слой_2" data-name="Слой 2"><g id="Layer_1" data-name="Layer 1"><path class="cls-1" d="M55.93,61.7C54,73.2,40.51,76.49,30.52,73.34c-4.14-1.33-6.21-2-10.34-3.39L10.68,97C6.59,95.71,4.55,95,.47,93.67q12.65-35.15,25.3-70.28A152.06,152.06,0,0,0,43.9,33.87C53.79,39.08,57.62,51.44,55.93,61.7Zm-9.61-3.64c2.06-8.56-3-12.88-7.4-15.38-3.41-2-5.08-3-8.36-5.14C27.47,47.19,25.92,52,22.82,61.67c3.66,1.41,5.5,2.09,9.18,3.42C36.28,66.64,44.07,67.44,46.32,58.06Z" transform="translate(-0.47 -8.65)"/><path class="cls-1" d="M103.64,121.79c-4.41-.94-6.61-1.42-11-2.4-.7-7.77-1-11.66-1.6-19.46C81,97.49,75.94,96.2,65.9,93.48c-4.6,6.57-6.93,9.86-11.64,16.44-4.13-1.12-6.2-1.68-10.32-2.85,13.77-19,27-38.2,40.1-57.65,4.21,1.23,6.33,1.81,10.61,2.91C94.26,74.82,101.5,99,103.64,121.79ZM85.49,62.67,85,62.54c-1,1.77-2,3.87-2.82,5.16-4.13,6.74-5,8.48-11,17.54,7.84,2.15,11.77,3.18,19.64,5.14-.37-10.62-2.49-13.22-4.38-21.55A55.85,55.85,0,0,1,85.49,62.67Z" transform="translate(-0.47 -8.65)"/><path class="cls-1" d="M132.29,118.86c9.56,1.77,14.87-2.21,16.34-9.6S146,98.07,139,96.74c-3.34-.64-5-1-8.34-1.64.39-2.81.58-4.22,1-7,3.31.6,5,.89,8.29,1.45,5.37.92,11-1.58,12-8.12.86-5.75-3-9.33-9.79-10.14-7.64-.91-13.22,2.34-17.2,5.09-2.18-2.52-3.27-3.76-5.45-6.24,6.82-5.79,18.13-10,26.89-8.95,10.33,1.31,18.11,9.74,16.62,20.26a14.71,14.71,0,0,1-13.24,12.66c0,.14,0,.21-.06.35,8.34,2.46,11,9.74,9.61,17-2.63,13.55-15.4,18.86-28.22,16.63-9.72-1.7-17.73-7.87-20.84-14.83,2.81-2.34,4.2-3.51,7-5.86A20,20,0,0,0,132.29,118.86Z" transform="translate(-0.47 -8.65)"/><path class="cls-1" d="M218.19,87.85c-1.14,7.06-5.83,12.83-12.73,13.6l-.06.39c9.2,2.7,10.91,10.83,10.36,17-1.08,12-13.51,18.16-24.33,17.17-9.52-1.08-14.28-1.68-23.78-3,3.8-22.21,7-44.55,11.36-66.66,9.43,1.1,14.13,1.62,23.45,2.71C212.47,69.78,219.84,77.6,218.19,87.85Zm-10.64,0c1-7-2.68-10.21-8.72-10.83-4.57-.46-6.86-.69-11.47-1.13-1.29,8-1.91,12-3.16,20,4.29.54,6.43.8,10.7,1.31C199.81,97.8,206.3,96.3,207.55,87.89Zm-2.73,29.34c1-6.89-2.61-11.36-10-12.28-4.72-.59-7.08-.9-11.78-1.55-1.37,8.86-2.2,13.61-3.66,22.71,4.42.58,6.62.85,11,1.38C196.76,128.24,203.53,126.52,204.82,117.23Z" transform="translate(-0.47 -8.65)"/><path class="cls-1" d="M241.75,92c1.19-7.26,1.78-10.88,3-18.13q17.75,1.71,35.54,2.68c-1.56,21.69-3,43.38-4.38,65.08-4.26-.09-6.39-.15-10.65-.29q2.22-28.54,4.45-57.09c-6.83-.42-10.25-.67-17.08-1.22-.82,5.05-1.23,7.58-2,12.63-2.72,18.17-8.2,36.82-26.53,44.66-1.59-3.31-2.38-5-3.94-8.3C235.46,124.9,239.34,107.27,241.75,92Z" transform="translate(-0.47 -8.65)"/><path class="cls-1" d="M331.51,86c-11,.09-16.47.06-27.45-.2-.34,7.61-.49,11.41-.78,19,9.21.12,13.81.12,23,0l-.1,8c-9.28.16-13.92.18-23.21.09-.3,8.31-.48,12.45-.77,20.75,9.65,0,19.33-.19,29-.53v8.12q-19.95.78-39.92.68c1-21.54,2.06-43.08,3.28-64.61q18.54.72,37.09.63C331.59,81.11,331.56,82.72,331.51,86Z" transform="translate(-0.47 -8.65)"/><path class="cls-1" d="M356.88,117.05c-12,.66-17.85-6.22-17.84-16.06,0-9.27,0-13.9.13-23.17,3.93,0,5.89-.09,9.81-.19,0,8.14,0,12.21.08,20.35.06,6.28,2.49,11.24,10.87,10.79a23.46,23.46,0,0,0,12.86-4.7c-.42-10.94-.61-16.4-.87-27.33,4-.21,5.94-.32,9.9-.58.8,20.48,1.93,40.93,3.2,61.39-4.24.41-6.36.6-10.6,1-.54-10.6-.82-15.9-1.32-26.5A34.21,34.21,0,0,1,356.88,117.05Z" transform="translate(-0.47 -8.65)"/><path class="cls-1" d="M433.9,78.82c-10.9,1.41-16.36,2-27.36,3.12.5,7.15.77,10.73,1.34,17.88,9.24-1,13.84-1.58,23-2.81.32,3,.49,4.48.82,7.46-9.24,1.29-13.9,1.89-23.22,3,.64,7.81,1,11.69,1.7,19.49,9.58-1.11,19.19-2.5,28.68-4.23.33,3,.5,4.5.87,7.58-13.05,2.48-26.24,4.17-39.44,5.67-1.59-20.26-3.05-40.52-4.19-60.81,12.36-1,24.71-2.25,37-3.8C433.45,74.36,433.58,75.81,433.9,78.82Z" transform="translate(-0.47 -8.65)"/><path class="cls-1" d="M456.08,92.59q13.85-2.22,27.64-4.9c-1.65-9.39-2.24-13.43-4.12-23.76,3.88-.75,5.82-1.13,9.7-1.92,3.31,17.71,6.59,35.41,9.5,53.19-4.05,1.26-6.08,1.87-10.15,3.07-1.71-10-1.75-12.67-3.61-23.09q-13.87,2.76-27.87,5.06c1.54,10.66,1.85,14.9,3.36,25.55-4.12,1-6.18,1.46-10.32,2.35C447.78,108.77,445.27,89.39,443,70c3.91-.55,5.87-.84,9.78-1.44C454.18,78.54,454.73,83,456.08,92.59Z" transform="translate(-0.47 -8.65)"/><path class="cls-1" d="M520.59,91.91a44.54,44.54,0,0,1,.54,5.58l.49-.14a44.24,44.24,0,0,1,2.69-5.66,375.14,375.14,0,0,0,16.55-41.9c3.4-.91,5.09-1.37,8.49-2.32,4.22,15.46,8.36,30.92,12.26,46.46l-10,3.51c-2.91-11.22-2.93-12.65-6.37-26.23a69.72,69.72,0,0,1-1.34-7.3l-.38.1a73,73,0,0,1-1.95,7.1c-5.3,13.26-12.6,23.94-19.19,36.45-3.6,1.21-5.41,1.81-9,3-3.09-17.24-6.58-34.37-10.14-51.52,3.87-.86,5.8-1.3,9.66-2.2C515.57,68.5,518.06,80.21,520.59,91.91Z" transform="translate(-0.47 -8.65)"/><path class="cls-1" d="M583,74.12a23.68,23.68,0,0,1,.69,4.11l.48-.15c.59-1.25,1.7-3.16,2.53-4.55,6.06-13.44,10.3-27.48,13.78-41.76,3.37-1.12,5-1.69,8.41-2.84L624.65,72.8c-4,1.22-6,1.84-10.07,3.12-3.91-11.12-3.8-10.87-8.16-23.57a65.83,65.83,0,0,1-1.84-6.87c-.14.06-.22.08-.37.13a65.78,65.78,0,0,1-1.48,7c-4.48,13.25-10.6,21.36-17.5,33.09-3.61,1.24-5.41,1.87-9,3.13q-6.33-22.71-13-45.31c3.83-1.13,5.74-1.7,9.56-2.87C576.28,51.76,579.54,63,583,74.12Zm-1.9-53c5.56-1.86,6.39-7.36,6.76-11.84,2.79-.28,4.2-.4,7-.62.54,5.51-.6,17.32-11,20.72s-18.59-4.95-21.23-9.89c2.35-1.53,3.53-2.28,5.89-3.74C571.41,19.25,575.33,23,581.07,21.11Z" transform="translate(-0.47 -8.65)"/></g></g></svg>