<svg xmlns="http://www.w3.org/2000/svg" viewBox="0 0 28.53 35.2"><defs><style>.cls-1{fill:#ffffff;fill-rule:evenodd;}</style></defs><g id="Слой_2" data-name="Слой 2"><g id="Слой_4" data-name="Слой 4"><path class="cls-1" d="M17.43,0H11.07C7.28,11.72,3.63,23.37,0,35.2l5.82-.13c.9-2.92,1.79-5.86,2.69-8.78,3.68-.1,7.39-.23,11.1-.36.93,2.81,1.85,5.6,2.78,8.4,2.05-.16,4.1-.29,6.14-.44C24.76,22.62,21.09,11.37,17.43,0ZM10,20.94c1.38-5,2.75-9.61,4-14.68h.26c.28,1.31.6,3,.89,4l0,0q1.48,5.25,3,10.48Z"/></g></g></svg>
