<svg xmlns="http://www.w3.org/2000/svg" viewBox="0 0 28.5 47.85"><defs><style>.cls-1{fill:#ffffff;fill-rule:evenodd;}</style></defs><g id="Слой_2" data-name="Слой 2"><g id="Слой_4" data-name="Слой 4"><path class="cls-1" d="M17.4,2C15.26,1.34,13.15.66,11,0,7.26,13.78,3.61,27.72,0,41.66c1.92.48,3.84,1,5.79,1.43q1.34-5.27,2.69-10.47Q14,34,19.61,35.32l2.78,11.37q3,.62,6.11,1.16C24.69,32.63,21,17.44,17.4,2ZM9.94,26.16c1.38-5.94,2.79-11.33,4-17.36l.29.09c.25,1.69.57,4,.86,5.32h0q1.49,7.07,3,14.07C15.38,27.6,12.66,26.89,9.94,26.16Z"/></g></g></svg>
