<svg xmlns="http://www.w3.org/2000/svg" viewBox="0 0 23.58 45.4"><defs><style>.cls-1{fill:#ffffff;fill-rule:evenodd;}</style></defs><g id="Слой_2" data-name="Слой 2"><g id="Слой_1-2" data-name="Слой 1"><path class="cls-1" d="M14.41,0,9.13.33Q6.82,11.45,4.55,22.66C3,30.19,1.5,37.77,0,45.4l4.79-.65C5.53,41,6.26,37.24,7,33.49c3.05-.36,6.09-.77,9.17-1.18q1.15,5.19,2.31,10.36c1.68-.27,3.36-.57,5.07-.88C22,35,20.46,28.1,19,21.17S15.92,7.1,14.41,0ZM8.22,26.66C9,22.13,9.87,17.6,10.71,13.09c.24-1.28.56-3.48.84-5.13h.24c.25,1.6.49,3.74.74,5,.8,4.34,1.6,8.64,2.44,13Z"/></g></g></svg>
