<svg xmlns="http://www.w3.org/2000/svg" viewBox="0 0 23.58 55.01"><defs><style>.cls-1{fill:#ffffff;fill-rule:evenodd;}</style></defs><g id="Слой_2" data-name="Слой 2"><g id="Слой_1-2" data-name="Слой 1"><path class="cls-1" d="M14.41.74,9.13,0Q6.82,13.32,4.55,26.8C3,35.82,1.5,44.9,0,54c1.57.12,3.18.22,4.79.29.74-4.5,1.47-9,2.24-13.48,3.05.22,6.09.45,9.17.62q1.15,6.75,2.31,13.45l5.07.15C22,46.09,20.46,37.11,19,28.09S15.92,9.9,14.41.74ZM8.22,32.54q1.21-8.17,2.49-16.32c.24-1.53.56-4.19.84-6.18l.24,0c.25,2,.49,4.79.74,6.36C13.33,22,14.13,27.56,15,33.1,12.7,32.94,10.46,32.74,8.22,32.54Z"/></g></g></svg>
