<svg xmlns="http://www.w3.org/2000/svg" viewBox="0 0 24.96 31.42"><defs><style>.cls-1{fill:#ffffff;fill-rule:evenodd;}</style></defs><g id="Слой_2" data-name="Слой 2"><g id="Слой_1-2" data-name="Слой 1"><path class="cls-1" d="M20.1,13.68,15.26,0C13.4.34,11.54.67,9.68.94Q7.25,8.56,4.84,16.21T0,31.42c1.67-.19,3.38-.44,5.09-.7.77-2.53,1.55-5,2.35-7.59,3.23-.48,6.48-1,9.74-1.63.81,2.28,1.61,4.55,2.42,6.81,1.77-.32,3.57-.69,5.36-1.06Q22.5,20.49,20.1,13.68ZM8.71,18.5c.87-3.08,1.74-6.16,2.64-9.24.25-.87.56-2.38.9-3.53l.25,0c.25,1,.53,2.45.77,3.24.87,2.78,1.74,5.58,2.61,8.38C13.49,17.73,11.1,18.14,8.71,18.5Z"/></g></g></svg>
