<svg xmlns="http://www.w3.org/2000/svg" viewBox="0 0 24.96 34.98"><defs><style>.cls-1{fill:#ffffff;fill-rule:evenodd;}</style></defs><g id="Слой_2" data-name="Слой 2"><g id="Слой_1-2" data-name="Слой 1"><path class="cls-1" d="M20.06,18.2C18.44,12.51,16.84,6.75,15.23,1L9.68,0Q7.25,7.92,4.84,16T0,32.3c1.67.22,3.38.43,5.09.64q1.16-4.06,2.35-8.08c3.23.45,6.45.83,9.71,1.22.81,2.83,1.61,5.64,2.45,8.45,1.77.17,3.57.32,5.36.45C23.32,29.43,21.67,23.83,20.06,18.2ZM8.68,19.9c.87-3.26,1.77-6.52,2.67-9.77.22-.93.56-2.55.87-3.73l.25,0c.25,1.27.52,3,.77,4q1.3,5.25,2.61,10.46C13.46,20.56,11.07,20.26,8.68,19.9Z"/></g></g></svg>
