<svg xmlns="http://www.w3.org/2000/svg" viewBox="0 0 17.91 66.78"><defs><style>.cls-1{fill:#ffffff;fill-rule:evenodd;}</style></defs><g id="Слой_2" data-name="Слой 2"><g id="Слой_1-2" data-name="Слой 1"><path class="cls-1" d="M13.12,34.58v-.36c2.62-.74,4.13-6,4.13-12.45,0-11.29-3.12-16.8-7.49-18.28L0,0V63.79L9.55,66.6c3.26.91,8.36-1.3,8.36-16C17.91,44.71,16.72,37.1,13.12,34.58ZM4.69,10.84c1.29.45,2.59.89,3.88,1.35,2.17.75,3.71,3.33,3.71,9.53,0,7-1.92,8.32-3.88,7.68L4.69,28.16ZM8.5,57.07,4.69,55.92V36.78l4,1.29c2.84.91,4.13,4.62,4.13,10.47C12.84,56.72,10.67,57.74,8.5,57.07Z"/></g></g></svg>
