<svg xmlns="http://www.w3.org/2000/svg" viewBox="0 0 26.39 44.71"><defs><style>.cls-1{fill:#fff;fill-rule:evenodd;}</style></defs><g id="Слой_2" data-name="Слой 2"><g id="Layer_1" data-name="Layer 1"><path class="cls-1" d="M5,1.78C3.35,1.21,1.67.61,0,0V38.83c2.79.7,5.58,1.38,8.4,2.06,4.47,1,9.49-1.11,9.49-9.56,0-8.29-3.72-12.28-8.62-13.69L5,16.34V1.78ZM26.39,8.53,21.34,7.09V43.72c1.67.34,3.35.66,5.05,1V8.53ZM8.16,35.31,5,34.49V21.9l3.17.93c2.32.69,4.62,2.25,4.62,7.33,0,4.67-2.2,5.77-4.62,5.15Z"/></g></g></svg>