<svg xmlns="http://www.w3.org/2000/svg" viewBox="0 0 21 46.38"><defs><style>.cls-1{fill:#ffffff;fill-rule:evenodd;}</style></defs><g id="Слой_2" data-name="Слой 2"><g id="Слой_1-2" data-name="Слой 1"><path class="cls-1" d="M0,18.12c0,8.09,1.16,14.39,3.26,19S8.34,44.49,12,45.9s7.07-.31,9-3.48c-.84-1.93-1.68-3.88-2.49-5.83-1.7,2.15-3.5,3.58-6.23,2.51-4.62-1.87-7.1-8.68-7.1-18.5,0-8.4,2.2-14.88,7-12.45,2.82,1.38,4.43,4.22,5.89,7.34.9-1.31,1.8-2.62,2.73-3.9C19,7.38,16.5,3.39,12,1.13,8.22-.85,5.22-.18,3.16,2.77S0,11,0,18.12Z"/></g></g></svg>
