<svg xmlns="http://www.w3.org/2000/svg" viewBox="0 0 26.39 37.86"><defs><style>.cls-1{fill:#ffffff;fill-rule:evenodd;}</style></defs><g id="Слой_2" data-name="Слой 2"><g id="Слой_1-2" data-name="Слой 1"><path class="cls-1" d="M22.7,24.71V0C17.49.46,12.28.87,7.07,1.14c-.15,2.55-.31,5.1-.43,7.65a59.12,59.12,0,0,1-1.31,9.68,28,28,0,0,1-3,7.92c-.78.06-1.55.1-2.33.12V37.86c1.55-.08,3.1-.19,4.65-.31V30.81c5.71-.4,11.41-.92,17.12-1.48V36c1.52-.18,3.07-.38,4.62-.58V24.27Zm-5.09-9.65v10.2c-3.47.32-6.91.63-10.35.86A38.45,38.45,0,0,0,9.71,19,55.28,55.28,0,0,0,11,10c.09-1.55.18-3.13.31-4.69l6.35-.49Z"/></g></g></svg>
