<svg xmlns="http://www.w3.org/2000/svg" viewBox="0 0 19.7 42.83"><defs><style>.cls-1{fill:#ffffff;fill-rule:evenodd;}</style></defs><g id="Слой_2" data-name="Слой 2"><g id="Слой_1-2" data-name="Слой 1"><path class="cls-1" d="M10.74,13.08C9.2,17.25,7.63,21.49,6.09,25.74c-.39,1.09-1,3.13-1.33,4.66a.8.8,0,0,1-.21.05c.1-1.76.21-3.82.21-5.19v-23L0,2.81v40c1.4-.33,2.8-.64,4.23-.95C5.77,37.57,7.38,33.24,8.92,29s3.15-8.46,4.73-12.64c.38-1.12,1-3.16,1.32-4.53a1.52,1.52,0,0,1,.21,0c-.14,1.72-.24,3.66-.24,5V39.24c1.57-.4,3.15-.82,4.76-1.25V0L15.46.7C13.89,4.78,12.28,8.92,10.74,13.08Z"/></g></g></svg>
