<svg xmlns="http://www.w3.org/2000/svg" viewBox="0 0 19.7 52.87"><defs><style>.cls-1{fill:#ffffff;fill-rule:evenodd;}</style></defs><g id="Слой_2" data-name="Слой 2"><g id="Слой_1-2" data-name="Слой 1"><path class="cls-1" d="M10.74,16.67C9.2,21.78,7.59,26.92,6.05,32.07c-.38,1.32-.94,3.83-1.29,5.76H4.55c.1-2.32.21-5,.21-6.81V.49L0,0V52.83l4.23,0c1.54-5.23,3.15-10.43,4.69-15.59S12.07,27,13.64,21.87c.39-1.38,1-3.92,1.33-5.65h.18c-.11,2.28-.21,4.84-.21,6.68v30c1.57,0,3.15,0,4.76-.07V1.85c-1.44-.11-2.84-.24-4.24-.36C13.89,6.53,12.28,11.59,10.74,16.67Z"/></g></g></svg>
