<svg xmlns="http://www.w3.org/2000/svg" viewBox="0 0 20.87 33.41"><defs><style>.cls-1{fill:#ffffff;fill-rule:evenodd;}</style></defs><g id="Слой_2" data-name="Слой 2"><g id="Слой_1-2" data-name="Слой 1"><path class="cls-1" d="M5.06.65C3.35.44,1.67.24,0,0V32.24c1.49.12,3,.21,4.47.32,1.64-3.09,3.31-6.17,5-9.22s3.35-6.07,5-9.11c.4-.82,1.06-2.33,1.43-3.39l.18,0c-.12,1.37-.24,2.92-.24,4V33.18l5.05.23V2.34L16.41,1.9c-1.68,3-3.38,6-5,9s-3.32,6-5,9.07a27.53,27.53,0,0,0-1.36,3.43H4.81c.12-1.4.25-3,.25-4.14V.65Z"/></g></g></svg>
