<svg xmlns="http://www.w3.org/2000/svg" viewBox="0 0 20.87 43.5"><defs><style>.cls-1{fill:#fff;fill-rule:evenodd;}</style></defs><g id="Слой_2" data-name="Слой 2"><g id="Layer_1" data-name="Layer 1"><path class="cls-1" d="M6.2,0,2.76.52c.47,3,2.7,7.46,7.69,8.08s7.16-3.36,7.66-6.11L14.64,1.1C14,3.32,13,5,10.45,4.67S6.92,2.43,6.2,0Z"/><path class="cls-1" d="M5.06,10.74c-1.71-.21-3.39-.4-5.06-.65V42.34l4.47.31c1.64-3.09,3.31-6.17,5-9.22s3.35-6.06,5-9.11c.4-.82,1.06-2.33,1.43-3.38l.18,0c-.12,1.38-.24,2.93-.24,4.05V43.27l5.05.23V12.43L16.41,12c-1.68,3-3.38,6-5,9s-3.32,6-5,9.06A28.17,28.17,0,0,0,5.06,33.5H4.81c.12-1.4.25-3,.25-4.14V10.74Z"/></g></g></svg>