<svg xmlns="http://www.w3.org/2000/svg" viewBox="0 0 19.7 70.12"><defs><style>.cls-1{fill:#fff;fill-rule:evenodd;}</style></defs><g id="Слой_2" data-name="Слой 2"><g id="Layer_1" data-name="Layer 1"><path class="cls-1" d="M5.84,0,2.62,1.22C3,6,5.14,13.15,9.87,13.66S16.62,7.57,17.07,3C16,2.35,14.9,1.68,13.82,1c-.66,3.69-1.57,6.46-4,6.21S6.54,3.9,5.84,0Z"/><path class="cls-1" d="M4.76,17.74,0,17.25V70.08l4.23,0c1.54-5.23,3.15-10.43,4.69-15.59s3.15-10.31,4.72-15.4c.39-1.39,1-3.93,1.33-5.66h.18c-.11,2.28-.21,4.84-.21,6.69v30c1.57,0,3.15,0,4.76-.07V19.1c-1.44-.11-2.84-.24-4.24-.36-1.57,5-3.18,10.1-4.72,15.18S7.59,44.17,6.05,49.32c-.38,1.32-.94,3.83-1.29,5.76H4.55c.1-2.32.21-5,.21-6.81V17.74Z"/></g></g></svg>