<svg xmlns="http://www.w3.org/2000/svg" viewBox="0 0 19.59 46.92"><defs><style>.cls-1{fill:#ffffff;fill-rule:evenodd;}</style></defs><g id="Слой_2" data-name="Слой 2"><g id="Слой_1-2" data-name="Слой 1"><path class="cls-1" d="M11.48,22c1.29-3.71,2.65-7.4,3.95-11.07s2.66-7.27,4-10.92L14.06.15C13,3.26,11.9,6.39,10.85,9.54S8.75,15.86,7.7,19l-2.94.12V.31C3.15.31,1.57.33,0,.34V46.92l4.76-.48V26.34l2.9-.16c1.05,3.24,2.13,6.48,3.19,9.68S13,42.24,14.1,45.4c1.82-.2,3.64-.42,5.49-.66C18.23,41,16.83,37.27,15.5,33.48S12.81,25.84,11.48,22Z"/></g></g></svg>
