<svg xmlns="http://www.w3.org/2000/svg" viewBox="0 0 22.78 62.74"><defs><style>.cls-1{fill:#ffffff;fill-rule:evenodd;}</style></defs><g id="Слой_2" data-name="Слой 2"><g id="Слой_1-2" data-name="Слой 1"><path class="cls-1" d="M11.41.26C7.63-.82,4.75,1.46,2.87,6.41S0,19,0,28.59,1,46.27,2.87,52.21s4.76,9.61,8.54,10.42,6.61-1.82,8.5-6.83S22.78,43.32,22.78,34s-1-17.2-2.87-23S15.15,1.27,11.41.26Zm5.24,46.88c-.94,4-2.59,6.72-5.24,6.19s-4.38-4-5.32-8.52a77.31,77.31,0,0,1-1.23-15A68.52,68.52,0,0,1,6.09,15.43c.94-4,2.62-6.69,5.32-5.95s4.3,4.18,5.24,8.67A75.82,75.82,0,0,1,18,33,66.52,66.52,0,0,1,16.65,47.14Z"/></g></g></svg>
