<svg xmlns="http://www.w3.org/2000/svg" viewBox="0 0 22.74 35.28"><defs><style>.cls-1{fill:#ffffff;fill-rule:evenodd;}</style></defs><g id="Слой_2" data-name="Слой 2"><g id="Слой_1-2" data-name="Слой 1"><path class="cls-1" d="M11.41.35A12.79,12.79,0,0,0,2.87,7.14C1,10.69,0,15.42,0,20.8s1,9.54,2.87,12S7.63,36,11.41,34.62a15.83,15.83,0,0,0,8.46-7.72,27.9,27.9,0,0,0,2.87-13c0-5-1-8.77-2.87-11.15S15.15-.58,11.41.35ZM16.65,23.7a9,9,0,0,1-5.24,5.81,3.9,3.9,0,0,1-5.32-2.3A20.2,20.2,0,0,1,4.86,19.4a26.23,26.23,0,0,1,1.23-8.53C7,8.23,8.71,6.09,11.41,5.42s4.3.5,5.24,2.55a18.82,18.82,0,0,1,1.26,7.48A25.12,25.12,0,0,1,16.65,23.7Z"/></g></g></svg>
