<svg xmlns="http://www.w3.org/2000/svg" viewBox="0 0 22.48 36.29"><defs><style>.cls-1{fill:#ffffff;fill-rule:evenodd;}</style></defs><g id="Слой_2" data-name="Слой 2"><g id="Слой_1-2" data-name="Слой 1"><path class="cls-1" d="M4.16,31.68c-.25,1.55-.5,3.08-.72,4.61A8.68,8.68,0,0,0,6,35.9c4.49-1.38,6.54-4.6,8.55-10.84,1.31-4.13,2.64-8.3,3.94-12.46s2.67-8.39,4-12.6L17.27,1.94c-.74,2.55-1.49,5.09-2.2,7.61s-1.46,5.06-2.17,7.56c-.25.9-.46,1.95-.65,2.9a2.3,2.3,0,0,1-.25.08,22,22,0,0,0-.77-2.51c-1-1.93-1.9-3.87-2.83-5.79L5.61,6C3.72,6.65,1.86,7.21,0,7.76c1.64,3.05,3.32,6.09,5,9.08s3.35,6,5,9c-.16.42-.28.82-.41,1.24-.74,2.14-1.8,3.74-3.59,4.3a6.57,6.57,0,0,1-1.83.27Z"/></g></g></svg>
