<svg xmlns="http://www.w3.org/2000/svg" viewBox="0 0 22.45 30.73"><defs><style>.cls-1{fill:#ffffff;fill-rule:evenodd;}</style></defs><g id="Слой_2" data-name="Слой 2"><g id="Слой_1-2" data-name="Слой 1"><path class="cls-1" d="M4.16,25.89l-.75,4.5A8.48,8.48,0,0,0,6,30.73c4.46-.09,6.54-2.74,8.52-8.36,1.31-3.72,2.64-7.44,3.94-11.14s2.67-7.4,4-11.08L17.24.23C16.5,2.5,15.76,4.78,15,7.05s-1.43,4.55-2.14,6.83a23.69,23.69,0,0,0-.65,2.7H12c-.22-.86-.53-2.06-.77-2.79-1-2.24-1.9-4.52-2.83-6.77L5.61.19C3.72.15,1.86.09,0,0,1.64,3.7,3.31,7.38,5,11s3.32,7.19,5,10.76c-.16.38-.28.75-.41,1.12-.74,1.94-1.8,3.25-3.56,3.27a5.84,5.84,0,0,1-1.83-.27Z"/></g></g></svg>
