<svg xmlns="http://www.w3.org/2000/svg" viewBox="0 0 18.82 42.77"><defs><style>.cls-1{fill:#ffffff;fill-rule:evenodd;}</style></defs><g id="Слой_2" data-name="Слой 2"><g id="Слой_1-2" data-name="Слой 1"><path class="cls-1" d="M14,19.88v-.29c2.38-1.29,4.34-5.19,4.34-9.88,0-6.3-2.77-10.22-8.29-9.66C5.53.51,2.2,4.58.49,8c.94,1.5,1.89,3,2.87,4.46,1.4-2.66,3.29-5.5,6-5.81C11.76,6.4,13.3,8,13.3,11.56c0,3.87-1.61,6.09-3.75,6.4l-3.18.46v5.94l3.29-.51c2.55-.41,4.13,1,4.13,5s-1.51,6.66-4.9,7.29c-3.57.66-5.5-2-6.51-3.66C1.57,34.29.77,36.15,0,38A8.59,8.59,0,0,0,9.24,42.6c6-1.23,9.58-6.78,9.58-14.41C18.82,23.62,17.14,20,14,19.88Z"/></g></g></svg>
