<svg xmlns="http://www.w3.org/2000/svg" viewBox="0 0 23.87 58.09"><defs><style>.cls-1{fill:#e84e0f;fill-rule:evenodd;}</style></defs><g id="Слой_2" data-name="Слой 2"><g id="Слой_4" data-name="Слой 4"><path class="cls-1" d="M5.79,13.86c-2-.51-3.87-1-5.79-1.51V54.51c1.7.32,3.39.58,5.12.85,4.14-9.1,9.43-17.64,13-26.93h.23c-.45,3.49-.2,25-.26,28.9,1.92.27,3.84.53,5.76.76v-40c-1.73-.36-3.43-.73-5.12-1.11-4.33,8.79-9.68,17.26-13,26.55l-.28-.06C6,39.9,5.73,17.86,5.79,13.86Z"/><path class="cls-1" d="M7.07,0C5.76.06,4.45.13,3.17.22c.13,9.65,15,18.21,17.53,4.65-1.34-.75-2.65-1.52-4-2.27C15.18,10.2,7.6,6.11,7,0Z"/></g></g></svg>