<svg xmlns="http://www.w3.org/2000/svg" viewBox="0 0 320.44 93.21"><defs><style>.cls-1{fill:#fff;fill-rule:evenodd;}</style></defs><g id="Слой_2" data-name="Слой 2"><g id="Layer_1" data-name="Layer 1"><path class="cls-1" d="M20.57,8.82Q10.28,4.56,0,0V60.14q10.05,3.72,20.09,7.2c3.43,1.1,7.83,1.69,11.34.26S37.68,62.77,37.68,56a18.79,18.79,0,0,0-10.09-16.8v-.33c5.57.49,8.72-3.75,8.72-9.68,0-10.39-6.54-16.85-15.74-20.39ZM17.66,32.19l-7.76-3V13l8.17,3.32C22.59,18,25.8,21.17,25.8,26.91c0,6.51-4,6.81-8.14,5.28ZM17.91,58l-8-2.85V37.25l8.4,3.16C24.26,42.54,27,46.59,27,52c0,7.58-4.58,7.56-9.1,6Zm93.67-23.88q-20.34-3.72-40.67-8.72V81.27l9.84,2V36.35c7,1.56,14,3,21,4.37V87c3.27.48,6.53,1,9.84,1.41V34.13Zm8.81,28.36c0,8.37,2,15.53,6,20.79s10,8.49,18,9.12S158.24,90.56,162.2,86s6-11.26,6-19.44-2.06-15-6-20-10-8.13-17.84-8.83-14,1.18-18,5.46-6,10.94-6,19.3Zm37.68,3.56c0,4.24-.64,9-2.66,12.57s-5.45,6-11,5.64a12.88,12.88,0,0,1-11.12-7.39c-2-3.94-2.6-8.83-2.6-13.12s.61-9,2.6-12.61,5.44-5.88,11.12-5.33a13.09,13.09,0,0,1,11,7.34c2,3.88,2.66,8.71,2.66,12.91Zm29-25.31c-3.33-.05-6.66-.1-10-.21V93.16c3.34,0,6.67,0,10,0V70.35c2,0,4,0,6.06,0,2.24,3.78,4.51,7.55,6.76,11.31s4.52,7.45,6.79,11.17c3.85-.15,7.69-.37,11.54-.59-2.85-4.38-5.72-8.74-8.53-13.14s-5.67-8.89-8.49-13.35c2.76-4.26,5.59-8.52,8.33-12.77L217.93,40c-3.78.19-7.53.38-11.28.49-2.24,3.63-4.51,7.27-6.73,10.88s-4.45,7.17-6.67,10.76q-3.08,0-6.15,0V40.74Zm69.15-4.67Q240,38.31,223.82,39.66V91.83q16.2-1.38,32.43-3.49V80.27c-7.5,1-15,1.92-22.43,2.67V68.18c6.09-.59,12.18-1.31,18.27-2.1V58.25c-6.09.79-12.18,1.52-18.27,2.11V46.8c7.47-.76,14.93-1.67,22.43-2.74v-8Zm27-5c-6.37,1.35-12.72,2.62-19.06,3.73V87.14c3.33-.54,6.66-1.09,10-1.73V65.78c2.62-.5,5.25-1,7.88-1.55a24.11,24.11,0,0,0,13-7.26,20.68,20.68,0,0,0,5.35-14.06c0-6.27-2.34-9.69-5.64-11.28s-7.6-1.46-11.54-.56Zm-2.11,25.71c-2.34.48-4.68.93-7,1.38V40.55c2.47-.5,4.93-1,7.43-1.5,3.79-.85,8.62-.89,8.62,6.49,0,7.76-5.32,10.43-9,11.25Zm39.32-35.86c-4.14,1.28-8.27,2.57-12.37,3.78.32,6.2.67,12.38,1,18.58s.67,12.4,1,18.58c2.79-.8,5.58-1.6,8.4-2.43l1-19.23c.32-6.42.64-12.85,1-19.28Zm-1,45.2c-3.46,1-6.89,2-10.32,2.9v8.59c3.43-.92,6.86-1.88,10.32-2.85V66.12Z"/></g></g></svg>