<svg xmlns="http://www.w3.org/2000/svg" viewBox="0 0 20.84 58.87"><defs><style>.cls-1{fill:#fff;fill-rule:evenodd;}</style></defs><g id="Слой_2" data-name="Слой 2"><g id="Layer_1" data-name="Layer 1"><path class="cls-1" d="M5,3.25,0,0V49.17l4.47,2.17c1.64-4,3.31-8,5-11.92s3.32-7.79,5-11.62c.4-1.05,1.05-3,1.43-4.42.06,0,.12.07.21.11-.12,2-.24,4.27-.24,5.93V56.66c1.67.75,3.35,1.5,5,2.21v-46c-1.49-.84-3-1.73-4.47-2.63-1.67,3.7-3.35,7.44-5,11.25s-3.32,7.68-5,11.57A41.86,41.86,0,0,0,5,37.72c-.09,0-.18-.1-.24-.12.12-2.08.24-4.51.24-6.17V3.25Z"/></g></g></svg>