<svg xmlns="http://www.w3.org/2000/svg" viewBox="0 0 58.05 58.05"><defs><style>.cls-1{fill:#e84e0f;}.cls-2{fill:#fff;}</style></defs><g id="Слой_2" data-name="Слой 2"><g id="Main_Product_Icons" data-name="Main Product Icons"><g id="Live_Casino" data-name="Live Casino"><circle class="cls-1" cx="29.03" cy="29.03" r="29.03"/><path class="cls-2" d="M29,52.84a24,24,0,1,1,24-24A24,24,0,0,1,29,52.84Zm0-46a22,22,0,1,0,22,22A22,22,0,0,0,29,6.84Z"/><path class="cls-2" d="M39.41,19.71a2,2,0,1,1,2-2,2,2,0,0,1-2,2"/><path class="cls-2" d="M40.15,26.84a2,2,0,0,0-1.72,1H30.75a2.1,2.1,0,0,0-.72-.73V19.43a2,2,0,1,0-3-1.72,2,2,0,0,0,1,1.72v7.68a2.13,2.13,0,0,0-.73.73H19.62a2,2,0,1,0-1.72,3,2,2,0,0,0,1.72-1H27.3a2.1,2.1,0,0,0,.73.72v7.68A2,2,0,1,0,31,40a2,2,0,0,0-1-1.73V30.56a2.07,2.07,0,0,0,.72-.72h7.68a2,2,0,0,0,3.72-1A2,2,0,0,0,40.15,26.84Z"/></g></g></g></svg>