<svg xmlns="http://www.w3.org/2000/svg" viewBox="0 0 185.42 27.61"><defs><style>.cls-1{fill:#fff;}</style></defs><g id="Слой_2" data-name="Слой 2"><g id="EB_New_Logo" data-name="EB New Logo"><g id="Vector"><path class="cls-1" d="M0,13.74a10.5,10.5,0,1,1,10.5,10.5A10.5,10.5,0,0,1,0,13.74"/><path class="cls-1" d="M104.88,18.58a4.68,4.68,0,0,1-4.56-4.44v-.78a4.57,4.57,0,1,1,9.14.39,4.71,4.71,0,0,1-4.58,4.83m.8-13.74a8.18,8.18,0,0,0-5.36,2V5.35H95.6V27.61h4.72v-7a8.18,8.18,0,0,0,5.36,2,8.69,8.69,0,0,0,8.45-8.92,8.69,8.69,0,0,0-8.45-8.91"/><polygon class="cls-1" points="185.42 5.35 181.85 5.35 181.85 0 177.13 0 177.13 5.35 174.95 5.35 174.95 9.24 177.13 9.24 177.13 22.13 181.85 22.13 181.85 9.24 185.42 9.24 185.42 5.35"/><path class="cls-1" d="M149.83,13.74a4.56,4.56,0,1,1-9.12.39v-.78a4.56,4.56,0,1,1,9.12.39m4.67,0a8.68,8.68,0,0,0-8.44-8.9,8.14,8.14,0,0,0-5.35,2V0H136V22.13h4.72v-1.5a8.14,8.14,0,0,0,5.35,2,8.69,8.69,0,0,0,8.44-8.91"/><path class="cls-1" d="M120.49,13.36a4.82,4.82,0,0,1,4.75-4.66,3.81,3.81,0,0,1,3.51,1.87l-8.25,3.35s0-.26,0-.56m1.35,4,11.92-4.85a8.53,8.53,0,0,0-8.69-7.67A9,9,0,0,0,116,13.74a9.08,9.08,0,0,0,9.3,8.91c3.42,0,6.45-1.36,7.81-3l-2.57-2.6c-5.09,3.64-8.5.68-8.7.26"/><path class="cls-1" d="M73.8,5c-3.77-.68-10.7.59-10.7,8.23v8.91h4.8V14.52c0-6.12,5.9-5.08,5.9-5.08Z"/><path class="cls-1" d="M55.74,5.35v9.49a3.75,3.75,0,0,1-7.5,0V5.35H43.55v8.86h0a8.44,8.44,0,1,0,16.88,0V5.35Z"/><path class="cls-1" d="M84,18.58a4.76,4.76,0,0,1-4.65-4.84,4.65,4.65,0,1,1,9.3,0A4.77,4.77,0,0,1,84,18.58M84,4.84a9.11,9.11,0,0,0-9.31,8.9,9.32,9.32,0,0,0,18.62,0A9.11,9.11,0,0,0,84,4.84"/><path class="cls-1" d="M28.13,13.36A4.82,4.82,0,0,1,32.88,8.7a3.81,3.81,0,0,1,3.51,1.87l-8.25,3.34s0-.25,0-.55m1.35,4L41.4,12.5a8.53,8.53,0,0,0-8.69-7.67,9,9,0,0,0-9.07,8.91,9.08,9.08,0,0,0,9.3,8.91c3.41,0,6.45-1.36,7.81-3l-2.57-2.6c-5.09,3.64-8.5.68-8.7.26"/><path class="cls-1" d="M160.79,13.36a4.82,4.82,0,0,1,4.75-4.66,3.81,3.81,0,0,1,3.51,1.87l-8.25,3.35s0-.26,0-.56m1.34,4,11.93-4.85a8.53,8.53,0,0,0-8.69-7.67,9,9,0,0,0-9.07,8.91,9.08,9.08,0,0,0,9.3,8.91c3.41,0,6.45-1.36,7.81-3l-2.57-2.6c-5.09,3.64-8.5.68-8.71.26"/></g></g></g></svg>