<svg xmlns="http://www.w3.org/2000/svg" viewBox="0 0 349.87 156.39"><defs><style>.cls-1{fill:#e84e0f;fill-rule:evenodd;}</style></defs><g id="Слой_2" data-name="Слой 2"><g id="Layer_1" data-name="Layer 1"><path class="cls-1" d="M5,3.25,0,0V49.17l4.47,2.17c1.64-4,3.31-8,5-11.92s3.32-7.79,5-11.62c.4-1.05,1.05-3,1.43-4.42.06,0,.12.07.21.11-.12,2-.24,4.27-.24,5.93V56.66c1.67.75,3.35,1.5,5,2.21v-46c-1.49-.84-3-1.73-4.47-2.63-1.67,3.7-3.35,7.44-5,11.25s-3.32,7.68-5,11.57A41.86,41.86,0,0,0,5,37.72c-.09,0-.18-.1-.24-.12.12-2.08.24-4.51.24-6.17V3.25Zm20.25,35c0,8.09,1.17,14.39,3.26,19s5.09,7.36,8.72,8.77,7.07-.31,9-3.48c-.84-1.93-1.67-3.88-2.48-5.83-1.71,2.15-3.51,3.58-6.23,2.51-4.63-1.87-7.11-8.68-7.11-18.5,0-8.4,2.21-14.87,7-12.45,2.82,1.38,4.44,4.22,5.89,7.34.9-1.31,1.8-2.62,2.73-3.9-1.8-4.21-4.31-8.2-8.8-10.45-3.79-2-6.79-1.32-8.84,1.63s-3.17,8.19-3.17,15.35ZM71,37c-6.86-2.74-13.68-5.6-20.5-8.67V70.21l5,1.62v-35c3.5,1.48,7,2.89,10.58,4.31v33.9c1.64.48,3.28.92,5,1.38V37Zm10.63,3.92c-1.67-.56-3.34-1.17-5-1.78V78L85,80c4.47,1,9.49-1.11,9.49-9.56,0-8.29-3.72-12.28-8.62-13.69-1.42-.42-2.85-.87-4.25-1.3V40.89ZM103,47.64,98,46.2V82.84l5,1V47.64ZM84.79,74.42l-3.17-.82V61l3.17.93c2.32.69,4.62,2.25,4.62,7.33,0,4.68-2.2,5.77-4.62,5.15Zm21.67-20.31L114.15,56v29.8c1.68.28,3.39.53,5.09.79V57.12q3.81.83,7.66,1.62V53.52q-10.23-2.28-20.44-4.89v5.48Zm34.21,2-5.55-1q-2.42,7.92-4.84,16c-1.62,5.39-3.22,10.84-4.84,16.32l5.09.64c.77-2.71,1.55-5.4,2.36-8.09,3.22.46,6.45.84,9.7,1.23.81,2.83,1.62,5.64,2.45,8.45,1.77.16,3.57.31,5.37.45-1.65-5.55-3.3-11.15-4.9-16.78s-3.23-11.45-4.84-17.23Zm-2,9.44c.86,3.51,1.73,7,2.6,10.47-2.39-.33-4.78-.63-7.16-1q1.31-4.91,2.66-9.77c.22-.93.56-2.55.87-3.73l.25,0c.25,1.27.53,3,.78,4ZM160,48.09l-3.44.52c.46,3,2.7,7.46,7.69,8.09s7.16-3.37,7.66-6.12c-1.18-.46-2.33-.92-3.47-1.39-.69,2.22-1.65,3.86-4.19,3.58s-3.54-2.25-4.25-4.68Zm-1.15,10.74c-1.7-.2-3.38-.4-5.05-.64V90.43c1.49.12,3,.21,4.46.31,1.65-3.08,3.32-6.16,5-9.21s3.35-6.07,5-9.11c.4-.82,1.06-2.34,1.43-3.39l.18,0c-.12,1.38-.24,2.93-.24,4V91.37l5.05.23V60.52l-4.47-.44c-1.67,3-3.37,6-5,9s-3.32,6-5,9.07a28.4,28.4,0,0,0-1.37,3.43h-.24c.12-1.4.24-3,.24-4.14V58.83Zm35.48,28.51c-.25,1.51-.49,3-.74,4.51a8.42,8.42,0,0,0,2.57.34c4.47-.09,6.54-2.74,8.53-8.36,1.3-3.72,2.64-7.45,3.94-11.14s2.67-7.4,4-11.08l-5.21.08c-.75,2.27-1.49,4.54-2.2,6.82s-1.43,4.55-2.14,6.83a21.75,21.75,0,0,0-.65,2.7h-.25c-.22-.86-.53-2.06-.78-2.79-1-2.24-1.89-4.52-2.82-6.77l-2.79-6.84c-1.89,0-3.75-.09-5.61-.18,1.64,3.7,3.31,7.38,5,11s3.32,7.19,5,10.76c-.15.38-.28.75-.4,1.12-.75,1.94-1.8,3.25-3.57,3.27a5.67,5.67,0,0,1-1.83-.28Zm19.48-.74c-.78.06-1.55.1-2.33.12V98.07c1.55-.08,3.1-.19,4.65-.31V91c5.71-.4,11.42-.92,17.12-1.48v6.67c1.52-.18,3.07-.38,4.62-.58V84.48l-3.69.44V60.21c-5.21.46-10.42.87-15.63,1.15-.15,2.54-.31,5.09-.43,7.64a60.55,60.55,0,0,1-1.3,9.69,28,28,0,0,1-3,7.91Zm15.29-21.53v20.4c-3.48.33-6.92.63-10.36.86a38.45,38.45,0,0,0,2.45-7.12,55.28,55.28,0,0,0,1.24-9c.09-1.55.18-3.13.31-4.69l6.36-.49Zm26.48-7.82c-1.86.34-3.72.67-5.58.94q-2.42,7.62-4.84,15.27t-4.84,15.21c1.68-.19,3.38-.44,5.09-.7.77-2.53,1.55-5,2.36-7.59,3.22-.48,6.48-1,9.73-1.63l2.42,6.81c1.77-.32,3.57-.69,5.37-1.06-1.65-4.51-3.26-9-4.87-13.57L255.6,57.25Zm-2,8.93,2.6,8.38q-3.59.64-7.16,1.19c.87-3.08,1.73-6.16,2.63-9.24.25-.87.56-2.38.9-3.52.06,0,.16,0,.25-.05.25,1,.53,2.45.78,3.24Zm26,2.9V81.25c1.68-.4,3.35-.87,5-1.32V50.52c-1.68.5-3.35,1-5,1.42V64.63a10.47,10.47,0,0,1-4.93,2.9c-3.25.81-4.09-1.34-4.09-4V54.21c-1.68.37-3.35.74-5,1.09v11c0,4.66,2.61,7.29,7.42,6.21a16.45,16.45,0,0,0,6.63-3.42Zm12.19,4.48c-.25,1.55-.5,3.09-.71,4.62a8.31,8.31,0,0,0,2.54-.4c4.5-1.37,6.54-4.6,8.56-10.83,1.3-4.14,2.64-8.3,3.94-12.46s2.67-8.4,4-12.6c-1.74.63-3.47,1.29-5.21,1.94-.75,2.54-1.49,5.09-2.2,7.61s-1.46,5.06-2.17,7.56c-.25.9-.47,2-.65,2.9l-.25.08a21.36,21.36,0,0,0-.78-2.51c-1-1.93-1.89-3.87-2.82-5.79l-2.79-5.78c-1.89.63-3.75,1.2-5.61,1.74,1.64,3.06,3.32,6.1,5,9.09s3.35,6,5,9c-.15.42-.28.82-.4,1.24-.75,2.14-1.8,3.73-3.6,4.3a6.47,6.47,0,0,1-1.83.26Z"/><path class="cls-1" d="M9.76,75.54,0,72.06v63.79l9.55,2.81c3.26.91,8.36-1.3,8.36-16,0-5.91-1.19-13.53-4.79-16.05v-.35c2.62-.74,4.13-6,4.13-12.46,0-11.28-3.12-16.8-7.49-18.28ZM8.4,101.45l-3.71-1.23V82.89c1.29.45,2.59.89,3.88,1.35,2.17.75,3.71,3.34,3.71,9.54,0,7-1.92,8.31-3.88,7.67Zm.1,27.68L4.69,128V108.83l4,1.3c2.84.9,4.13,4.61,4.13,10.47,0,8.18-2.17,9.19-4.34,8.53Zm24.11-15.36c0,9.56,1,17.68,2.87,23.62S40.24,147,44,147.81,50.62,146,52.52,141s2.86-12.48,2.86-21.76-1-17.2-2.86-23S47.76,86.45,44,85.44s-6.65,1.2-8.53,6.15-2.87,12.63-2.87,22.18Zm18,4.36a67.17,67.17,0,0,1-1.3,14.19c-.95,4-2.59,6.72-5.25,6.19s-4.37-4-5.31-8.52a77.31,77.31,0,0,1-1.23-15,68.52,68.52,0,0,1,1.23-14.38c.94-4,2.62-6.69,5.31-6s4.31,4.18,5.25,8.67a75.82,75.82,0,0,1,1.3,14.8ZM64.38,91.47l-4.8-1.18v59.56l4.8.78v-26.2c3.32.62,6.64,1.21,10,1.81v25.82c1.58.21,3.15.41,4.76.6V94.77c-1.61-.32-3.18-.67-4.76-1v23.32c-3.36-.64-6.68-1.29-10-2V91.47Zm17.91,54.65c.73,2.8,1.47,5.6,2.24,8.39,3.08-3.57,5.07-8.36,6.33-14.66S92.72,125.74,93,116c.07-3.27.17-6.54.28-9.83,2,.35,4,.68,6,1v47.52l4.76.34V99.41c-5-.81-10-1.72-15-2.64-.14,5.16-.28,10.32-.39,15.5-.31,11.24-.94,18.45-2,23.47a24,24,0,0,1-4.41,10.38ZM121.69,102c-1.79-.23-3.54-.49-5.29-.74q-2.31,13.32-4.58,26.8c-1.51,9-3,18.1-4.55,27.18,1.58.12,3.18.22,4.79.29.74-4.5,1.47-9,2.24-13.48,3,.22,6.09.45,9.17.62q1.16,6.75,2.31,13.45l5.07.15c-1.54-8.92-3.12-17.9-4.62-26.92s-3-18.19-4.54-27.35Zm-1.89,15.69c.8,5.59,1.61,11.13,2.45,16.67-2.28-.16-4.52-.36-6.76-.56q1.22-8.18,2.49-16.32c.24-1.53.56-4.19.84-6.18l.24,0c.25,2,.49,4.79.74,6.37Zm20.11-31.46-3.22,1.22c.42,4.79,2.52,11.93,7.25,12.44s6.75-6.09,7.2-10.66c-1.08-.65-2.16-1.31-3.25-2-.66,3.69-1.57,6.46-3.95,6.21s-3.33-3.3-4-7.21ZM138.83,104l-4.76-.5v52.83l4.23,0c1.54-5.22,3.15-10.43,4.69-15.59s3.15-10.31,4.73-15.4c.38-1.39,1-3.93,1.33-5.66h.17c-.1,2.28-.21,4.84-.21,6.69v29.95c1.57,0,3.15,0,4.76-.07V105.37c-1.44-.11-2.84-.24-4.24-.36-1.57,5-3.18,10.1-4.72,15.18s-3.15,10.25-4.69,15.4c-.38,1.32-.94,3.83-1.29,5.76h-.21c.1-2.32.21-5,.21-6.81V104Zm25,2c-1.61-.09-3.18-.21-4.76-.31v50.45c1.58-.05,3.15-.1,4.76-.13V133.9l10,0V155.6c1.58-.08,3.15-.19,4.76-.27v-48.6l-4.76-.18v19.62l-10-.12V106Zm30.72,27c-3.47.13-6.89.26-10.32.36v6.52c3.43-.14,6.85-.31,10.32-.49v-6.39Zm10.32-26c-1.61,0-3.18,0-4.76,0v46.59l4.76-.49v-20.1l2.9-.16c1.05,3.24,2.14,6.48,3.19,9.68s2.17,6.38,3.25,9.54c1.82-.2,3.64-.42,5.49-.66-1.36-3.71-2.76-7.47-4.09-11.26s-2.69-7.64-4-11.49c1.29-3.71,2.66-7.4,4-11.07s2.66-7.27,4-10.92c-1.78.07-3.57.1-5.35.15q-1.64,4.66-3.22,9.39c-1.05,3.14-2.1,6.32-3.15,9.5l-2.94.12V107.06ZM235,106l-5.28.33q-2.31,11.1-4.58,22.33c-1.51,7.53-3.05,15.11-4.55,22.74l4.79-.66c.74-3.76,1.47-7.5,2.24-11.25,3-.36,6.09-.77,9.17-1.18.77,3.46,1.54,6.92,2.31,10.35,1.68-.26,3.36-.57,5.07-.88-1.54-6.81-3.12-13.68-4.62-20.62s-3-14.06-4.55-21.16Zm-1.89,12.91c.81,4.35,1.61,8.65,2.45,13l-6.75.8c.81-4.53,1.65-9.06,2.49-13.57.24-1.28.56-3.48.83-5.13h.25c.24,1.6.49,3.74.73,5Zm14.77,17.28c-.81,1.84-1.61,3.71-2.38,5.56a8.6,8.6,0,0,0,9.24,4.6c6-1.24,9.58-6.78,9.58-14.41,0-4.57-1.68-8.21-4.79-8.32v-.29c2.38-1.28,4.34-5.19,4.34-9.88,0-6.29-2.77-10.21-8.29-9.65-4.55.46-7.88,4.53-9.59,8,.94,1.49,1.89,3,2.87,4.45,1.4-2.66,3.29-5.49,6-5.8,2.38-.29,3.92,1.3,3.92,4.87,0,3.86-1.61,6.08-3.75,6.39l-3.18.46v6c1.08-.17,2.17-.33,3.29-.52,2.55-.4,4.13,1,4.13,5s-1.51,6.65-4.9,7.28c-3.57.67-5.5-2-6.51-3.65Zm25.33-33.88-4.76.59v40l4.24-.94c1.53-4.31,3.14-8.64,4.68-12.91s3.15-8.45,4.73-12.63c.38-1.12,1-3.16,1.33-4.53a1.52,1.52,0,0,1,.21,0c-.14,1.71-.25,3.65-.25,5V139.3l4.76-1.26v-38l-4.23.69c-1.58,4.09-3.19,8.23-4.73,12.38s-3.11,8.41-4.65,12.66c-.39,1.1-1,3.14-1.33,4.67l-.21,0c.1-1.76.21-3.82.21-5.18v-23Zm25-3.94c-1.61.3-3.19.59-4.76.85V136.6c1.57-.43,3.15-.88,4.76-1.37V118.89c3.32-.82,6.64-1.64,10-2.53v15.85l4.76-1.54V95.44l-4.76,1v14.31c-3.36.83-6.68,1.59-10,2.36V98.34Zm19,13.61c0,5.39,1,9.54,2.87,12s4.76,3.16,8.53,1.82a15.82,15.82,0,0,0,8.47-7.72,27.9,27.9,0,0,0,2.87-13c0-5-1-8.77-2.87-11.15s-4.72-3.35-8.47-2.41A12.78,12.78,0,0,0,320,98.29c-1.9,3.55-2.87,8.28-2.87,13.66Zm17.91-5.35a25.12,25.12,0,0,1-1.26,8.25,9,9,0,0,1-5.25,5.82,3.9,3.9,0,0,1-5.31-2.31,20.2,20.2,0,0,1-1.23-7.81,26.23,26.23,0,0,1,1.23-8.53c.94-2.64,2.62-4.77,5.31-5.45s4.31.51,5.25,2.55a18.85,18.85,0,0,1,1.26,7.48Zm14.8-20.26L344,87.94c.14,3.68.32,7.34.46,11s.31,7.31.49,11l4-1.45c.14-3.69.31-7.4.45-11.08s.32-7.37.49-11Zm-.49,26-4.9,1.86v5.08l4.9-2v-5Z"/></g></g></svg>