<svg xmlns="http://www.w3.org/2000/svg" viewBox="0 0 320.44 177.34"><defs><style>.cls-1{fill:#e84e0f;fill-rule:evenodd;}</style></defs><g id="Слой_2" data-name="Слой 2"><g id="Layer_1" data-name="Layer 1"><path class="cls-1" d="M13.69,6.36C10.38,4.3,7.1,2.15,3.81,0V75.84c2.91,1.42,5.84,2.87,8.77,4.27q4.86-8.85,9.77-17.47c3.22-5.72,6.52-11.32,9.78-16.88a57.06,57.06,0,0,0,2.8-6.54l.4.2c-.25,3-.49,6.44-.49,9V89.73c3.28,1.3,6.59,2.53,9.9,3.75V24.12C41.81,22.57,38.88,21,36,19.43c-3.26,5.37-6.56,10.73-9.79,16.23s-6.52,11.13-9.76,16.82a44.7,44.7,0,0,0-2.73,6.84,2.61,2.61,0,0,0-.47-.24c.25-3.18.47-6.89.47-9.42V6.36ZM86.48,43C76.23,38.81,66,34.39,55.75,29.61V97.22c3.28,1.07,6.59,2.06,9.9,3.07v-56q10.41,4.32,20.83,8.23V43Zm25.62,9q-9.42-3-18.85-6.41v61.73c3.29.67,6.6,1.32,9.9,1.94V86.65c2.6.64,5.22,1.24,7.84,1.82C121,90.58,129.1,85.8,129.1,73.92c0-13.33-9.19-19.62-17-22ZM110,79.65c-2.33-.56-4.64-1.17-6.94-1.79V57.65c2.44.78,4.88,1.54,7.34,2.26C114.18,61,119,63.5,119,71.58c0,8.51-5.26,9-8.92,8.07Zm49-16q-5.46-1-10.92-2.15c-3.17,8.29-6.39,16.69-9.52,25.23s-6.32,17.46-9.47,26.4c3.3.36,6.63.71,10,1,1.53-4.36,3.09-8.71,4.64-13q9.53,1,19.06,1.62,2.4,6.43,4.8,12.73c3.5,0,7,0,10.54-.13-3.2-8.14-6.42-16.44-9.57-25-3.2-8.7-6.34-17.6-9.52-26.7Zm-3.9,14.67q2.52,8.27,5.1,16.37c-4.68-.43-9.36-1-14.05-1.51q2.59-7.78,5.2-15.44c.49-1.44,1.13-4,1.75-5.82l.49.09c.46,2,1,4.74,1.51,6.31Zm41.81-25.8c-2.24.21-4.48.45-6.7.66.89,4.34,5.28,10.84,15.09,11.42,9.74.2,14.05-5.39,15-9.22-2.26-.49-4.52-1-6.79-1.59-1.35,3.14-3.26,5.5-8.21,5.24s-6.95-3-8.39-6.5ZM194.7,68c-3.31-.21-6.61-.5-9.9-.78V115c2.91-.18,5.84-.36,8.77-.6,3.24-4.88,6.51-9.74,9.76-14.49s6.53-9.36,9.79-14a49.52,49.52,0,0,0,2.8-5c.13,0,.26,0,.4,0a49,49,0,0,0-.47,5.64v25.13c3.29-.54,6.59-1.15,9.9-1.77V68.32c-2.93.11-5.86.21-8.79.27-3.26,4.38-6.56,8.82-9.79,13.32s-6.52,9.19-9.76,13.88A36.2,36.2,0,0,0,194.7,101a2.75,2.75,0,0,1-.49,0,57.79,57.79,0,0,0,.49-6V68Z"/><path class="cls-1" d="M20.57,93Q10.28,88.69,0,84.13v60.15q10.05,3.72,20.09,7.19c3.43,1.1,7.83,1.7,11.34.27s6.25-4.84,6.25-11.59a18.8,18.8,0,0,0-10.09-16.8V123c5.57.49,8.72-3.75,8.72-9.68C36.31,103,29.77,96.5,20.57,93Zm-2.91,23.37-7.76-3V97.1l8.17,3.32c4.52,1.76,7.73,4.88,7.73,10.63,0,6.5-4,6.8-8.14,5.27Zm.25,25.83-8-2.85V121.38l8.4,3.17c6,2.13,8.71,6.17,8.71,11.58,0,7.58-4.58,7.56-9.1,6Zm93.67-23.89q-20.34-3.72-40.67-8.72V165.4l9.84,2V120.49c7,1.55,14,3,21,4.36V171.1c3.27.47,6.53.94,9.84,1.4V118.26Zm8.81,28.36c0,8.37,2,15.54,6,20.79s10,8.5,18,9.12,13.88-1.84,17.84-6.39,6-11.26,6-19.44-2.06-15-6-20-10-8.13-17.84-8.83-14,1.19-18,5.46-6,10.94-6,19.3Zm37.68,3.56c0,4.24-.64,9-2.66,12.58s-5.45,6.05-11,5.63A12.88,12.88,0,0,1,133.24,161c-2-3.93-2.6-8.83-2.6-13.12s.61-9,2.6-12.61,5.44-5.88,11.12-5.33a13.09,13.09,0,0,1,11,7.34c2,3.88,2.66,8.71,2.66,12.91Zm29-25.31c-3.33-.05-6.66-.1-10-.21v52.63c3.34.05,6.67.05,10,.05V154.48c2,0,4,0,6.06,0,2.24,3.78,4.51,7.55,6.76,11.32s4.52,7.45,6.79,11.16c3.85-.14,7.69-.37,11.54-.59-2.85-4.37-5.72-8.74-8.53-13.14s-5.67-8.89-8.49-13.35c2.76-4.26,5.59-8.51,8.33-12.77l8.37-12.92c-3.78.2-7.53.39-11.28.49-2.24,3.64-4.51,7.27-6.73,10.88s-4.45,7.17-6.67,10.76q-3.08,0-6.15,0V124.87Zm69.15-4.67q-16.25,2.23-32.43,3.59V176q16.2-1.38,32.43-3.49V164.4c-7.5,1-15,1.92-22.43,2.67V152.31c6.09-.58,12.18-1.31,18.27-2.1v-7.83c-6.09.79-12.18,1.52-18.27,2.11V130.93c7.47-.76,14.93-1.67,22.43-2.74v-8Zm27-5c-6.37,1.36-12.72,2.62-19.06,3.73v52.35c3.33-.55,6.66-1.1,10-1.74V149.91q3.93-.74,7.88-1.54a24.18,24.18,0,0,0,13-7.27,20.67,20.67,0,0,0,5.35-14c0-6.28-2.34-9.7-5.64-11.29s-7.6-1.46-11.54-.56Zm-2.11,25.72c-2.34.47-4.68.92-7,1.37V124.68c2.47-.49,4.93-1,7.43-1.5,3.79-.85,8.62-.89,8.62,6.49,0,7.76-5.32,10.43-9,11.25Zm39.32-35.87c-4.14,1.28-8.27,2.57-12.37,3.78.32,6.2.67,12.38,1,18.59s.67,12.39,1,18.57l8.4-2.42,1-19.24c.32-6.42.64-12.85,1-19.28Zm-1,45.2c-3.46,1-6.89,2-10.32,2.91v8.58c3.43-.92,6.86-1.88,10.32-2.85v-8.64Z"/></g></g></svg>