<svg xmlns="http://www.w3.org/2000/svg" viewBox="0 0 348.36 167.13"><defs><style>.cls-1{fill:#e84e0f;fill-rule:evenodd;}</style></defs><g id="Слой_2" data-name="Слой 2"><g id="Layer_1" data-name="Layer 1"><path class="cls-1" d="M347.47,146.89l-9.26,1.44v8.14l9.26-1.4v-8.18Zm.89-42.61-11.07,1.92c.27,5.92.58,11.82.85,17.73s.62,11.81.93,17.71l7.54-1.19c.27-6,.58-12,.86-18.07s.58-12.07.89-18.1ZM295,119.2c4.56-.45,9.12-.9,13.68-1.41v42.47c3-.35,6-.69,9.05-1.06V116.72c4.53-.61,9.05-1.22,13.58-1.91v-7.69q-18.15,2.59-36.31,4.41v7.67Zm-20.63,18c-2.13.14-4.22.26-6.31.38v-17c2.23-.11,4.45-.22,6.68-.35,3.4-.22,7.72.51,7.72,7.54,0,7.41-4.77,9.19-8.09,9.42Zm1.88-24.34q-8.53.47-17.07.77v50.86l8.95-.6V145c2.36-.15,4.73-.29,7.09-.45a18,18,0,0,0,11.62-5A17.31,17.31,0,0,0,291.69,127c0-6-2.13-9.58-5.08-11.66s-6.82-2.67-10.35-2.45Zm-34.18,26.83a29.5,29.5,0,0,1-2.4,12.44,10.8,10.8,0,0,1-9.87,6.53,10.1,10.1,0,0,1-10-6.05C218,149,217.5,144.24,217.5,140s.55-8.92,2.33-12.6a11,11,0,0,1,19.85,0c1.78,3.6,2.4,8.23,2.4,12.31Zm-33.77.26c0,8.25,1.81,15.07,5.42,19.74s9,7.16,16.08,6.92,12.4-3.14,16-7.9,5.42-11.38,5.42-19.31-1.86-14.43-5.42-19-8.91-7.15-16-7.19-12.49,2.4-16.08,7-5.42,11.43-5.42,19.68Zm-7.88-27c-12.17-.7-24.34-1.63-36.48-2.7V166.8c2.91,0,5.86,0,8.81,0V119.6q9.41.68,18.82,1.19v46l8.85-.1V113Zm-81.36,22.4c0,10.9,2.07,18.81,5.8,24s9,7.56,15.46,7.73a19.22,19.22,0,0,0,16.08-8.74c-1.48-2.23-2.95-4.47-4.43-6.73-3,3.67-6.2,6.38-11.07,6.19a11,11,0,0,1-9.43-5.95c-2.13-3.72-3.22-9-3.22-15.64,0-5.67,1-10.94,3-14.66s5.14-5.86,9.43-5.37c5.07.57,7.88,3.67,10.49,7.21q2.42-3.27,4.83-6.51c-3.15-4.84-7.64-9.06-15.63-10.05-6.72-.88-12.08,1.37-15.7,6.29s-5.63,12.58-5.63,22.22ZM72,115.31c.75,3.53,1.54,7.07,2.29,10.58s1.55,7,2.33,10.48q-6.37-.88-12.75-1.86c.76-3.34,1.58-6.66,2.33-10s1.58-6.59,2.37-9.87c.44-1.84,1-5.09,1.61-7.48l.41.09c.45,2.58,1,6,1.41,8Zm3.53-19c-3.33-.74-6.62-1.5-9.91-2.29-2.88,10.71-5.81,21.56-8.64,32.54s-5.76,22.35-8.6,33.75l9,1q2.1-8.36,4.21-16.64,8.64,1.13,17.28,2.13c1.44,5.64,2.88,11.22,4.36,16.76l9.56.68q-4.36-16.44-8.67-33.3-4.35-17-8.64-34.58ZM14.47,79.53c-3-1-6-2-8.94-3v78.08L14.47,156V122.1c6.28,1.4,12.59,2.78,18.89,4.06v32.4c3,.38,6,.73,9,1.09V88c-3-.84-6-1.7-9-2.59v29.25c-6.3-1.45-12.61-3-18.89-4.58V79.53Z"/><path class="cls-1" d="M301.79,53.22c-1.92.48-3.84.9-5.76,1.31V87.25c1.7-.41,3.39-.78,5.12-1.22,1.89-3.78,3.78-7.53,5.66-11.29s3.81-7.54,5.73-11.37c.48-1,1.21-2.86,1.63-4.1l.22-.07c-.12,1.48-.28,3.16-.28,4.32v19l5.79-1.69V48.28c-1.73.49-3.43,1-5.12,1.47l-5.73,11.41q-2.82,5.64-5.66,11.26a34.41,34.41,0,0,0-1.6,4.06c-.1,0-.19,0-.26.07.13-1.49.26-3.19.26-4.31v-19Zm-26.9,5.29c-1.92.29-3.84.59-5.76.85V92.57l5.76-1V77.17l3.48-.57c1.28,2.17,2.59,4.33,3.87,6.46s2.63,4.25,3.94,6.37c2.21-.45,4.41-.91,6.65-1.44q-2.44-3.69-4.89-7.46c-1.64-2.54-3.26-5.09-4.9-7.62q2.4-4.41,4.8-8.79c1.6-2.92,3.2-5.88,4.8-8.83-2.17.47-4.35.89-6.49,1.28-1.31,2.49-2.59,5-3.87,7.47s-2.56,5-3.84,7.41c-1.19.18-2.37.38-3.55.57V58.51Zm-22,31.36c-1.54.17-3.07.36-4.61.5V80.17c1.6-.13,3.2-.29,4.83-.48,3.46-.36,5,1.24,5,4.35,0,4.35-2.65,5.51-5.24,5.83Zm-.16-14.7c-1.51.15-3,.3-4.45.4V66.35c1.57-.1,3.14-.24,4.7-.4,2.6-.23,4.45.69,4.45,4,0,3.73-2.3,5-4.7,5.23ZM254.41,61c-4,.35-7.93.6-11.86.84v34c3.83-.37,7.7-.75,11.58-1.21s10.14-3.25,10.14-11.06c0-3.15-1.44-6.82-5.83-7v-.18a8.24,8.24,0,0,0,5-7.92c0-6-3.78-7.93-9.06-7.46ZM225.27,72.5q1.48,5.25,3,10.48l-8.19.24q1.49-5.35,3-10.68c.25-1,.64-2.75,1-4l.26,0c.28,1.31.6,3,.89,4Zm2.27-10.22h-6.36c-1.86,5.81-3.75,11.64-5.57,17.48s-3.68,11.78-5.5,17.72l5.82-.13c.9-2.92,1.79-5.86,2.69-8.78,3.68-.1,7.39-.23,11.1-.36.93,2.81,1.85,5.6,2.78,8.4,2.05-.16,4.1-.29,6.14-.44-1.85-5.58-3.74-11.17-5.56-16.8S229.37,68,227.54,62.28Zm-39.09,3.84c2.91.25,5.85.45,8.8.66V97.4c1.92,0,3.87.07,5.82.08V67.12c2.91.13,5.82.27,8.73.35V62.06q-11.7-.57-23.35-1.55v5.61Zm-27,10.28c0,6.88,1.34,11.92,3.71,15.29a12.54,12.54,0,0,0,10,5.32,11.82,11.82,0,0,0,10.33-5.32c-1-1.45-1.92-2.92-2.85-4.38-1.95,2.32-4,4-7.1,3.77-5.31-.39-8.15-5.6-8.15-14,0-7.17,2.52-13.29,8-12.62,3.27.39,5.09,2.4,6.75,4.68,1-1.41,2-2.8,3.11-4.2a13.41,13.41,0,0,0-10-6.46c-4.32-.56-7.78.83-10.11,3.91s-3.58,7.93-3.58,14ZM124,49.19c-2-.51-3.87-1-5.79-1.51V89.84c1.7.32,3.39.58,5.12.85q2.84-5.77,5.66-11.47c1.89-3.77,3.81-7.52,5.73-11.24a39.31,39.31,0,0,0,1.63-4.22l.23,0c-.13,1.79-.26,3.79-.26,5.23V92.66c1.92.27,3.84.53,5.76.76v-40c-1.73-.36-3.43-.73-5.12-1.11-1.92,3.64-3.84,7.31-5.73,11s-3.77,7.47-5.66,11.23A30.58,30.58,0,0,0,124,78.86l-.28-.06c.12-1.81.28-3.93.28-5.35V49.19Zm1.28-13.86c-1.31.06-2.62.13-3.9.22.51,3.91,3.07,10.05,8.8,11.55,5.66,1.32,8.15-3.4,8.73-6.9-1.34-.75-2.65-1.52-4-2.27-.76,2.77-1.88,4.76-4.76,4.07s-4.07-3.41-4.9-6.67ZM101,55.52q1.49,7.06,3,14.07c-2.75-.68-5.47-1.39-8.19-2.12,1-4.23,2-8.41,3-12.59.29-1.17.64-3.26,1-4.77l.29.09c.25,1.69.57,4,.86,5.32Zm2.27-12.21c-2.14-.66-4.25-1.34-6.37-2-1.85,6.8-3.71,13.65-5.53,20.6s-3.68,14-5.5,21.06c1.92.48,3.84,1,5.79,1.43.89-3.51,1.79-7,2.69-10.47q5.56,1.42,11.13,2.7,1.4,5.72,2.78,11.37,3,.62,6.11,1.16c-1.85-7.45-3.75-15-5.57-22.57s-3.71-15.45-5.53-23.24Zm-47.66,25c.89,2.63,1.79,5.23,2.68,7.81C62,74,64.39,70.52,65.93,65.6s2.24-11.24,2.59-19.28c.1-2.72.19-5.44.32-8.14q3.64,1.41,7.3,2.77V80.38c1.91.54,3.83,1.07,5.79,1.56V36c-6.05-2.31-12.1-4.69-18.14-7.25L63.31,41.7c-.39,9.37-1.19,15.25-2.43,19.18s-3,5.89-5.31,7.41ZM53.23,24.12C47,21.19,40.75,18.16,34.55,15V66.65C40.75,69,47,71.27,53.23,73.41v-7.6c-4.32-1.55-8.64-3.18-12.92-4.8V46.6c3.48,1.46,7,2.91,10.52,4.33V43.49c-3.52-1.48-7-3-10.52-4.52V25.73c4.28,2,8.6,4,12.92,5.92V24.12Zm-33.14-9v37.4c-4-1.85-7.9-3.68-11.84-5.57A68.45,68.45,0,0,0,11.1,35.41a144.42,144.42,0,0,0,1.38-15.85c.12-2.83.25-5.63.38-8.46l7.23,4.07Zm-17.47,29L0,42.82V64.47c1.76.76,3.52,1.54,5.28,2.32V54.06q9.78,4.55,19.58,8.69V74.86l5.27,2v-20L25.91,55V10.34C20,7.05,14,3.56,8.06,0c-.19,4.67-.35,9.34-.51,14A152.32,152.32,0,0,1,6.08,31.27,49.58,49.58,0,0,1,2.62,44.13Z"/></g></g></svg>