<svg xmlns="http://www.w3.org/2000/svg" viewBox="0 0 142.1 93.42"><defs><style>.cls-1{fill:#e84e0f;fill-rule:evenodd;}</style></defs><g id="Слой_2" data-name="Слой 2"><g id="Layer_1" data-name="Layer 1"><path class="cls-1" d="M124,49.19c-2-.51-3.87-1-5.79-1.51V89.84c1.7.32,3.39.58,5.12.85q2.84-5.77,5.66-11.47c1.89-3.77,3.81-7.52,5.73-11.24a39.31,39.31,0,0,0,1.63-4.22l.23,0c-.13,1.79-.26,3.79-.26,5.23V92.66c1.92.27,3.84.53,5.76.76v-40c-1.73-.36-3.43-.73-5.12-1.11-1.92,3.64-3.84,7.31-5.73,11s-3.77,7.47-5.66,11.23A30.58,30.58,0,0,0,124,78.86l-.28-.06c.12-1.81.28-3.93.28-5.35V49.19Zm1.28-13.86c-1.31.06-2.62.13-3.9.22.51,3.91,3.07,10.05,8.8,11.55,5.66,1.32,8.15-3.4,8.73-6.9-1.34-.75-2.65-1.52-4-2.27-.76,2.77-1.88,4.76-4.76,4.07s-4.07-3.41-4.9-6.67ZM101,55.52q1.49,7.06,3,14.07c-2.75-.68-5.47-1.39-8.19-2.12,1-4.23,2-8.41,3-12.59.29-1.17.64-3.26,1-4.77l.29.09c.25,1.69.57,4,.86,5.32Zm2.27-12.21c-2.14-.66-4.25-1.34-6.37-2-1.85,6.8-3.71,13.65-5.53,20.6s-3.68,14-5.5,21.06c1.92.48,3.84,1,5.79,1.43.89-3.51,1.79-7,2.69-10.47q5.56,1.42,11.13,2.7,1.4,5.72,2.78,11.37,3,.62,6.11,1.16c-1.85-7.45-3.75-15-5.57-22.57s-3.71-15.45-5.53-23.24Zm-47.66,25c.89,2.63,1.79,5.23,2.68,7.81C62,74,64.39,70.52,65.93,65.6s2.24-11.24,2.59-19.28c.1-2.72.19-5.44.32-8.14q3.64,1.41,7.3,2.77V80.38c1.91.54,3.83,1.07,5.79,1.56V36c-6.05-2.31-12.1-4.69-18.14-7.25L63.31,41.7c-.39,9.37-1.19,15.25-2.43,19.18s-3,5.89-5.31,7.41ZM53.23,24.12C47,21.19,40.75,18.16,34.55,15V66.65C40.75,69,47,71.27,53.23,73.41v-7.6c-4.32-1.55-8.64-3.18-12.92-4.8V46.6c3.48,1.46,7,2.91,10.52,4.33V43.49c-3.52-1.48-7-3-10.52-4.52V25.73c4.28,2,8.6,4,12.92,5.92V24.12Zm-33.14-9v37.4c-4-1.85-7.9-3.68-11.84-5.57A68.45,68.45,0,0,0,11.1,35.41a144.42,144.42,0,0,0,1.38-15.85c.12-2.83.25-5.63.38-8.46l7.23,4.07Zm-17.47,29L0,42.82V64.47c1.76.76,3.52,1.54,5.28,2.32V54.06q9.78,4.55,19.58,8.69V74.86l5.27,2v-20L25.91,55V10.34C20,7.05,14,3.56,8.06,0c-.19,4.67-.35,9.34-.51,14A152.32,152.32,0,0,1,6.08,31.27,49.58,49.58,0,0,1,2.62,44.13Z"/></g></g></svg>
