<svg xmlns="http://www.w3.org/2000/svg" viewBox="0 0 21.72 35.07"><defs><style>.cls-1{fill:#ffffff;fill-rule:evenodd;}</style></defs><g id="Слой_2" data-name="Слой 2"><g id="Слой_4" data-name="Слой 4"><path class="cls-1" d="M15.89,15.8v-.18C24.25,12.12,21.58-2,11.83.24h0C7.86.58,3.93.83,0,1.07v34c8.67-1.56,20.56,1.31,21.72-12.27C21.72,19.65,20.28,16,15.89,15.8ZM5.73,5.58c3.57,0,9.2-2.18,9.15,3.6,0,3.73-2.3,5-4.7,5.23h0c-1.51.15-3,.3-4.45.4ZM10.32,29.1h0c-1.54.17-3.07.36-4.61.5V19.4C18.93,15.89,17.66,28.35,10.32,29.1Z"/></g></g></svg>
