<svg xmlns="http://www.w3.org/2000/svg" viewBox="0 0 44.41 70.22"><defs><style>.cls-1{fill:#fff;fill-rule:evenodd;}</style></defs><g id="Слой_2" data-name="Слой 2"><g id="Слой_7" data-name="Слой 7"><path class="cls-1" d="M35.74,36.92q-4.35-17-8.64-34.58l0,0C23.82,1.55,20.53.79,17.24,0,14.36,10.71,11.43,21.56,8.6,32.54S2.84,54.89,0,66.29l9,1q2.1-8.36,4.21-16.64,8.64,1.13,17.28,2.13c1.44,5.64,2.88,11.22,4.36,16.76l9.56.68Q40,53.78,35.74,36.92ZM15.49,40.49c.76-3.34,1.58-6.66,2.33-10s1.58-6.59,2.37-9.87c.44-1.84,1-5.09,1.61-7.48l.41.09c.45,2.58,1,6,1.41,8v.06c.75,3.53,1.54,7.07,2.29,10.58s1.55,7,2.33,10.48Q21.87,41.47,15.49,40.49Z"/></g></g></svg>