<svg xmlns="http://www.w3.org/2000/svg" viewBox="0 0 37.36 60.44"><defs><style>.cls-1{fill:#fff;fill-rule:evenodd;}</style></defs><g id="Слой_2" data-name="Слой 2"><g id="Слой_8" data-name="Слой 8"><path class="cls-1" d="M21.86,51.16a11,11,0,0,1-9.43-5.95c-2.13-3.72-3.22-9-3.22-15.64,0-5.67,1-10.94,3-14.66s5.14-5.86,9.43-5.37c5.07.57,7.88,3.67,10.49,7.21L37,10.24C33.81,5.4,29.32,1.18,21.33.19,14.61-.69,9.25,1.56,5.63,6.48S0,19.06,0,28.7H0c0,10.9,2.07,18.81,5.8,24s9,7.56,15.46,7.73A19.23,19.23,0,0,0,37.36,51.7c-1.48-2.23-3-4.47-4.43-6.73C29.93,48.64,26.73,51.35,21.86,51.16Z"/></g></g></svg>