<svg xmlns="http://www.w3.org/2000/svg" viewBox="0 0 42.92 53.42"><defs><style>.cls-1{fill:#fff;fill-rule:evenodd;}</style></defs><g id="Слой_2" data-name="Слой 2"><g id="Слой_10" data-name="Слой 10"><path class="cls-1" d="M21.5,0C14.41,0,9,2.4,5.42,7S0,18.43,0,26.68v.06C0,35,1.81,41.81,5.42,46.48s9,7.16,16.08,6.92,12.4-3.14,16-7.9,5.42-11.38,5.42-19.31-1.86-14.43-5.42-19S28.59,0,21.5,0ZM33.77,26.48a29.52,29.52,0,0,1-2.4,12.44,10.79,10.79,0,0,1-9.87,6.53,10.1,10.1,0,0,1-10-6.05C9.7,35.79,9.2,31,9.2,26.79s.55-8.92,2.33-12.6a11,11,0,0,1,19.85,0c1.78,3.6,2.4,8.23,2.4,12.31Z"/></g></g></svg>