<svg xmlns="http://www.w3.org/2000/svg" viewBox="0 0 32.52 51.64"><defs><style>.cls-1{fill:#fff;fill-rule:evenodd;}</style></defs><g id="Слой_2" data-name="Слой 2"><g id="Слой_11" data-name="Слой 11"><path class="cls-1" d="M27.43,2.49C24.48.41,20.61-.18,17.08,0V0Q8.54.49,0,.78V51.64L9,51V32.15c2.36-.15,4.73-.29,7.09-.45a18,18,0,0,0,11.62-5,17.31,17.31,0,0,0,4.85-12.55C32.51,8.15,30.38,4.57,27.43,2.49ZM15.19,24.34h0c-2.13.14-4.22.26-6.31.38v-17c2.23-.11,4.45-.22,6.68-.35,3.4-.22,7.72.51,7.72,7.54C23.28,22.33,18.51,24.11,15.19,24.34Z"/></g></g></svg>