<svg xmlns="http://www.w3.org/2000/svg" viewBox="0 0 39.66 67.83"><defs><style>.cls-1{fill:#fff;fill-rule:evenodd;}</style></defs><g id="Слой_2" data-name="Слой 2"><g id="Слой_6" data-name="Слой 6"><path class="cls-1" d="M25.19,3.07h0c-2.94-1-5.87-2-8.81-3.07C11.11,20.72,5.66,42.58,0,60.29Q4,61.15,8.07,62c1.38-4.36,2.74-9,4.09-13.72Q19.87,50,27.58,51.52q1.79,7.73,3.56,14.83c2.84.5,5.68,1,8.52,1.48C34.94,49.05,30.15,26.82,25.19,3.07ZM14.35,39.21c1.51-6.07,3-12.32,4.47-18.61.18-.64.39-1.66.62-3s.59-2.8.89-4.2l.38.12L21.07,16q.36,3,.78,5.51h0c1.29,7,2.57,13.85,3.83,20.4Q20,40.58,14.35,39.21Z"/></g></g></svg>