<svg xmlns="http://www.w3.org/2000/svg" viewBox="0 0 30.45 57.61"><defs><style>.cls-1{fill:#fff;fill-rule:evenodd;}</style></defs><g id="Слой_2" data-name="Слой 2"><g id="Слой_6" data-name="Слой 6"><path class="cls-1" d="M22.55,30v-.32A7.42,7.42,0,0,0,27.71,26a14.19,14.19,0,0,0,1.95-7.44c.05-4.66-1.05-8.23-3.29-10.78A15.11,15.11,0,0,0,17.21,3h0Q9,1.67.76,0C.61,19,.35,38.25,0,55.77q8.06,1,16.1,1.77a15.24,15.24,0,0,0,6.46-.77,11.1,11.1,0,0,0,5.51-4.32c1.53-2.16,2.32-5.16,2.38-9a17.89,17.89,0,0,0-1.82-8.25A9.82,9.82,0,0,0,22.55,30ZM8.62,9.63q3.26.55,6.51,1.06c4.13.65,6.18,3.35,6.12,8.16q0,4.24-1.9,5.78a5.85,5.85,0,0,1-4.7,1.17h0c-2.07-.28-4.13-.56-6.2-.86C8.51,19.86,8.57,14.74,8.62,9.63Zm13.3,32.44c-.05,3.19-.76,5.29-2.14,6.35a7.13,7.13,0,0,1-5.3,1.25h0c-2.13-.23-4.27-.46-6.4-.71.09-5.39.18-10.89.26-16.46,2.24.3,4.48.58,6.71.86q7,.84,6.86,8.71"/></g></g></svg>