<svg xmlns="http://www.w3.org/2000/svg" viewBox="0 0 30.41 69.14"><defs><style>.cls-1{fill:#fff;fill-rule:evenodd;}</style></defs><g id="Слой_2" data-name="Слой 2"><g id="Слой_5" data-name="Слой 5"><path class="cls-1" d="M28.46,45.77a16.85,16.85,0,0,0-6.14-7.69v-.33a4.85,4.85,0,0,0,5.07-2.08,11.45,11.45,0,0,0,1.81-6.92A20,20,0,0,0,25.71,17,26.1,26.1,0,0,0,16.47,9.1h0C11,6.16,5.49,3.11,0,0,.27,16.93.4,38.29.34,61.31q8,3.64,16,6.88a12.23,12.23,0,0,0,6.41.83,8,8,0,0,0,5.42-3.68c1.48-2.13,2.23-5.4,2.22-9.78A25.75,25.75,0,0,0,28.46,45.77ZM8,12q3.27,1.79,6.52,3.53A11,11,0,0,1,20.83,26c0,2.86-.58,4.64-1.79,5.27s-2.77.48-4.66-.48h0q-3.09-1.56-6.18-3.2Q8.13,19.42,8,12ZM19.89,58.08c-1.36.84-3.1.82-5.25-.12s-4.25-1.88-6.37-2.86c0-6.62,0-13.09,0-19.31,2.23,1.14,4.47,2.25,6.7,3.34,4.64,2.28,7,6.2,7,12.18C21.91,55,21.24,57.24,19.89,58.08Z"/></g></g></svg>