<svg xmlns="http://www.w3.org/2000/svg" viewBox="0 0 30.44 49.21"><defs><style>.cls-1{fill:#fff;fill-rule:evenodd;}</style></defs><g id="Слой_2" data-name="Слой 2"><g id="Слой_1-2" data-name="Слой 1"><path class="cls-1" d="M22.23,21.67A13,13,0,0,1,14.39,25C10,25.23,7.91,22.49,8,16.85c.06-5.31.11-10.59.15-15.78q-4,.1-7.94.16C.14,7.39.08,13.66,0,20c0,4.1.93,7.35,2.94,9.7s4.88,3.41,8.63,3.18a20,20,0,0,0,10.55-3.73h0c-.1,6.8-.23,13.55-.37,20.09q4-.39,8-.87C30.1,32.8,30.32,16,30.44,0q-4,.27-8,.49C22.39,7.45,22.32,14.56,22.23,21.67Z"/></g></g></svg>