<svg xmlns="http://www.w3.org/2000/svg" viewBox="0 0 26.6 51.14"><defs><style>.cls-1{fill:#fff;fill-rule:evenodd;}</style></defs><g id="Слой_2" data-name="Слой 2"><g id="Слой_1-2" data-name="Слой 1"><path class="cls-1" d="M.65,0C.52,16.79.3,34.37,0,51.14q6.5,0,13-.17l3.25-.09,3.24-.11c2.16-.08,4.32-.18,6.48-.28q.07-3.8.14-7.63-9,.38-17.94.45c.08-4.77.15-9.59.21-14.41q7.31,0,14.59-.13c0-2.53.07-5.05.1-7.58q-7.29.11-14.59,0Q8.53,14.58,8.59,8q9,.21,18,.11,0-3.81.06-7.57h0Q13.62.58.65,0Z"/></g></g></svg>