<svg xmlns="http://www.w3.org/2000/svg" viewBox="0 0 26.07 66.97"><defs><style>.cls-1{fill:#fff;fill-rule:evenodd;}</style></defs><g id="Слой_2" data-name="Слой 2"><g id="Слой_5" data-name="Слой 5"><path class="cls-1" d="M9.56,9.1c0-2.3-.07-4.54-.1-6.71h0C7.22,1.61,5,.82,2.74,0q.06,3.32.1,6.82Q6.2,8,9.56,9.1Z"/><path class="cls-1" d="M22.1,13q0-3.35-.1-6.51h0c-2.24-.69-4.48-1.39-6.72-2.12,0,2.14.07,4.34.1,6.62Q18.74,12,22.1,13Z"/><path class="cls-1" d="M26,67q0-4,0-8-9-1.6-17.93-3.62,0-7.51,0-14.69,7.29,1.89,14.58,3.47c0-2.45,0-4.86,0-7.24q-7.3-1.69-14.59-3.7,0-6.39-.06-12.36,9,2.73,18,5c0-2.24,0-4.44-.06-6.58h0Q13,15.79,0,11.31c.16,14.9.19,32.23.11,50.61q13,2.92,25.93,5"/></g></g></svg>