<svg xmlns="http://www.w3.org/2000/svg" viewBox="0 0 33.82 51.55"><defs><style>.cls-1{fill:#fff;fill-rule:evenodd;}</style></defs><g id="Слой_2" data-name="Слой 2"><g id="Слой_1-2" data-name="Слой 1"><path class="cls-1" d="M0,51.55c2.35-.86,4.69-1.73,7-2.63A208.05,208.05,0,0,0,23.55,21.86a52,52,0,0,0,2.31-5.63l.32-.11c-.29,2.73-.45,4.61-.47,5.78-.15,8.19-.42,15.14-.85,19.9,2.65-1.11,5.28-2.24,7.92-3.39.76-7.57,1-22.1,1-38.41q-3.53,1.27-7,2.49C21.54,14,16.2,24.81,10.73,34.34a38.8,38.8,0,0,0-2.31,4.93L8,39.4a45.59,45.59,0,0,0,.55-5.08c.21-7.7.31-16.67.35-26h0Q5,9.56,1,10.73C.91,26.65.66,41.7,0,51.55"/></g></g></svg>