<svg xmlns="http://www.w3.org/2000/svg" viewBox="0 0 33.82 65.34"><defs><style>.cls-1{fill:#fff;fill-rule:evenodd;}</style></defs><g id="Слой_2" data-name="Слой 2"><g id="Слой_1-2" data-name="Слой 1"><path class="cls-1" d="M11.22,15.48a10,10,0,0,0,6.24-.35,15.56,15.56,0,0,0,6.2-3.77,19.64,19.64,0,0,0,4-5.6A22.1,22.1,0,0,0,29.45,0L24,.43A18.94,18.94,0,0,1,21.64,6a7.91,7.91,0,0,1-4.18,3.05c-1.84.61-3.24.54-4.23-.2A8.6,8.6,0,0,1,10.73,5h0Q8,6.66,5.36,8.26a10.26,10.26,0,0,0,1.83,4.37A7.65,7.65,0,0,0,11.22,15.48Z"/><path class="cls-1" d="M0,65.34c2.35-.85,4.69-1.73,7-2.62A208.84,208.84,0,0,0,23.55,35.65,52,52,0,0,0,25.86,30l.32-.11c-.29,2.73-.45,4.62-.47,5.79-.15,8.19-.42,15.14-.85,19.9,2.65-1.11,5.28-2.24,7.92-3.4.76-7.56,1-22.1,1-38.4l-7,2.49C21.54,27.84,16.2,38.6,10.73,48.13a38.93,38.93,0,0,0-2.31,4.94L8,53.2a45.77,45.77,0,0,0,.55-5.09c.21-7.7.31-16.66.35-26h0Q5,23.36,1,24.52c-.07,15.93-.32,31-1,40.82"/></g></g></svg>