<svg xmlns="http://www.w3.org/2000/svg" viewBox="0 0 32.96 42.43"><defs><style>.cls-1{fill:#fff;fill-rule:evenodd;}</style></defs><g id="Слой_2" data-name="Слой 2"><g id="Слой_5" data-name="Слой 5"><path class="cls-1" d="M12.93,22.84C16.51,29,20.07,35.44,23.61,42L33,41.85c-4.5-7.83-9-15.42-13.58-22.62C23.82,12.57,28.24,6.37,32.65.78q-4.51.09-9,.07C20.09,5.59,16.55,10.77,13,16.31l-4.9-.08c0-5.62,0-10.9-.08-15.78H8C5.33.33,2.67.18,0,0,.11,12.1.12,26.6.05,42.43l8-.14c0-6.77,0-13.31,0-19.5C9.71,22.82,11.32,22.84,12.93,22.84Z"/></g></g></svg>