<svg xmlns="http://www.w3.org/2000/svg" viewBox="0 0 37.18 53.72"><defs><style>.cls-1{fill:#fff;fill-rule:evenodd;}</style></defs><g id="Слой_2" data-name="Слой 2"><g id="Слой_1-2" data-name="Слой 1"><path class="cls-1" d="M11.22,14.39a105.33,105.33,0,0,1-2,16.31,29.52,29.52,0,0,1-3.53,9.38A20.63,20.63,0,0,1,0,45.83H0C1.21,48.4,2.42,51,3.62,53.46a24.33,24.33,0,0,0,8.2-7.91,36.14,36.14,0,0,0,4.5-11.36,108,108,0,0,0,2.1-16.31c.19-3.06.37-6.12.55-9.16q5.07.43,10.14.78c-.14,14.66-.34,29.67-.59,44.05q4,.11,8,.17c.3-16.89.52-34.6.65-51.56Q24.6,1.38,12,0,11.63,7.14,11.22,14.39Z"/></g></g></svg>