<svg xmlns="http://www.w3.org/2000/svg" viewBox="0 0 33.54 51.8"><defs><style>.cls-1{fill:#fff;fill-rule:evenodd;}</style></defs><g id="Слой_2" data-name="Слой 2"><g id="Слой_1-2" data-name="Слой 1"><path class="cls-1" d="M25.36,20.3q-8.4,1.64-16.8,3c.09-6.25.16-12.62.2-18.92q-4,.63-8,1.19C.66,21.36.43,37.63,0,51.8c2.66-.53,5.31-1.08,8-1.64.2-6.13.35-12.72.47-19.52q8.4-1.47,16.79-3.16c-.13,6.65-.3,13-.51,18.81,2.65-.66,5.31-1.34,8-2,.5-12.72.75-28.54.86-44.25-2.66.53-5.32,1.05-8,1.54C25.52,7.82,25.45,14.14,25.36,20.3Z"/></g></g></svg>