<svg xmlns="http://www.w3.org/2000/svg" viewBox="0 0 32.89 43.34"><defs><style>.cls-1{fill:#fff;fill-rule:evenodd;}</style></defs><g id="Слой_2" data-name="Слой 2"><g id="Слой_5" data-name="Слой 5"><path class="cls-1" d="M24.9,21.83c0,6.13,0,12.67,0,19.44,2.66-.28,5.32-.59,8-.91.06-15.3,0-29.31-.06-40.36-2.66.31-5.32.58-8,.84,0,4.45.06,9.35.07,14.62q-8.4.86-16.81,1.4C8.06,11.55,8,6.6,8,2.07H8c-2.66.14-5.33.25-8,.33.09,11.42.12,25.5.05,41q4-.24,8-.54c0-6.81,0-13.37,0-19.53Q16.49,22.7,24.9,21.83Z"/></g></g></svg>