<svg xmlns="http://www.w3.org/2000/svg" viewBox="0 0 38.23 58.09"><defs><style>.cls-1{fill:#fff;fill-rule:evenodd;}</style></defs><g id="Слой_2" data-name="Слой 2"><g id="Слой_5" data-name="Слой 5"><path class="cls-1" d="M19,2C12.76-.69,8-.76,4.8,2.4S0,11.46,0,20.51H0c0,9,1.67,17.34,4.94,24s8,11,14.18,12.79,10.92.36,14.2-3.85,4.92-10.6,4.9-18.85-1.7-14.85-5-20.43A29.59,29.59,0,0,0,19,2Zm8.71,43.08c-1.64,3.43-4.48,4.63-8.51,3.36s-6.92-4.32-8.53-9A48.41,48.41,0,0,1,8.19,23.92c0-5.55.76-9.79,2.34-12.8S15,7.62,19,9.31A15,15,0,0,1,27.6,18a37.73,37.73,0,0,1,2.51,14h0A30.1,30.1,0,0,1,27.67,45.05Z"/></g></g></svg>