<svg xmlns="http://www.w3.org/2000/svg" viewBox="0 0 38.28 45.5"><defs><style>.cls-1{fill:#fff;fill-rule:evenodd;}</style></defs><g id="Слой_2" data-name="Слой 2"><g id="Слой_5" data-name="Слой 5"><path class="cls-1" d="M33.31,7.21c-3.29-3.85-8-6-14.24-6.9S8.14.35,4.88,3.56,0,11.82,0,19.06s1.64,13.56,4.92,18.4a17.71,17.71,0,0,0,14.2,8c6.2.42,10.94-1.61,14.23-5.77S38.28,29.82,38.28,23,36.61,11.05,33.31,7.21ZM30.14,22.44h0A24.11,24.11,0,0,1,27.68,33.7c-1.64,3.16-4.48,4.67-8.53,4.36a9.56,9.56,0,0,1-8.54-5.81,28.82,28.82,0,0,1-2.41-12c0-4.46.79-8,2.39-10.78S15,5.69,19.12,6.22s6.9,2.21,8.54,5.26a22.68,22.68,0,0,1,2.48,11Z"/><polygon class="cls-1" points="30.14 22.44 30.14 22.44 30.14 22.44 30.14 22.44"/></g></g></svg>