<svg xmlns="http://www.w3.org/2000/svg" viewBox="0 0 38.14 42.3"><defs><style>.cls-1{fill:#fff;fill-rule:evenodd;}</style></defs><g id="Слой_2" data-name="Слой 2"><g id="Слой_5" data-name="Слой 5"><path class="cls-1" d="M33.19,2.39C29.92-.11,25.2-.53,19,.58S8.13,3.86,4.87,7.56,0,16.09,0,22.53,1.65,34.31,4.92,37.94s8,5.08,14.18,4a20.66,20.66,0,0,0,14.16-8.9,30.53,30.53,0,0,0,4.87-17.37C38.11,9.12,36.46,4.88,33.19,2.39ZM27.6,28.74A10.89,10.89,0,0,1,19.11,35c-4.07.71-6.91-.43-8.52-3.27A21,21,0,0,1,8.17,21.34,16.47,16.47,0,0,1,10.72,12c1.62-2.72,4.47-4.31,8.55-5s6.87-.08,8.48,2.09,2.42,5.11,2.39,9A24.56,24.56,0,0,1,27.6,28.74Z"/></g></g></svg>