<svg xmlns="http://www.w3.org/2000/svg" viewBox="0 0 29.86 74.43"><defs><style>.cls-1{fill:#fff;fill-rule:evenodd;}</style></defs><g id="Слой_2" data-name="Слой 2"><g id="Слой_6" data-name="Слой 6"><path class="cls-1" d="M26,16.36c-2.65-4.47-5.86-7.6-9.63-9.27h0Q8.8,3.72,1.22,0C1.06,26.33.64,52.87,0,72.57c2.67.63,5.33,1.25,8,1.86.22-7.28.43-15.39.6-24.06,2.1.62,4.2,1.24,6.3,1.84a10.44,10.44,0,0,0,7.48-.41,11.38,11.38,0,0,0,5.37-5.94,28.8,28.8,0,0,0,2.1-11.53Q30,23.07,26,16.36ZM19.4,40.71a4.84,4.84,0,0,1-5.09,1.11c-1.86-.6-3.73-1.21-5.59-1.83C8.85,31.87,9,23.4,9,14.84c2,.84,3.94,1.67,5.91,2.47a10.35,10.35,0,0,1,4.89,4.4c1.29,2.11,1.92,5.44,1.86,10C21.63,36.38,20.86,39.35,19.4,40.71Z"/></g></g></svg>