<svg xmlns="http://www.w3.org/2000/svg" viewBox="0 0 31.81 59.79"><defs><style>.cls-1{fill:#fff;fill-rule:evenodd;}</style></defs><g id="Слой_2" data-name="Слой 2"><g id="Слой_6" data-name="Слой 6"><path class="cls-1" d="M23.93,31.15v-.41A7.56,7.56,0,0,0,29.19,27a14.78,14.78,0,0,0,2.2-8.12A19.08,19.08,0,0,0,27.92,7.14,17.54,17.54,0,0,0,17.61.56a13.71,13.71,0,0,0-9.4.6A16.72,16.72,0,0,0,1.48,6.73q2.34,4.13,4.69,8.14a17.24,17.24,0,0,1,4.66-4.35,7.19,7.19,0,0,1,5.53-.73,8,8,0,0,1,4.82,3,9.79,9.79,0,0,1,1.67,6.1c0,2.69-.63,4.64-1.81,5.87a4.68,4.68,0,0,1-4.54,1.31L11.15,25q-.06,4.26-.13,8.44c1.83.34,3.66.68,5.49,1,4.64.83,6.93,3.85,6.84,9-.1,5.82-2.91,8.24-8.42,7.39a12.09,12.09,0,0,1-6.46-2.93A23.75,23.75,0,0,1,4.14,42.6h0Q2.07,45.77,0,48.86a21,21,0,0,0,6.46,7.07,20.37,20.37,0,0,0,8.87,3.6q7.64,1.14,12-2.67c2.9-2.55,4.4-6.42,4.48-11.71a17.7,17.7,0,0,0-2-8.83A10.15,10.15,0,0,0,23.93,31.15Z"/></g></g></svg>